<svg id="Layer_1" data-name="Layer 1" xmlns="http://www.w3.org/2000/svg" viewBox="0 0 168.91 171.25"><defs><style>.cls-1{fill:#ff6368;}.cls-2{fill:#fff;}</style></defs><title>thumbdown</title><circle class="cls-1" cx="84.45" cy="88.15" r="79.3"/><path class="cls-2" d="M68.71,91V57.85c0-7.21,1.6-8.26,14.31-8.26H119.6s9.55,2.19,7,12.53c0,0,6.36,4,2.39,14.11,0,0,5.76,6,.2,14.32,0,0,7.17,11.12-6.59,15.3a13.21,13.21,0,0,1-4.24.54c-4.77-.16-17.06-.47-18.18.33-1.39,1-3.71,1.59,3,13.32,4.93,11.29,1.46,20.74-3,22.71-4.2,1.82-7-2.91-8.17-14-3.48-11.39-9.33-7.4-22.11-32.84A11,11,0,0,1,68.71,91Z"/><rect class="cls-2" x="37.34" y="49.59" width="25.16" height="47.45" rx="3"/><circle class="cls-1" cx="49.91" cy="85.75" r="4.3"/></svg>