<svg xmlns="http://www.w3.org/2000/svg" viewBox="0 0 217.65 132.83"><defs><style>.cls-1{fill:#5095ce;}.cls-2{fill:#fff;}</style></defs><title>click</title><g id="Layer_8" data-name="Layer 8"><rect class="cls-1" x="9.82" y="13.46" width="204.3" height="91.57" rx="45.78"/><polygon class="cls-1" points="111.97 130.1 128.07 102.21 95.86 102.21 111.97 130.1"/><rect class="cls-2" x="5.57" y="7.21" width="204.3" height="91.57" rx="45.78"/><path class="cls-1" d="M55.67,56.92a12.17,12.17,0,0,1,12.15-12,12.62,12.62,0,0,1,7.61,2.63A2.62,2.62,0,0,1,76,51.08a2.54,2.54,0,0,1-3.58.48A7.66,7.66,0,0,0,67.82,50a6.87,6.87,0,1,0,0,13.73,7.77,7.77,0,0,0,4.55-1.53,2.6,2.6,0,0,1,3.58.53,2.64,2.64,0,0,1-.52,3.54,13.22,13.22,0,0,1-7.61,2.53A12.12,12.12,0,0,1,55.67,56.92Z"/><path class="cls-1" d="M85.76,35.35A2.66,2.66,0,0,1,88.44,38V66.2a2.66,2.66,0,0,1-5.31,0V38A2.65,2.65,0,0,1,85.76,35.35Z"/><path class="cls-1" d="M99.92,38.93a2.58,2.58,0,1,1-5.16,0v-1a2.58,2.58,0,1,1,5.16,0Zm0,8.66V66.25a2.58,2.58,0,0,1-5.16,0V47.59a2.58,2.58,0,1,1,5.16,0Z"/><path class="cls-1" d="M105.14,56.92a12.17,12.17,0,0,1,12.15-12,12.56,12.56,0,0,1,7.6,2.63,2.64,2.64,0,0,1,.53,3.54,2.55,2.55,0,0,1-3.59.48A7.6,7.6,0,0,0,117.29,50a6.87,6.87,0,1,0,0,13.73,7.72,7.72,0,0,0,4.54-1.53,2.61,2.61,0,0,1,3.59.53,2.65,2.65,0,0,1-.53,3.54,13.16,13.16,0,0,1-7.6,2.53A12.12,12.12,0,0,1,105.14,56.92Z"/><path class="cls-1" d="M131.11,66.2V38a2.62,2.62,0,0,1,2.63-2.63A2.66,2.66,0,0,1,136.42,38V54.53l9.81-9.81a2.69,2.69,0,0,1,3.73,0,2.6,2.6,0,0,1,0,3.73l-7.18,7.18,7.37,8.85a2.65,2.65,0,0,1-.38,3.73,2.52,2.52,0,0,1-1.68.62,2.5,2.5,0,0,1-2-1l-7-8.51L136.42,62V66.2a2.66,2.66,0,0,1-2.68,2.63A2.63,2.63,0,0,1,131.11,66.2Z"/><path class="cls-1" d="M154.94,57.3V38a2.65,2.65,0,0,1,2.63-2.63A2.61,2.61,0,0,1,160.15,38V57.3a2.58,2.58,0,0,1-2.58,2.63A2.61,2.61,0,0,1,154.94,57.3Zm2.63,11.53a2.62,2.62,0,0,1-2.63-2.63v-1a2.65,2.65,0,0,1,2.63-2.63,2.62,2.62,0,0,1,2.58,2.63v1A2.58,2.58,0,0,1,157.57,68.83Z"/><polygon class="cls-2" points="107.72 123.86 123.83 95.96 91.61 95.96 107.72 123.86"/></g></svg>