<svg xmlns="http://www.w3.org/2000/svg" viewBox="0 0 187.48 414.45"><defs><style>.cls-1{fill:#b3ebff;}.cls-2{fill:#1f1f2b;}.cls-3{fill:#8adbff;}.cls-4{fill:none;stroke:#525266;stroke-miterlimit:10;stroke-width:2px;}.cls-5{fill:#c46fd8;}.cls-6{fill:#b4c3d1;}.cls-7{fill:#2c2c3a;}.cls-8{fill:#525266;}</style></defs><title>DES157_Studio2</title><g id="Layer_1" data-name="Layer 1"><ellipse class="cls-1" cx="108.91" cy="380.71" rx="63.34" ry="21.98"/><path class="cls-2" d="M78.84,85.84,59,98.63a6.91,6.91,0,0,0-2,9.53L59.4,112a1.1,1.1,0,0,0,1.53.33L90.48,93.22a1.11,1.11,0,0,0,.33-1.53L88.36,87.9A6.9,6.9,0,0,0,78.84,85.84Z"/><ellipse class="cls-3" cx="100.56" cy="378.2" rx="54.98" ry="19.69"/><path class="cls-2" d="M39.8,54.9c11.4-7.16,26.29,24.8,27.33,26.49l9.75-9.56S66.78,46.92,49.9,45"/><path class="cls-4" d="M73.36,66S55.68,33.94,44,49.87"/><path class="cls-5" d="M70.51,140.38h41.08a5.68,5.68,0,0,1,5.68,5.68v41.14a0,0,0,0,1,0,0H64.83a0,0,0,0,1,0,0V146.05A5.68,5.68,0,0,1,70.51,140.38Z"/><rect class="cls-5" x="46.75" y="161.74" width="88.6" height="222.25" rx="17.38"/><path class="cls-5" d="M57,163.27s8.37-3,7.81-14.61L70,151.24v16.84H58.14Z"/><path class="cls-5" d="M125,163.27s-8.36-3-7.8-14.61l-5.16,2.58v16.84h11.84Z"/><path class="cls-6" d="M67.79,140.38H114.3a3,3,0,0,1,3,3v8.18a0,0,0,0,1,0,0H64.83a0,0,0,0,1,0,0v-8.18A3,3,0,0,1,67.79,140.38Z"/><path class="cls-7" d="M42.77,71.69H85.09A6.89,6.89,0,0,1,92,78.58V96.7A5.33,5.33,0,0,1,86.65,102H41.2a5.33,5.33,0,0,1-5.33-5.33V78.58a6.89,6.89,0,0,1,6.89-6.89Z" transform="translate(-36.88 48.53) rotate(-32.83)"/><path class="cls-8" d="M53.58,44.89c-19.85,6.35-8.43,24.74-1,35.32C55,83.74,62.8,90.56,60.21,93.33l-13,3.52s-29-29.93-9.43-46.66C42.65,46.25,50.41,43.26,53.58,44.89Z"/><circle class="cls-6" cx="53.56" cy="93.93" r="6.91"/><rect class="cls-7" x="59.47" y="102.38" width="34.97" height="4.61" transform="translate(-44.46 58.44) rotate(-32.83)"/><path class="cls-7" d="M64.33,109.92h35a0,0,0,0,1,0,0v3.44a1.17,1.17,0,0,1-1.17,1.17H65.5a1.17,1.17,0,0,1-1.17-1.17v-3.44A0,0,0,0,1,64.33,109.92Z" transform="translate(-47.77 62.28) rotate(-32.83)"/><rect class="cls-2" x="60.59" y="105.5" width="37.38" height="5.59" rx="1.61" transform="translate(-46.05 60.27) rotate(-32.83)"/></g></svg>