<svg xmlns="http://www.w3.org/2000/svg" viewBox="0 0 498.27 454.29"><defs><style>.cls-1{fill:#b3ebff;}.cls-2{fill:#8adbff;}.cls-3{fill:#425071;}.cls-4{fill:#c5c4d6;}.cls-5{fill:#95a3af;}.cls-6{fill:#a45071;}.cls-7{fill:#d8cad3;}.cls-8{fill:#efe6ee;}.cls-9{fill:none;stroke:#6691d8;stroke-miterlimit:10;}</style></defs><title>DES157_Studio2</title><g id="Layer_1" data-name="Layer 1"><path class="cls-1" d="M279.88,184H432.32a14.86,14.86,0,0,1,14.86,14.86V406.66a12.63,12.63,0,0,1-12.63,12.63H275.3a8,8,0,0,1-8-8V196.67A12.63,12.63,0,0,1,279.88,184Z" transform="translate(207.36 -141.22) rotate(31.13)"/><path class="cls-2" d="M284.64,182.71H427.57a14.86,14.86,0,0,1,14.86,14.86v192a12.63,12.63,0,0,1-12.63,12.63H280.05a8,8,0,0,1-8-8V195.35a12.63,12.63,0,0,1,12.63-12.63Z" transform="translate(202.6 -142.55) rotate(31.13)"/><rect class="cls-3" x="263.57" y="169.92" width="169.16" height="216.22" rx="12" transform="translate(193.84 -139.94) rotate(31.13)"/><path class="cls-4" d="M269.13,154.33H407.41a27.29,27.29,0,0,1,27.29,27.29V367.18a12.63,12.63,0,0,1-12.63,12.63H282.82a26.33,26.33,0,0,1-26.33-26.33V167a12.63,12.63,0,0,1,12.63-12.63Z" transform="translate(187.81 -140.2) rotate(31.13)"/><rect class="cls-3" x="259.54" y="152.66" width="169.16" height="216.22" rx="12" transform="translate(184.34 -140.34) rotate(31.13)"/><rect class="cls-5" x="312.69" y="135.27" width="15.8" height="3.81" rx="1.9" transform="translate(117.06 -145.97) rotate(31.13)"/><rect class="cls-5" x="305.24" y="147.61" width="15.8" height="3.81" rx="1.9" transform="translate(122.37 -140.34) rotate(31.13)"/><rect class="cls-5" x="297.79" y="159.95" width="15.8" height="3.81" rx="1.9" transform="translate(127.67 -134.72) rotate(31.13)"/><rect class="cls-5" x="290.34" y="172.29" width="15.8" height="3.81" rx="1.9" transform="translate(132.98 -129.09) rotate(31.13)"/><rect class="cls-5" x="282.89" y="184.63" width="15.8" height="3.81" rx="1.9" transform="translate(138.29 -123.46) rotate(31.13)"/><rect class="cls-5" x="275.44" y="196.97" width="15.8" height="3.81" rx="1.9" transform="translate(143.59 -117.83) rotate(31.13)"/><rect class="cls-5" x="267.99" y="209.31" width="15.8" height="3.81" rx="1.9" transform="translate(148.9 -112.2) rotate(31.13)"/><rect class="cls-5" x="260.53" y="221.65" width="15.8" height="3.81" rx="1.9" transform="translate(154.2 -106.57) rotate(31.13)"/><rect class="cls-5" x="253.08" y="233.99" width="15.8" height="3.81" rx="1.9" transform="translate(159.51 -100.95) rotate(31.13)"/><rect class="cls-5" x="245.63" y="246.33" width="15.8" height="3.81" rx="1.9" transform="translate(164.81 -95.32) rotate(31.13)"/><rect class="cls-5" x="238.18" y="258.67" width="15.8" height="3.81" rx="1.9" transform="translate(170.12 -89.69) rotate(31.13)"/><rect class="cls-5" x="230.73" y="271.01" width="15.8" height="3.81" rx="1.9" transform="matrix(0.86, 0.52, -0.52, 0.86, 175.43, -84.06)"/><rect class="cls-5" x="223.28" y="283.35" width="15.8" height="3.81" rx="1.9" transform="translate(180.73 -78.43) rotate(31.13)"/><rect class="cls-5" x="215.83" y="295.69" width="15.8" height="3.81" rx="1.9" transform="translate(186.04 -72.81) rotate(31.13)"/><rect class="cls-6" x="240.22" y="112.36" width="169.16" height="216.22" rx="12" transform="matrix(0.95, 0.3, -0.3, 0.95, 81.76, -87.8)"/><path class="cls-7" d="M243.27,97.67H381.56A27.29,27.29,0,0,1,408.85,125V310.52a12.63,12.63,0,0,1-12.63,12.63H257a26.33,26.33,0,0,1-26.33-26.33V110.31a12.63,12.63,0,0,1,12.63-12.63Z" transform="translate(78.49 -86.75) rotate(17.58)"/><rect class="cls-8" x="232.25" y="96.52" width="169.16" height="216.22" rx="12" transform="translate(76.61 -86.14) rotate(17.58)"/><rect class="cls-6" x="68.34" y="41.41" width="169.16" height="216.22" rx="12" transform="translate(52.3 -39.21) rotate(17.58)"/><rect class="cls-5" x="255.11" y="87.09" width="15.8" height="3.81" rx="1.9" transform="translate(39.16 -75.28) rotate(17.58)"/><rect class="cls-5" x="250.76" y="100.83" width="15.8" height="3.81" rx="1.9" transform="translate(43.11 -73.33) rotate(17.58)"/><rect class="cls-5" x="246.41" y="114.57" width="15.8" height="3.81" rx="1.9" transform="translate(47.06 -71.37) rotate(17.58)"/><rect class="cls-5" x="242.05" y="128.31" width="15.8" height="3.81" rx="1.9" transform="translate(51 -69.41) rotate(17.58)"/><rect class="cls-5" x="237.7" y="142.05" width="15.8" height="3.81" rx="1.9" transform="translate(54.95 -67.46) rotate(17.58)"/><rect class="cls-5" x="233.34" y="155.79" width="15.8" height="3.81" rx="1.9" transform="translate(58.9 -65.5) rotate(17.58)"/><rect class="cls-5" x="228.99" y="169.54" width="15.8" height="3.81" rx="1.9" transform="translate(62.84 -63.54) rotate(17.58)"/><rect class="cls-5" x="224.64" y="183.28" width="15.8" height="3.81" rx="1.9" transform="translate(66.79 -61.59) rotate(17.58)"/><rect class="cls-5" x="220.28" y="197.02" width="15.8" height="3.81" rx="1.9" transform="translate(70.74 -59.63) rotate(17.58)"/><rect class="cls-5" x="215.93" y="210.76" width="15.8" height="3.81" rx="1.9" transform="translate(74.69 -57.67) rotate(17.58)"/><rect class="cls-5" x="211.57" y="224.5" width="15.8" height="3.81" rx="1.9" transform="translate(78.63 -55.72) rotate(17.58)"/><rect class="cls-5" x="207.22" y="238.24" width="15.8" height="3.81" rx="1.9" transform="translate(82.58 -53.76) rotate(17.58)"/><rect class="cls-5" x="202.87" y="251.99" width="15.8" height="3.81" rx="1.9" transform="matrix(0.95, 0.3, -0.3, 0.95, 86.53, -51.8)"/><rect class="cls-5" x="198.51" y="265.73" width="15.8" height="3.81" rx="1.9" transform="translate(90.47 -49.85) rotate(17.58)"/><line class="cls-9" x1="260.81" y1="101.42" x2="422.07" y2="152.51"/><line class="cls-9" x1="257.75" y1="111.08" x2="419.01" y2="162.17"/><line class="cls-9" x1="254.69" y1="120.74" x2="415.95" y2="171.84"/><line class="cls-9" x1="251.63" y1="130.41" x2="412.89" y2="181.5"/><line class="cls-9" x1="248.56" y1="140.07" x2="409.83" y2="191.16"/><line class="cls-9" x1="245.5" y1="149.73" x2="406.76" y2="200.83"/><line class="cls-9" x1="242.44" y1="159.4" x2="403.7" y2="210.49"/><line class="cls-9" x1="239.38" y1="169.06" x2="400.64" y2="220.15"/><line class="cls-9" x1="236.32" y1="178.72" x2="397.58" y2="229.82"/><line class="cls-9" x1="233.25" y1="188.39" x2="394.52" y2="239.48"/><line class="cls-9" x1="230.19" y1="198.05" x2="391.46" y2="249.15"/><line class="cls-9" x1="227.13" y1="207.72" x2="388.39" y2="258.81"/><line class="cls-9" x1="224.07" y1="217.38" x2="385.33" y2="268.47"/><line class="cls-9" x1="221.01" y1="227.04" x2="382.27" y2="278.14"/><line class="cls-9" x1="217.95" y1="236.71" x2="379.21" y2="287.8"/><line class="cls-9" x1="214.88" y1="246.37" x2="376.15" y2="297.46"/><line class="cls-9" x1="211.82" y1="256.03" x2="373.09" y2="307.13"/><line class="cls-9" x1="208.76" y1="265.7" x2="370.02" y2="316.79"/></g></svg>