<svg xmlns="http://www.w3.org/2000/svg" viewBox="0 0 402.48 205.42"><defs><style>.cls-1{fill:#8adbff;}.cls-2{fill:#fff;}.cls-3{fill:#3a7bb5;}</style></defs><title>styles</title><g id="Layer_2" data-name="Layer 2"><rect class="cls-1" x="13.48" y="12" width="389" height="146" rx="34.91"/><polygon class="cls-1" points="200.88 203.5 227.72 157 174.03 157 200.88 203.5"/><rect class="cls-2" width="389" height="146" rx="34.91"/><path class="cls-3" d="M88.79,79.93a1.92,1.92,0,0,1,2.76-.29,6.76,6.76,0,0,0,4.06,1.62,4.91,4.91,0,0,0,2.51-.7,1.52,1.52,0,0,0,.66-1.11.58.58,0,0,0-.11-.37c0-.11-.18-.25-.48-.44a8.5,8.5,0,0,0-3-1h0a14.06,14.06,0,0,1-3.2-1,6.1,6.1,0,0,1-2.55-2.14,4.41,4.41,0,0,1-.63-2.32A5.17,5.17,0,0,1,91,68.13a8,8,0,0,1,4.54-1.36,9.43,9.43,0,0,1,5.53,2,2,2,0,0,1,.59,2.72,2,2,0,0,1-2.73.52,6.34,6.34,0,0,0-3.39-1.36,3.75,3.75,0,0,0-2.22.66,1.11,1.11,0,0,0-.59.85.36.36,0,0,0,.08.29.88.88,0,0,0,.4.37,7.53,7.53,0,0,0,2.69.89l0,0h0a13.57,13.57,0,0,1,3.43,1.07A5.85,5.85,0,0,1,102,77a4.79,4.79,0,0,1,.7,2.43,5.32,5.32,0,0,1-2.33,4.28,8.37,8.37,0,0,1-4.79,1.48A10.75,10.75,0,0,1,89,82.66,2,2,0,0,1,88.79,79.93Z"/><path class="cls-3" d="M106.52,76a9.38,9.38,0,0,1,9.37-9.25,9.71,9.71,0,0,1,5.87,2,2,2,0,0,1,.4,2.72,2,2,0,0,1-2.76.37,5.9,5.9,0,0,0-3.51-1.18,5.3,5.3,0,1,0,0,10.59,6,6,0,0,0,3.51-1.18,2,2,0,0,1,2.76.4,2,2,0,0,1-.4,2.73,10.13,10.13,0,0,1-5.87,2A9.35,9.35,0,0,1,106.52,76Z"/><path class="cls-3" d="M140.23,68.72a2,2,0,0,1-1.95,2,3.5,3.5,0,0,0-2.21.7,5.43,5.43,0,0,0-1.7,1.77,11.08,11.08,0,0,0-1.51,3.09v7a2,2,0,0,1-2,2,2,2,0,0,1-2-2V68.72a1.94,1.94,0,0,1,2-1.92,2,2,0,0,1,2,1.92V69a4.88,4.88,0,0,1,.77-.74,8.18,8.18,0,0,1,4.65-1.44A1.91,1.91,0,0,1,140.23,68.72Z"/><path class="cls-3" d="M145.84,82.51A9.19,9.19,0,0,1,143.29,76a9.51,9.51,0,0,1,2.55-6.45,8.62,8.62,0,0,1,6.34-2.8,8.15,8.15,0,0,1,6.16,2.8A9.22,9.22,0,0,1,160.92,76a8.92,8.92,0,0,1-2.58,6.49,8.13,8.13,0,0,1-6.16,2.81A8.6,8.6,0,0,1,145.84,82.51ZM147.31,76a5.94,5.94,0,0,0,1.33,3.91,5,5,0,0,0,3.54,1.37,4.85,4.85,0,0,0,3.4-1.37A5.66,5.66,0,0,0,157,76a5.53,5.53,0,0,0-1.43-3.83,5.25,5.25,0,0,0-3.4-1.4,5.37,5.37,0,0,0-3.54,1.4A5.8,5.8,0,0,0,147.31,76Z"/><path class="cls-3" d="M169.48,59.39a2.05,2.05,0,0,1,2.06,2V83.18a2,2,0,0,1-4.09,0V61.42A2,2,0,0,1,169.48,59.39Z"/><path class="cls-3" d="M178.66,59.39a2.06,2.06,0,0,1,2.07,2V83.18a2.05,2.05,0,0,1-4.1,0V61.42A2,2,0,0,1,178.66,59.39Z"/><path class="cls-3" d="M213.33,83.22a2,2,0,0,1-2,2,2,2,0,0,1-2-1.59,9,9,0,0,1-5,1.59,9.22,9.22,0,0,1,0-18.44,8.75,8.75,0,0,1,4.95,1.55V61.38a2,2,0,0,1,4,0V83.22Zm-9-12.43a4.76,4.76,0,0,0-3.46,1.51A5.24,5.24,0,0,0,199.42,76a5.18,5.18,0,0,0,1.48,3.65,4.77,4.77,0,0,0,3.46,1.52,4.71,4.71,0,0,0,3.47-1.52A5.18,5.18,0,0,0,209.31,76a5.24,5.24,0,0,0-1.48-3.72A4.7,4.7,0,0,0,204.36,70.79Z"/><path class="cls-3" d="M222.66,82.51A9.19,9.19,0,0,1,220.11,76a9.51,9.51,0,0,1,2.55-6.45,8.62,8.62,0,0,1,6.34-2.8,8.15,8.15,0,0,1,6.16,2.8A9.22,9.22,0,0,1,237.74,76a8.92,8.92,0,0,1-2.58,6.49A8.13,8.13,0,0,1,229,85.32,8.6,8.6,0,0,1,222.66,82.51ZM224.13,76a5.94,5.94,0,0,0,1.33,3.91A5,5,0,0,0,229,81.3a4.8,4.8,0,0,0,3.39-1.37A5.62,5.62,0,0,0,233.83,76a5.49,5.49,0,0,0-1.44-3.83,5.21,5.21,0,0,0-3.39-1.4,5.37,5.37,0,0,0-3.54,1.4A5.8,5.8,0,0,0,224.13,76Z"/><path class="cls-3" d="M266.25,69.72,260.16,84a1.83,1.83,0,0,1-.14.29,0,0,0,0,1,0,0,1.16,1.16,0,0,1-.18.22.12.12,0,0,1-.08,0,1.16,1.16,0,0,1-.22.18s0,0,0,.07a.89.89,0,0,1-.33.19s0,0,0,0a1,1,0,0,0-.3.07h-.07a1.11,1.11,0,0,1-.37,0,1,1,0,0,1-.34,0H258a.5.5,0,0,0-.26-.07l0,0h0a.91.91,0,0,1-.33-.22v0a.56.56,0,0,1-.22-.18s-.08,0-.08,0a1.16,1.16,0,0,1-.18-.22,0,0,0,0,1,0,0c-.07-.11-.11-.22-.15-.29l-2.69-6.38L251.31,84a3,3,0,0,1-.18.29v0l-.22.22a0,0,0,0,1,0,0c-.07.07-.15.14-.22.22a1.43,1.43,0,0,1-.33.22h-.08s0,0,0,0a.34.34,0,0,0-.22.07h-.08a1.3,1.3,0,0,1-.37,0,1.08,1.08,0,0,1-.37,0h-.11a.44.44,0,0,0-.22-.07s0,0-.07,0a.67.67,0,0,1-.33-.22s0,0,0,0a1.23,1.23,0,0,0-.22-.18l-.07,0c0-.07-.12-.15-.15-.22s0,0,0,0a1.83,1.83,0,0,0-.18-.29l-6.05-14.31a1.9,1.9,0,0,1,1.07-2.55,1.84,1.84,0,0,1,2.43,1.11l4.35,9.92L252.12,72a2,2,0,0,1,1.81-1.18A1.9,1.9,0,0,1,255.74,72l2.62,6.16,4.35-9.92a1.85,1.85,0,0,1,2.47-1.11A1.94,1.94,0,0,1,266.25,69.72Z"/><path class="cls-3" d="M289.67,74.44v8.81a1.94,1.94,0,0,1-1.92,2,2,2,0,0,1-2-2V74.44A3.78,3.78,0,0,0,282,70.71a3.68,3.68,0,0,0-3.69,3.73v8.81a.77.77,0,0,1-.07.37,2,2,0,0,1-2,1.59,2,2,0,0,1-1.95-2V68.72a1.94,1.94,0,0,1,1.95-2,2,2,0,0,1,1.81,1.14A7.37,7.37,0,0,1,282,66.77,7.72,7.72,0,0,1,289.67,74.44Z"/><path class="cls-3" d="M296.89,76.32V61.42a2.05,2.05,0,0,1,2-2,2,2,0,0,1,2,2v14.9a2,2,0,0,1-2,2A2,2,0,0,1,296.89,76.32Zm2,8.89a2,2,0,0,1-2-2v-.74a2.05,2.05,0,0,1,2-2,2,2,0,0,1,2,2v.74A2,2,0,0,1,298.92,85.21Z"/><polygon class="cls-2" points="194.5 192.5 221.35 146 167.65 146 194.5 192.5"/></g></svg>