<svg xmlns="http://www.w3.org/2000/svg" viewBox="0 0 360 360"><defs><style>.cls-1{fill:#b3ebff;}.cls-2{fill:#8adbff;}.cls-3{fill:#53596d;}.cls-17,.cls-20,.cls-26,.cls-27,.cls-30,.cls-31,.cls-4,.cls-5{fill:none;}.cls-4{stroke:#53596d;}.cls-17,.cls-20,.cls-26,.cls-27,.cls-30,.cls-31,.cls-4,.cls-5,.cls-7,.cls-8{stroke-miterlimit:10;}.cls-4,.cls-5{stroke-width:20px;}.cls-5{stroke:#4f5159;}.cls-6{fill:#5e6477;}.cls-7{fill:#877c6f;}.cls-7,.cls-8{stroke:#474b59;stroke-width:4px;}.cls-33,.cls-8{fill:#6f7989;}.cls-9{fill:#707c8c;}.cls-10{fill:#7c8ba3;}.cls-11{fill:#8992a5;}.cls-12{fill:#a45071;}.cls-13{fill:#d8cad3;}.cls-14{fill:#95a3af;}.cls-15{fill:#acacaf;}.cls-16{fill:#80e8b9;}.cls-17{stroke:#2e3d35;stroke-width:6px;}.cls-17,.cls-26,.cls-27,.cls-30,.cls-31{stroke-linecap:round;}.cls-18{fill:#9bf9ce;}.cls-19{fill:#1f1f2b;}.cls-20{stroke:#525266;}.cls-20,.cls-26,.cls-27,.cls-30,.cls-31{stroke-width:2px;}.cls-21{fill:#c46fd8;}.cls-22{fill:#b4c3d1;}.cls-23{fill:#2c2c3a;}.cls-24{fill:#525266;}.cls-25{fill:#959fb5;}.cls-26,.cls-27{stroke:#b9bcc1;}.cls-27{stroke-dasharray:2.14 5.71;}.cls-28{fill:#d3d3d3;}.cls-29{fill:#9ba5bc;}.cls-30,.cls-31{stroke:#cecece;}.cls-31{stroke-dasharray:3.01 8.03;}.cls-32{fill:#eaeaea;}.cls-34{fill:#ba9475;}</style></defs><title>DES157_Studio2</title><g id="Layer_1" data-name="Layer 1"><ellipse class="cls-1" cx="217.48" cy="325.79" rx="120.71" ry="27.96"/><ellipse class="cls-2" cx="177.69" cy="322.95" rx="121.5" ry="27.96"/><path class="cls-3" d="M187.63,36.73h-17a4,4,0,0,1-3.8-4.07V16.11a4,4,0,0,1,3.8-4.07h9.12c2.09,0,4.89,2,4.89,2,3.5,4.28,6.26,11.72,6.84,18.64A4,4,0,0,1,187.63,36.73Z"/><path class="cls-4" d="M211.77,87.55s6.33-17.43,35.76-26.4c66-15.06,42.89,206.7,41.07,221.45s-37.48,31.9-62.9,35.15"/><path class="cls-5" d="M195.4,84.55s1.29-17.12-28.14-26.09C98.2,48.83,116.75,264.85,118.57,279.6s37.48,31.9,62.9,35.15"/><path class="cls-6" d="M132.35,61h77.74a65.66,65.66,0,0,1,65.66,65.66V293.37a35,35,0,0,1-35,35H101.69a35,35,0,0,1-35-35V126.7A65.66,65.66,0,0,1,132.35,61Z"/><path class="cls-7" d="M131.69,75.11h72.39a62.23,62.23,0,0,1,62.23,62.23v152a39,39,0,0,1-39,39H108.5a39,39,0,0,1-39-39v-152A62.23,62.23,0,0,1,131.69,75.11Z"/><path class="cls-8" d="M266.27,314.75,69.45,302.59V154.23A13.69,13.69,0,0,1,83.1,140.58H252.66a13.69,13.69,0,0,1,13.65,13.65Z"/><path class="cls-9" d="M102.36,75.91l-.28-.53a3.52,3.52,0,0,1,2-4.92,107.29,107.29,0,0,1,23.6-6.12C125.63,56.6,123.16,41,132.07,29,139.44,19.05,152.7,14,171.48,14h.33c18.76,0,31.81,5,38.8,14.8C219,40.67,215.41,58,213,65.76A47.08,47.08,0,0,1,236.85,70c1.6.76,1.75,1.94,1.37,4.11a21,21,0,0,1-1.13,3.17,1.77,1.77,0,0,1-2.25.68,86,86,0,0,0-27.17-6.92l-.52,0a3.56,3.56,0,0,1-3.21-4.91l.2-.45c.08-.19,8.56-19.89-.46-32.53-5.35-7.5-16.08-11.3-31.88-11.3h-.3c-15.9,0-26.86,3.9-32.58,11.58-9.59,12.86-2,32.75-1.94,33l.76,1.95a2.35,2.35,0,0,1-2.15,3.14l-2.2.15c-10.88.76-21.33,2.58-26.38,4.5C105.14,76.83,103.24,77.62,102.36,75.91Z"/><path class="cls-10" d="M66.69,257.08H275.75a0,0,0,0,1,0,0V297a34.95,34.95,0,0,1-34.95,34.95H101.63A34.95,34.95,0,0,1,66.69,297V257.08A0,0,0,0,1,66.69,257.08Z"/><rect class="cls-11" x="66.69" y="254.68" width="209.07" height="4.8"/><rect class="cls-12" x="81.81" y="79.2" width="131.28" height="167.8" rx="12" transform="translate(-26.69 28.87) rotate(-10.26)"/><path class="cls-13" d="M83.82,70.54h98.37a27.29,27.29,0,0,1,27.29,27.29V232.89a12.63,12.63,0,0,1-12.63,12.63H97.52a26.33,26.33,0,0,1-26.33-26.33v-136A12.63,12.63,0,0,1,83.82,70.54Z" transform="translate(-25.9 27.52) rotate(-10.26)"/><rect class="cls-12" x="70.6" y="71.22" width="131.28" height="167.8" rx="12" transform="translate(-25.45 26.74) rotate(-10.26)"/><rect class="cls-14" x="51.27" y="93.79" width="12.26" height="2.96" rx="1.48" transform="translate(-16.05 11.75) rotate(-10.26)"/><rect class="cls-14" x="53.26" y="104.79" width="12.26" height="2.96" rx="1.48" transform="translate(-17.98 12.28) rotate(-10.26)"/><rect class="cls-14" x="55.25" y="115.8" width="12.26" height="2.96" rx="1.48" transform="translate(-19.91 12.81) rotate(-10.26)"/><rect class="cls-14" x="57.24" y="126.81" width="12.26" height="2.96" rx="1.48" transform="translate(-21.83 13.34) rotate(-10.26)"/><rect class="cls-14" x="59.24" y="137.82" width="12.26" height="2.96" rx="1.48" transform="translate(-23.76 13.87) rotate(-10.26)"/><rect class="cls-14" x="61.23" y="148.82" width="12.26" height="2.96" rx="1.48" transform="translate(-25.69 14.4) rotate(-10.26)"/><rect class="cls-14" x="63.22" y="159.83" width="12.26" height="2.96" rx="1.48" transform="translate(-27.62 14.93) rotate(-10.26)"/><rect class="cls-14" x="65.21" y="170.84" width="12.26" height="2.96" rx="1.48" transform="translate(-29.55 15.46) rotate(-10.26)"/><rect class="cls-14" x="67.21" y="181.85" width="12.26" height="2.96" rx="1.48" transform="translate(-31.48 15.99) rotate(-10.26)"/><rect class="cls-14" x="69.2" y="192.85" width="12.26" height="2.96" rx="1.48" transform="translate(-33.41 16.52) rotate(-10.26)"/><rect class="cls-14" x="71.19" y="203.86" width="12.26" height="2.96" rx="1.48" transform="translate(-35.33 17.05) rotate(-10.26)"/><rect class="cls-14" x="73.18" y="214.87" width="12.26" height="2.96" rx="1.48" transform="translate(-37.26 17.58) rotate(-10.26)"/><rect class="cls-14" x="75.18" y="225.88" width="12.26" height="2.96" rx="1.48" transform="translate(-39.19 18.12) rotate(-10.26)"/><rect class="cls-14" x="77.17" y="236.89" width="12.26" height="2.96" rx="1.48" transform="translate(-41.12 18.65) rotate(-10.26)"/><rect class="cls-15" x="150.4" y="83.67" width="8.09" height="16.72" rx="4.04" transform="translate(91.92 260.6) rotate(-100.44)"/><path class="cls-16" d="M172.88,124.85,131.62,236.49c-5.51,14.9-19.67,24.45-34.57,18.94l-7.51-3.7C79.2,247.49,70.4,235.38,75.1,220.82,87.6,182,114.21,120.15,116.88,106.15c5.39-14.59,19.54-20.1,34.13-14.7l7.82,2.89A23.83,23.83,0,0,1,172.88,124.85Z"/><path class="cls-17" d="M100.45,249.65a27.88,27.88,0,0,1-16.38-35.74c15.28-35,28.81-72.46,41-110.94,3.89-10.52,14.85-14,25.35-10.16"/><path class="cls-18" d="M173.25,123.84,129.3,242.76a16.5,16.5,0,0,1-21.14,9.73l-6.6-2.43A27.84,27.84,0,0,1,85.15,214.4c15.13-35.83,28.63-72.79,40.87-110.59a20.4,20.4,0,0,1,26.14-12l7.63,2.82A22.83,22.83,0,0,1,173.25,123.84Z"/><path class="cls-19" d="M224.72,45.1c10.4,1.55,3,28.09,2.74,29.61L238.1,74s6.67-19.91-2.35-29.63"/><path class="cls-20" d="M239,68.73s5.79-28-9.25-24.49"/><rect class="cls-21" x="198.94" y="78.56" width="40.97" height="44.72" rx="6.3" transform="translate(15.66 -28.74) rotate(7.77)"/><rect class="cls-21" x="172.74" y="102.58" width="69.22" height="173.63" rx="14.18" transform="translate(27.51 -26.3) rotate(7.77)"/><path class="cls-21" d="M192.59,101s6.79-1.4,7.59-10.49L203.9,93l-1.78,13L193,104.81Z"/><path class="cls-21" d="M245.23,108.15S239.07,105,240.74,96l-4.27,1.44-1.78,13,9.17,1.26Z"/><rect class="cls-22" x="200.27" y="86.8" width="40.97" height="8.71" transform="translate(14.35 -29.01) rotate(7.77)"/><path class="cls-23" d="M204.55,64.48H241a3.69,3.69,0,0,1,3.69,3.69V86.06a2.12,2.12,0,0,1-2.12,2.12H203a2.12,2.12,0,0,1-2.12-2.12V68.16a3.69,3.69,0,0,1,3.69-3.69Z" transform="translate(12.37 -29.42) rotate(7.77)"/><path class="cls-24" d="M238,46.17c-15-6.32-17.58,10.39-18.56,20.44-.33,3.35.82,11.34-2.14,11.67l-9.49-4.52s-2-32.48,18.12-32.47C230.8,41.43,236.93,43.6,238,46.17Z"/><circle class="cls-22" cx="213.04" cy="75.25" r="5.4"/><path class="cls-11" d="M222,330.8H101.69c-19.25,0-35-15.35-35-34.12V154.84c0-31.19,29.57-28.4,61.58-28.4l72.61,2.09c32,0,56.11-4.88,56.11,26.31V296.68C257,315.45,241.24,330.8,222,330.8Z"/><path class="cls-25" d="M71.16,229.42H253a4,4,0,0,1,4,4V297A34.95,34.95,0,0,1,222,331.95H102.16A34.95,34.95,0,0,1,67.21,297V233.37A4,4,0,0,1,71.16,229.42Z"/><line class="cls-26" x1="257.99" y1="259.61" x2="259.49" y2="259.61"/><line class="cls-27" x1="265.2" y1="259.61" x2="270.19" y2="259.61"/><line class="cls-26" x1="273.05" y1="259.61" x2="274.55" y2="259.61"/><rect class="cls-10" x="66.69" y="223.34" width="190.3" height="25.08"/><rect class="cls-28" x="82.19" y="237.33" width="10.73" height="22.19" rx="4.43"/><rect class="cls-29" x="66.69" y="220.94" width="190.3" height="22.06"/><line class="cls-30" x1="67.94" y1="220.94" x2="69.44" y2="220.94"/><line class="cls-31" x1="77.46" y1="220.94" x2="250.06" y2="220.94"/><line class="cls-30" x1="254.08" y1="220.94" x2="255.58" y2="220.94"/><circle class="cls-32" cx="87.55" cy="254.88" r="2.21"/><rect class="cls-15" x="56.42" y="161.34" width="10.42" height="21.54" rx="5.21" transform="translate(20.15 350.15) rotate(-147.18)"/><circle class="cls-32" cx="65.03" cy="166.84" r="2.14"/><path class="cls-33" d="M177,38l-16.89-.66c-2.15,0-4.93-1.45-4.93-3.69-.59-5.08.37-10.82,3-17.51a4,4,0,0,1,3.9-4.07h17.5c2.15,0,5.4.92,5.4,3.16-.94,6.51-3.41,4.43-5,18.33C180,35.77,179.14,38,177,38Z"/><ellipse class="cls-15" cx="167.88" cy="21.84" rx="4.71" ry="4.43"/><path class="cls-10" d="M240.24,131.84c-18.32-3.41-57.59,12-72.36,16.1s-42.72-15.28-61-20.49a85.69,85.69,0,0,0-16.35,1.79C81.59,134.3,72.14,145.39,66.9,159c-.13,1.72-.21,3.5-.21,5.41v35.38s7-35.47,25.62-33.35,34.21,18.71,69.53,23c27.9,3.35,76.63-24.44,95.15-13.51V164.38C257,143.63,250.68,135.17,240.24,131.84Z"/><path class="cls-34" d="M147.19,140.58h29.3a3.18,3.18,0,0,1,3.18,3.18v18.07a14,14,0,0,1-14,14h-7.57a14,14,0,0,1-14-14V143.76A3.18,3.18,0,0,1,147.19,140.58Z"/><path class="cls-8" d="M264.07,150s8.2-27.61-16.63-37.87c-14.43-6.91-63.12,8.47-79.56,12s-48.83-13.4-66.38-16.61c-19.9-3.63-52.34,25.88-35.65,54.83,0,0,7.88-25.65,26.46-24s34.21,14.39,69.53,17.65c34,3.15,99-29.33,102.44,0"/><path class="cls-33" d="M66.69,170.67s7-31.72,25.62-30.09,34.21,14.38,69.53,17.65c28.14,2.6,77.47-19.17,95.62-10.17,1.75,13.79,6.23,5.1,6.82,10.17,0,0,6.88-35.06-18-43.82-14.43-6.91-62,8.48-78.43,12s-49.3-11.45-66.38-16.61C83,104.19,50.67,138,66.69,170.67Z"/><path class="cls-33" d="M257,160.89s.45-12.06-9.93-15,11.45-6.83,11.45-6.83Z"/><path class="cls-29" d="M96.73,119.63a2.91,2.91,0,0,1,3.76-.83c4.61,2.51,15.71,9.44,26.64,10.57l2.35.24a2.67,2.67,0,0,1,2.42,3.31l-.61,2.15c-.08.27-7.68,28.22,5.28,44.22,6,7.37,15.77,11.19,28.94,11.35h.15c13.18.18,23-3.36,29.17-10.53,13.47-15.62,6.38-42.37,6.31-42.66-1.51-3.8-1.93-6.7,1.88-7.35,11-.82,15-4.74,23.68-9,1.32-.65,6.29,1.24,7.07,2.43.2.35,3.28,4.16,2.73,5.1-1.13,2.86-17,8.12-30.3,8.67,3.22,10,9,33.71-3.8,48.54-8.16,9.48-20.56,14.17-36.87,13.94h-.33c-16.28-.23-28.53-5.27-36.38-15-12.27-15.19-5.53-39.14-3.67-48.92-15.31,1.13-29.72-7-30.81-10.36Z"/><rect class="cls-15" x="267.49" y="152.58" width="10.42" height="21.54" rx="5.21" transform="translate(-45.08 155.32) rotate(-29.47)"/><circle class="cls-32" cx="275.78" cy="168.81" r="2.14"/></g></svg>