<svg xmlns="http://www.w3.org/2000/svg" viewBox="0 0 360 360"><defs><style>.cls-1{fill:#b3ebff;}.cls-2{fill:#8adbff;}.cls-11,.cls-12,.cls-15,.cls-16,.cls-3,.cls-4{fill:none;}.cls-3{stroke:#53596d;}.cls-11,.cls-12,.cls-15,.cls-16,.cls-3,.cls-4,.cls-6{stroke-miterlimit:10;}.cls-3,.cls-4{stroke-width:20px;}.cls-4{stroke:#4f5159;}.cls-5{fill:#5e6477;}.cls-21,.cls-6{fill:#6f7989;}.cls-6{stroke:#474b59;stroke-width:4px;}.cls-7{fill:#7c8ba3;}.cls-8{fill:#8992a5;}.cls-9{fill:#cea682;}.cls-10{fill:#959fb5;}.cls-11,.cls-12{stroke:#b9bcc1;}.cls-11,.cls-12,.cls-15,.cls-16{stroke-linecap:round;stroke-width:2px;}.cls-12{stroke-dasharray:2.14 5.71;}.cls-13{fill:#d3d3d3;}.cls-14{fill:#9ba5bc;}.cls-15,.cls-16{stroke:#cecece;}.cls-16{stroke-dasharray:3.01 8.03;}.cls-17{fill:#eaeaea;}.cls-18{fill:#acacaf;}.cls-19{fill:#707c8c;}.cls-20{fill:#8995ad;}</style></defs><title>DES157_Studio2</title><g id="Layer_1" data-name="Layer 1"><ellipse class="cls-1" cx="217.48" cy="325.79" rx="120.71" ry="27.96"/><ellipse class="cls-2" cx="177.69" cy="322.95" rx="121.5" ry="27.96"/><path class="cls-3" d="M211.77,87.55s6.33-17.43,35.76-26.4c66-15.06,42.89,206.7,41.07,221.45s-37.48,31.9-62.9,35.15"/><path class="cls-4" d="M195.4,84.55s1.29-17.12-28.14-26.09C98.2,48.83,116.75,264.85,118.57,279.6s37.48,31.9,62.9,35.15"/><path class="cls-5" d="M132.35,61h77.74a65.66,65.66,0,0,1,65.66,65.66V293.37a35,35,0,0,1-35,35H101.69a35,35,0,0,1-35-35V126.7A65.66,65.66,0,0,1,132.35,61Z"/><path class="cls-6" d="M131.69,75.11h72.39a62.23,62.23,0,0,1,62.23,62.23v152a39,39,0,0,1-39,39H108.5a39,39,0,0,1-39-39v-152a62.23,62.23,0,0,1,62.23-62.23Z"/><path class="cls-7" d="M66.69,257.08H275.75a0,0,0,0,1,0,0V297a34.95,34.95,0,0,1-34.95,34.95H101.63A34.95,34.95,0,0,1,66.69,297V257.08A0,0,0,0,1,66.69,257.08Z"/><rect class="cls-8" x="66.69" y="254.68" width="209.07" height="4.8"/><path class="cls-8" d="M124.88,92h73.91a58.2,58.2,0,0,1,58.2,58.2V295.79a35,35,0,0,1-35,35H101.69a35,35,0,0,1-35-35V150.23A58.2,58.2,0,0,1,124.88,92Z"/><path class="cls-9" d="M147.19,140.58h29.3a3.18,3.18,0,0,1,3.18,3.18v18.07a14,14,0,0,1-14,14h-7.57a14,14,0,0,1-14-14V143.76A3.18,3.18,0,0,1,147.19,140.58Z"/><path class="cls-10" d="M71.16,229.42H253a4,4,0,0,1,4,4V297A34.95,34.95,0,0,1,222,331.95H102.16A34.95,34.95,0,0,1,67.21,297V233.37a4,4,0,0,1,4-4Z"/><line class="cls-11" x1="257.99" y1="259.61" x2="259.49" y2="259.61"/><line class="cls-12" x1="265.2" y1="259.61" x2="270.19" y2="259.61"/><line class="cls-11" x1="273.05" y1="259.61" x2="274.55" y2="259.61"/><rect class="cls-7" x="66.69" y="223.34" width="190.3" height="25.08"/><rect class="cls-13" x="82.19" y="237.33" width="10.73" height="22.19" rx="4.43"/><rect class="cls-14" x="66.69" y="220.94" width="190.3" height="22.06"/><line class="cls-15" x1="67.94" y1="220.94" x2="69.44" y2="220.94"/><line class="cls-16" x1="77.46" y1="220.94" x2="250.06" y2="220.94"/><line class="cls-15" x1="254.08" y1="220.94" x2="255.58" y2="220.94"/><circle class="cls-17" cx="87.55" cy="254.88" r="2.21"/><rect class="cls-18" x="264.87" y="107.05" width="10.42" height="21.54" rx="5.21" transform="translate(28.56 286.62) rotate(-58.52)"/><circle class="cls-17" cx="275.42" cy="121.09" r="2.14"/><rect class="cls-18" x="261.1" y="91.34" width="10.42" height="21.54" rx="5.21" transform="matrix(-0.25, -0.97, 0.97, -0.25, 234.27, 385.51)"/><circle class="cls-17" cx="272.37" cy="100.53" r="2.14"/><path class="cls-19" d="M102.36,75.91l-.28-.53a3.52,3.52,0,0,1,2-4.92,107.29,107.29,0,0,1,23.6-6.12C125.63,56.6,123.16,41,132.07,29,139.44,19.05,152.7,14,171.48,14h.33c18.76,0,31.81,5,38.8,14.8C219,40.67,215.41,58,213,65.76A47.08,47.08,0,0,1,236.85,70c1.6.76,1.75,1.94,1.37,4.11a21,21,0,0,1-1.13,3.17,1.77,1.77,0,0,1-2.25.68,86,86,0,0,0-27.17-6.92l-.52,0a3.56,3.56,0,0,1-3.21-4.91l.2-.45c.08-.19,8.56-19.89-.46-32.53-5.35-7.5-16.08-11.3-31.88-11.3h-.3c-15.9,0-26.86,3.9-32.58,11.58-9.59,12.86-2,32.75-1.94,33l.76,1.95a2.35,2.35,0,0,1-2.15,3.14l-2.2.15c-10.88.76-21.33,2.58-26.38,4.5C105.14,76.83,103.24,77.62,102.36,75.91Z"/><path class="cls-20" d="M237.12,97.62a2.92,2.92,0,0,1-3.75.84c-4.61-2.52-15.71-9.45-26.64-10.58l-2.36-.24a2.66,2.66,0,0,1-2.41-3.3l.61-2.16c.07-.27,7.67-28.22-5.28-44.22-6-7.37-15.77-11.18-28.95-11.35h-.14C155,26.42,145.21,30,139,37.14c-13.47,15.62-6.38,42.37-6.31,42.65,1.51,3.81,1.93,6.7-1.88,7.35-11,.82-17.57,1.36-26.27,5.64-1.32.65-3.7,2.14-4.49,1a7.6,7.6,0,0,1,.48-3.85c1.13-2.86,13.78-9.37,27.1-9.91-3.22-10-9-33.71,3.8-48.55,8.16-9.48,20.56-14.16,36.87-13.93h.32c16.29.23,28.54,5.27,36.38,15,12.28,15.19,5.54,39.14,3.68,48.92,15.31-1.13,29.72,7,30.81,10.36Z"/><rect class="cls-21" x="155.19" y="9.82" width="26.4" height="19.6" rx="4.07"/><ellipse class="cls-18" cx="168.39" cy="19.63" rx="4.71" ry="4.43"/></g></svg>