<svg xmlns="http://www.w3.org/2000/svg" viewBox="0 0 187.48 414.45"><defs><style>.cls-1{fill:#b3ebff;}.cls-2{fill:#8adbff;}.cls-3{fill:#1f1f2b;}.cls-4{fill:none;stroke:#525266;stroke-miterlimit:10;stroke-width:2px;}.cls-5{fill:#c46fd8;}.cls-6{fill:#b4c3d1;}.cls-7{fill:#2c2c3a;}.cls-8{fill:#525266;}</style></defs><title>DES157_Studio2</title><g id="Layer_1" data-name="Layer 1"><ellipse class="cls-1" cx="108.91" cy="380.71" rx="63.34" ry="21.98"/><ellipse class="cls-2" cx="100.56" cy="378.2" rx="54.98" ry="19.69"/><path class="cls-3" d="M88.1,86.86c13.46.17,8.65,35.1,8.6,37.08l13.38-2.74s5-26.41-8.12-37.18"/><path class="cls-4" d="M110.3,114.36s2.5-36.5-16-29.46"/><rect class="cls-5" x="64.83" y="129.95" width="52.44" height="57.24" rx="9.5"/><rect class="cls-5" x="46.75" y="161.74" width="88.6" height="222.25" rx="17.38"/><path class="cls-5" d="M57,163.27s8.37-3,7.81-14.61L70,151.24v16.84H58.14Z"/><path class="cls-5" d="M125,163.27s-8.36-3-7.8-14.61l-5.16,2.58v16.84h11.84Z"/><rect class="cls-6" x="64.83" y="140.38" width="52.44" height="11.15"/><path class="cls-7" d="M69.89,111.63h42.32a6.89,6.89,0,0,1,6.89,6.89v18.12a5.33,5.33,0,0,1-5.33,5.33H68.32A5.33,5.33,0,0,1,63,136.64V118.52a6.89,6.89,0,0,1,6.89-6.89Z"/><path class="cls-8" d="M105.11,85.92c-20.13-5.42-20.5,16.22-20,29.13.17,4.31,3,14.25-.69,15.17l-12.82-4.08S63.46,85.28,89,81.82C95.18,81.14,103.33,82.84,105.11,85.92Z"/><circle class="cls-6" cx="78.5" cy="127.12" r="6.91"/></g></svg>