<svg xmlns="http://www.w3.org/2000/svg" viewBox="0 0 498.27 454.29"><defs><style>.cls-1{fill:#b3ebff;}.cls-2{fill:#8adbff;}.cls-3{fill:#425071;}.cls-4{fill:#c5c4d6;}.cls-5{fill:#95a3af;}.cls-6{fill:#a45071;}.cls-7{fill:#d8cad3;}</style></defs><title>DES157_Studio2</title><g id="Layer_1" data-name="Layer 1"><path class="cls-1" d="M279.88,184H432.32a14.86,14.86,0,0,1,14.86,14.86V406.66a12.63,12.63,0,0,1-12.63,12.63H275.3a8,8,0,0,1-8-8V196.67A12.63,12.63,0,0,1,279.88,184Z" transform="translate(207.36 -141.22) rotate(31.13)"/><path class="cls-2" d="M284.64,182.71H427.57a14.86,14.86,0,0,1,14.86,14.86v192a12.63,12.63,0,0,1-12.63,12.63H280.05a8,8,0,0,1-8-8V195.35a12.63,12.63,0,0,1,12.63-12.63Z" transform="translate(202.6 -142.55) rotate(31.13)"/><rect class="cls-3" x="263.52" y="169.91" width="169.16" height="216.22" rx="12" transform="translate(193.83 -139.92) rotate(31.13)"/><path class="cls-4" d="M269.07,154.33H407.36a27.29,27.29,0,0,1,27.29,27.29V367.17A12.63,12.63,0,0,1,422,379.8H282.77a26.33,26.33,0,0,1-26.33-26.33V167a12.63,12.63,0,0,1,12.63-12.63Z" transform="translate(187.8 -140.17) rotate(31.13)"/><rect class="cls-3" x="259.49" y="152.65" width="169.16" height="216.22" rx="12" transform="translate(184.33 -140.31) rotate(31.13)"/><rect class="cls-5" x="312.64" y="135.27" width="15.8" height="3.81" rx="1.9" transform="translate(117.05 -145.95) rotate(31.13)"/><rect class="cls-5" x="305.19" y="147.61" width="15.8" height="3.81" rx="1.9" transform="matrix(0.86, 0.52, -0.52, 0.86, 122.36, -140.32)"/><rect class="cls-5" x="297.74" y="159.95" width="15.8" height="3.81" rx="1.9" transform="translate(127.66 -134.69) rotate(31.13)"/><rect class="cls-5" x="290.29" y="172.29" width="15.8" height="3.81" rx="1.9" transform="matrix(0.86, 0.52, -0.52, 0.86, 132.97, -129.06)"/><rect class="cls-5" x="282.84" y="184.63" width="15.8" height="3.81" rx="1.9" transform="translate(138.28 -123.43) rotate(31.13)"/><rect class="cls-5" x="275.39" y="196.96" width="15.8" height="3.81" rx="1.9" transform="translate(143.58 -117.81) rotate(31.13)"/><rect class="cls-5" x="267.94" y="209.3" width="15.8" height="3.81" rx="1.9" transform="translate(148.89 -112.18) rotate(31.13)"/><rect class="cls-5" x="260.48" y="221.64" width="15.8" height="3.81" rx="1.9" transform="translate(154.19 -106.55) rotate(31.13)"/><rect class="cls-5" x="253.03" y="233.98" width="15.8" height="3.81" rx="1.9" transform="matrix(0.86, 0.52, -0.52, 0.86, 159.5, -100.92)"/><rect class="cls-5" x="245.58" y="246.32" width="15.8" height="3.81" rx="1.9" transform="translate(164.81 -95.29) rotate(31.13)"/><rect class="cls-5" x="238.13" y="258.66" width="15.8" height="3.81" rx="1.9" transform="translate(170.11 -89.66) rotate(31.13)"/><rect class="cls-5" x="230.68" y="271" width="15.8" height="3.81" rx="1.9" transform="translate(175.42 -84.04) rotate(31.13)"/><rect class="cls-5" x="223.23" y="283.34" width="15.8" height="3.81" rx="1.9" transform="translate(180.72 -78.41) rotate(31.13)"/><rect class="cls-5" x="215.78" y="295.68" width="15.8" height="3.81" rx="1.9" transform="translate(186.03 -72.78) rotate(31.13)"/><rect class="cls-6" x="240.16" y="112.36" width="169.16" height="216.22" rx="12" transform="translate(81.77 -87.8) rotate(17.58)"/><path class="cls-7" d="M243.22,97.67H381.51A27.29,27.29,0,0,1,408.8,125V310.52a12.63,12.63,0,0,1-12.63,12.63H256.92a26.33,26.33,0,0,1-26.33-26.33V110.3a12.63,12.63,0,0,1,12.63-12.63Z" transform="translate(78.49 -86.74) rotate(17.58)"/><rect class="cls-6" x="232.2" y="96.52" width="169.16" height="216.22" rx="12" transform="translate(76.61 -86.13) rotate(17.58)"/><rect class="cls-5" x="255.07" y="87.08" width="15.8" height="3.81" rx="1.9" transform="translate(39.16 -75.28) rotate(17.58)"/><rect class="cls-5" x="250.71" y="100.82" width="15.8" height="3.81" rx="1.9" transform="translate(43.11 -73.32) rotate(17.58)"/><rect class="cls-5" x="246.36" y="114.57" width="15.8" height="3.81" rx="1.9" transform="translate(47.06 -71.36) rotate(17.58)"/><rect class="cls-5" x="242" y="128.31" width="15.8" height="3.81" rx="1.9" transform="translate(51.01 -69.41) rotate(17.58)"/><rect class="cls-5" x="237.65" y="142.05" width="15.8" height="3.81" rx="1.9" transform="translate(54.95 -67.45) rotate(17.58)"/><rect class="cls-5" x="233.29" y="155.79" width="15.8" height="3.81" rx="1.9" transform="translate(58.9 -65.49) rotate(17.58)"/><rect class="cls-5" x="228.94" y="169.53" width="15.8" height="3.81" rx="1.9" transform="translate(62.85 -63.53) rotate(17.58)"/><rect class="cls-5" x="224.59" y="183.27" width="15.8" height="3.81" rx="1.9" transform="translate(66.8 -61.58) rotate(17.58)"/><rect class="cls-5" x="220.23" y="197.01" width="15.8" height="3.81" rx="1.9" transform="translate(70.74 -59.62) rotate(17.58)"/><rect class="cls-5" x="215.88" y="210.76" width="15.8" height="3.81" rx="1.9" transform="translate(74.69 -57.66) rotate(17.58)"/><rect class="cls-5" x="211.52" y="224.5" width="15.8" height="3.81" rx="1.9" transform="translate(78.64 -55.7) rotate(17.58)"/><rect class="cls-5" x="207.17" y="238.24" width="15.8" height="3.81" rx="1.9" transform="translate(82.59 -53.75) rotate(17.58)"/><rect class="cls-5" x="202.81" y="251.98" width="15.8" height="3.81" rx="1.9" transform="translate(86.53 -51.79) rotate(17.58)"/><rect class="cls-5" x="198.46" y="265.72" width="15.8" height="3.81" rx="1.9" transform="translate(90.48 -49.83) rotate(17.58)"/></g></svg>