<svg xmlns="http://www.w3.org/2000/svg" viewBox="0 0 360 360"><defs><style>.cls-1{fill:#b3ebff;}.cls-2{fill:#acacaf;}.cls-3{fill:#eaeaea;}.cls-4{fill:#8adbff;}.cls-5{fill:#80e8b9;}.cls-6{fill:none;stroke:#2e3d35;stroke-linecap:round;stroke-miterlimit:10;stroke-width:6px;}.cls-7{fill:#9bf9ce;}</style></defs><title>DES157_Studio2</title><g id="Layer_1" data-name="Layer 1"><path class="cls-1" d="M334.42,220.81l-229.85,65.4c-46.45,8.22-61.21-37.87-47.5-40.58l6.65-4.34c-8.2-27.45,6.91-56.42,33.58-64.38,68.85-17.09,137.49-37.88,206-61.52,19.55-5.83,23.71,12.28,29.72,32.4l-1.23,22C372.5,188.83,356.3,214.28,334.42,220.81Z"/><rect class="cls-2" x="323.36" y="119.26" width="14.13" height="29.21" rx="7.07" transform="translate(8.1 286.2) rotate(-47.35)"/><circle class="cls-3" cx="336.67" cy="139.62" r="2.91"/><path class="cls-4" d="M313.27,211.47l-211,62.76c-26.08,5.84-51.23-15.86-45.16-28.6l2.32-12.1c-8.19-27.45,6-56.15,31.56-63.78,66-16.24,131.81-36.17,197.41-58.95,18.74-5.59,22.94,12.51,28.95,32.63l10.47,24.39C350.17,183.69,334.23,205.21,313.27,211.47Z"/><path class="cls-5" d="M304.12,194.05,104.85,253.56c-26.59,7.94-54.78-1.83-62.72-28.42l-2.72-14.38c-4.92-18.89,2.77-43.89,28-52.62,67.35-23.26,181.69-51,204-61.94,26-7.78,48.58,6.2,56.36,32.24l4.17,14A41.64,41.64,0,0,1,304.12,194.05Z"/><path class="cls-6" d="M53.56,223.82a48.71,48.71,0,0,1,32.73-60.38c65-15.39,131.47-35.8,198-59.14,18.79-5.61,35.21,6,40.8,24.76"/><path class="cls-7" d="M305.94,193.51,93.67,256.9a28.85,28.85,0,0,1-35.79-19.33L54.37,225.8A48.63,48.63,0,0,1,87,165.46c66-16.46,131.75-36.38,197.41-58.95A35.66,35.66,0,0,1,328.6,130.4L332.66,144A39.88,39.88,0,0,1,305.94,193.51Z"/></g></svg>