<svg xmlns="http://www.w3.org/2000/svg" viewBox="0 0 360 360"><defs><style>.cls-1{fill:#acacaf;}.cls-2{fill:#eaeaea;}.cls-3{fill:#b3ebff;}.cls-4{fill:#8adbff;}.cls-5{fill:#80e8b9;}.cls-6{fill:#4c7c64;stroke:#3e4c45;stroke-width:4px;}.cls-6,.cls-7{stroke-linecap:round;stroke-miterlimit:10;}.cls-7{fill:none;stroke:#2e3d35;stroke-width:6px;}.cls-8{fill:#9bf9ce;}.cls-9{fill:#ffdef6;}.cls-10{fill:#ff97c9;}</style></defs><title>DES157_Studio2</title><g id="Layer_1" data-name="Layer 1"><rect class="cls-1" x="48.17" y="171.25" width="14.13" height="29.21" rx="7.07" transform="translate(151.86 17.76) rotate(46.44)"/><circle class="cls-2" cx="49.08" cy="191.71" r="2.91"/><path class="cls-3" d="M170.75,286.38l-5-10.36-13,5.27a38.67,38.67,0,0,0,2,4.64,2.12,2.12,0,0,0,2.06,1.23Z"/><rect class="cls-3" x="290.46" y="206.92" width="6.24" height="26.74" rx="2.88" transform="translate(363.39 -140.05) rotate(64.08)"/><path class="cls-3" d="M297,224.27a2.23,2.23,0,0,1-1.07,3l-59.46,28.52-57.93,27c-4.22,2.06-8.52,2-10.27-1.6h0c-1.75-3.6.86-7,5.08-9.06l57.06-28.84,59.17-29.13a2.22,2.22,0,0,1,3,1Z"/><path class="cls-3" d="M168.13,285.22,165,278.8a2.42,2.42,0,0,1,1.12-3.2l55.54-28.07L227.72,260l-56.4,26.32A2.39,2.39,0,0,1,168.13,285.22Z"/><path class="cls-3" d="M239.55,233.45l.41.85a2.58,2.58,0,0,1,1.09-3.49l48.36-24c1.27-.67,2.22-1.34,2.89-.1l.62,1.14c.66,1.24.11,2.45-1.09,3.49l-11,6.65a1,1,0,0,1-1.5-.17,2.33,2.33,0,0,0-2.81-1.2l-23.61,12.2c1.8,2.34-.45,3.56-7.61,4l-2.65,1.28C241.4,234.83,240.21,234.7,239.55,233.45Z"/><path class="cls-3" d="M334.42,220.81l-229.85,65.4c-46.45,8.22-61.21-37.87-47.5-40.58l6.65-4.34c-8.2-27.45,6.91-56.42,33.58-64.38,68.85-17.09,137.49-37.88,206-61.52,19.55-5.83,23.71,12.28,29.72,32.4l-1.23,22C372.5,188.83,356.3,214.28,334.42,220.81Z"/><path class="cls-4" d="M313.27,211.47l-211,62.76c-26.08,5.84-51.23-15.86-45.16-28.6l2.32-12.1c-8.19-27.45,6-56.15,31.56-63.78,66-16.24,131.81-36.17,197.41-58.95,18.74-5.59,22.94,12.51,28.95,32.63l10.47,24.39C350.17,183.69,334.23,205.21,313.27,211.47Z"/><path class="cls-5" d="M303.91,194.05,104.64,253.56c-26.59,7.94-54.79-1.83-62.73-28.42L39.2,210.76C28.45,160.7,70.93,164.7,93.66,141.18c31.32-34.33,148.49-30.7,177.62-45,26-7.78,48.58,6.2,56.35,32.24l4.17,14A41.63,41.63,0,0,1,303.91,194.05Z"/><path class="cls-6" d="M57.46,186.83s22-52,78.49-67.26c32.42-8.77,127-7.87,151.2-16.68"/><path class="cls-7" d="M53.56,223.82a48.71,48.71,0,0,1,32.73-60.38c65-15.39,131.46-35.79,198-59.13,18.8-5.61,35.21,6,40.8,24.75"/><path class="cls-8" d="M305.72,193.51,93.45,256.9a28.85,28.85,0,0,1-35.78-19.33L54.15,225.8a48.64,48.64,0,0,1,32.59-60.34c66-16.46,131.74-36.38,197.41-58.95a35.65,35.65,0,0,1,44.23,23.89L332.45,144A39.89,39.89,0,0,1,305.72,193.51Z"/><path class="cls-4" d="M153.27,281.6l11.84-.86-5-10.36-8,8.78a.56.56,0,0,0-.09.62l.73,1.51A.55.55,0,0,0,153.27,281.6Z"/><rect class="cls-4" x="284.82" y="201.28" width="6.24" height="26.74" rx="2.88" transform="translate(355.14 -138.15) rotate(64.08)"/><path class="cls-4" d="M291.32,218.63a2.23,2.23,0,0,1-1.06,3l-59.47,28.52-57.93,27.05c-4.22,2.05-8.52,2-10.27-1.61h0c-1.75-3.6.86-7,5.09-9.06l57.06-28.84,59.17-29.13a2.23,2.23,0,0,1,3,1Z"/><path class="cls-4" d="M162.49,279.58l-3.12-6.42a2.39,2.39,0,0,1,1.11-3.19L216,241.89l6.06,12.47-56.39,26.32A2.4,2.4,0,0,1,162.49,279.58Z"/><path class="cls-4" d="M233.91,227.81l.41.85a2.58,2.58,0,0,1,1.09-3.49l48.36-24c1.27-.67,2.22-1.34,2.89-.1l.62,1.14c.67,1.25.11,2.45-1.09,3.49l-11,6.65a1,1,0,0,1-1.5-.17A2.31,2.31,0,0,0,270.9,211l-23.61,12.19c1.8,2.34-.45,3.56-7.61,4L237,228.51C235.77,229.19,234.57,229.06,233.91,227.81Z"/><path class="cls-9" d="M148.41,277.68l11.84-.86-5-10.36-8,8.78a.57.57,0,0,0-.09.62l.73,1.51A.55.55,0,0,0,148.41,277.68Z"/><rect class="cls-10" x="279.96" y="197.36" width="6.24" height="26.74" rx="2.88" transform="translate(348.88 -135.98) rotate(64.08)"/><path class="cls-9" d="M286.46,214.71a2.23,2.23,0,0,1-1.06,3L225.93,246.2,168,273.25c-4.22,2.05-8.52,2-10.27-1.61h0c-1.75-3.6.86-7,5.09-9.06l57.06-28.84,59.17-29.13a2.23,2.23,0,0,1,3,1Z"/><path class="cls-10" d="M157.63,275.66l-3.12-6.42a2.39,2.39,0,0,1,1.11-3.19L211.16,238l6.06,12.46-56.39,26.32A2.4,2.4,0,0,1,157.63,275.66Z"/><path class="cls-10" d="M229.05,223.89l.41.85a2.58,2.58,0,0,1,1.09-3.49l48.36-24c1.27-.67,2.22-1.34,2.89-.1l.62,1.14c.66,1.25.11,2.45-1.09,3.49l-11,6.65a1,1,0,0,1-1.5-.17,2.31,2.31,0,0,0-2.81-1.19L242.43,219.3c1.8,2.34-.45,3.56-7.61,4l-2.65,1.29C230.91,225.27,229.71,225.14,229.05,223.89Z"/><rect class="cls-1" x="49.55" y="169.89" width="11.96" height="24.71" rx="5.98" transform="translate(149.33 16.42) rotate(46.44)"/><circle class="cls-2" cx="50.32" cy="187.2" r="2.46"/></g></svg>