<svg xmlns="http://www.w3.org/2000/svg" viewBox="0 0 402.48 205.42"><defs><style>.cls-1{fill:#8adbff;}.cls-2{fill:#fff;}.cls-3{fill:#3a7bb5;}</style></defs><title>styles</title><g id="Layer_2" data-name="Layer 2"><rect class="cls-1" x="13.48" y="12" width="389" height="146" rx="34.91"/><polygon class="cls-1" points="200.88 203.5 227.72 157 174.03 157 200.88 203.5"/><rect class="cls-2" width="389" height="146" rx="34.91"/><path class="cls-3" d="M54.56,69.72,48.48,84a2,2,0,0,1-.15.29s0,0,0,0a.93.93,0,0,1-.19.22.11.11,0,0,1-.07,0,1.59,1.59,0,0,1-.22.18s0,0,0,.08a1,1,0,0,1-.33.18,0,0,0,0,0,0,0,1,1,0,0,0-.29.07H47a1.05,1.05,0,0,1-.37,0,.93.93,0,0,1-.33,0h-.07A.53.53,0,0,0,46,85.1l0,0h0a.86.86,0,0,1-.34-.22v0c-.11,0-.14-.11-.22-.18s-.07,0-.07,0a.93.93,0,0,1-.19-.22s0,0,0,0a2,2,0,0,1-.15-.29l-2.69-6.38L39.63,84a3.43,3.43,0,0,1-.19.29v0c-.07.07-.14.15-.22.22s0,0,0,0l-.23.22a1.25,1.25,0,0,1-.33.22h-.07a0,0,0,0,0,0,0,.38.38,0,0,0-.22.07h-.07a1.3,1.3,0,0,1-.37,0,1.05,1.05,0,0,1-.37,0h-.11a.47.47,0,0,0-.22-.07s0,0-.08,0a.71.71,0,0,1-.33-.22s0,0,0,0a1.41,1.41,0,0,0-.23-.18l-.07,0c0-.07-.11-.15-.15-.22s0,0,0,0a2.94,2.94,0,0,0-.19-.29L30,69.72a1.92,1.92,0,0,1,1.07-2.55,1.84,1.84,0,0,1,2.44,1.11l4.35,9.92L40.44,72a2,2,0,0,1,1.81-1.18A1.88,1.88,0,0,1,44.05,72l2.62,6.16L51,68.28a1.86,1.86,0,0,1,2.48-1.11A1.94,1.94,0,0,1,54.56,69.72Z"/><path class="cls-3" d="M66.7,83.18a2,2,0,0,1-2.07,2,2.1,2.1,0,0,1-1.95-1.52,2,2,0,0,1-.08-.51V61.42a2.05,2.05,0,0,1,4.1,0v6.42a8.37,8.37,0,0,1,3.94-1.07,8.06,8.06,0,0,1,8,8.07v8.34a2,2,0,1,1-4.05,0V74.84a4,4,0,1,0-7.93,0Z"/><path class="cls-3" d="M102.29,76v7.23a2,2,0,0,1-2,2,2,2,0,0,1-1.92-1.59,8.34,8.34,0,0,1-4.9,1.59,8.56,8.56,0,0,1-6.27-2.7A9.4,9.4,0,0,1,84.73,76a9.3,9.3,0,0,1,2.51-6.49,8.5,8.5,0,0,1,6.27-2.76,8.37,8.37,0,0,1,4.9,1.62,2,2,0,0,1,1.92-1.62,2,2,0,0,1,2,2Zm-3.91,0a5.46,5.46,0,0,0-1.44-3.8,4.59,4.59,0,0,0-3.43-1.51,4.46,4.46,0,0,0-3.43,1.51,5.39,5.39,0,0,0-1.4,3.8,5.5,5.5,0,0,0,1.4,3.8,4.65,4.65,0,0,0,3.43,1.44,4.79,4.79,0,0,0,3.43-1.44A5.57,5.57,0,0,0,98.38,76Z"/><path class="cls-3" d="M117.81,68.79a2.08,2.08,0,0,1-2.06,2h-.93V81.11a2,2,0,0,1,2,2.07,2,2,0,0,1-2,2,4.11,4.11,0,0,1-4.09-4.1V70.82h-1.07a2,2,0,0,1-2-2,2,2,0,0,1,2-2h1.07V61.42a2,2,0,0,1,2.07-2,2,2,0,0,1,2,2v5.35h.93A2,2,0,0,1,117.81,68.79Z"/><path class="cls-3" d="M124.23,67.76a3.14,3.14,0,0,0,2.51-3.32A2.61,2.61,0,0,1,124.63,62v-.29a2.39,2.39,0,0,1,2.51-2.47c1.62,0,2.66,1.25,2.66,3.24v.37A7.31,7.31,0,0,1,128,68.21a5.43,5.43,0,0,1-3.47,1.58,1,1,0,0,1-1.14-1A1.06,1.06,0,0,1,124.23,67.76Z"/><path class="cls-3" d="M131.12,79.93a1.93,1.93,0,0,1,2.77-.29A6.76,6.76,0,0,0,138,81.26a4.93,4.93,0,0,0,2.51-.7,1.52,1.52,0,0,0,.66-1.11.55.55,0,0,0-.11-.36c0-.12-.19-.26-.48-.45a8.58,8.58,0,0,0-2.95-1h0a14.3,14.3,0,0,1-3.21-1,6.14,6.14,0,0,1-2.54-2.14,4.41,4.41,0,0,1-.63-2.32,5.17,5.17,0,0,1,2.18-4.06,8,8,0,0,1,4.53-1.36,9.5,9.5,0,0,1,5.54,2,2,2,0,0,1,.59,2.73,2,2,0,0,1-2.73.52,6.37,6.37,0,0,0-3.4-1.36,3.74,3.74,0,0,0-2.21.66,1.11,1.11,0,0,0-.59.85.36.36,0,0,0,.08.29.88.88,0,0,0,.4.37,7.53,7.53,0,0,0,2.69.89l0,0h0a14,14,0,0,1,3.43,1.07A5.78,5.78,0,0,1,144.36,77a4.72,4.72,0,0,1,.7,2.43,5.31,5.31,0,0,1-2.32,4.28A8.42,8.42,0,0,1,138,85.21a10.75,10.75,0,0,1-6.57-2.55A2,2,0,0,1,131.12,79.93Z"/><path class="cls-3" d="M165.24,62.16a2,2,0,0,1-2,2,2,2,0,0,1-2-2v-.78a2,2,0,0,1,2-2,2,2,0,0,1,2,2Zm0,6.67V83.21a2,2,0,0,1-2,2,2,2,0,0,1-2-2V68.83a2,2,0,0,1,2-2A2,2,0,0,1,165.24,68.83Z"/><path class="cls-3" d="M187,74.44v8.81a1.94,1.94,0,0,1-1.92,2,2,2,0,0,1-1.95-2V74.44a3.79,3.79,0,0,0-3.84-3.73,3.69,3.69,0,0,0-3.69,3.73v8.81a.77.77,0,0,1-.07.37,2,2,0,0,1-2,1.59,2,2,0,0,1-1.95-2V68.72a1.94,1.94,0,0,1,1.95-2,2,2,0,0,1,1.81,1.14,7.37,7.37,0,0,1,3.91-1.14A7.72,7.72,0,0,1,187,74.44Z"/><path class="cls-3" d="M220.67,74.4v8.85a2,2,0,0,1-2,2,2,2,0,0,1-2-2V74.4a3.76,3.76,0,0,0-7.52.11v8.74c0,.08,0,.19,0,.26v.11c0,.07,0,.15-.11.22V84a2.16,2.16,0,0,1-1.85,1.18c-.14,0-.25,0-.36,0a2,2,0,0,1-1.59-1.92V68.76a2,2,0,0,1,1.95-2,1.88,1.88,0,0,1,1.78,1.1,7.77,7.77,0,0,1,9.73,1.44,7.73,7.73,0,0,1,13.46,5.2v8.74a2,2,0,0,1-1.95,2,2,2,0,0,1-2-2V74.51a3.78,3.78,0,0,0-3.73-3.8A3.82,3.82,0,0,0,220.67,74.4Z"/><path class="cls-3" d="M253.67,68.72V82.66a8.7,8.7,0,0,1-12.61,7.89,1.92,1.92,0,0,1-1-2.61,2,2,0,0,1,2.62-.81,5,5,0,0,0,2.14.51,4.89,4.89,0,0,0,4.61-3.35,7.17,7.17,0,0,1-3.51.88,7.75,7.75,0,0,1-7.7-7.75v-8.7a2,2,0,0,1,1.91-2,1.9,1.9,0,0,1,2,2v8.7a3.82,3.82,0,0,0,7.63,0v-8.7a1.89,1.89,0,0,1,1.92-2A2,2,0,0,1,253.67,68.72Z"/><path class="cls-3" d="M272.52,76V61.38a2,2,0,0,1,4,0v6.94a8.7,8.7,0,0,1,4.94-1.55,9.22,9.22,0,0,1,0,18.44,9,9,0,0,1-5-1.59,2,2,0,0,1-1.95,1.59,2,2,0,0,1-2-2Zm4,0A5.19,5.19,0,0,0,278,79.67a4.71,4.71,0,0,0,3.47,1.52A4.8,4.8,0,0,0,285,79.67a5.35,5.35,0,0,0,0-7.37,4.79,4.79,0,0,0-3.47-1.51A4.7,4.7,0,0,0,278,72.3,5.24,5.24,0,0,0,276.54,76Z"/><path class="cls-3" d="M312.46,76v7.23a2,2,0,0,1-3.87.37,8.39,8.39,0,0,1-4.91,1.59,8.58,8.58,0,0,1-6.27-2.7A9.4,9.4,0,0,1,294.9,76a9.3,9.3,0,0,1,2.51-6.49,8.52,8.52,0,0,1,6.27-2.76,8.42,8.42,0,0,1,4.91,1.62,1.95,1.95,0,0,1,3.87.37Zm-3.91,0a5.46,5.46,0,0,0-1.44-3.8,4.57,4.57,0,0,0-3.43-1.51,4.46,4.46,0,0,0-3.43,1.51,5.39,5.39,0,0,0-1.4,3.8,5.5,5.5,0,0,0,1.4,3.8,4.65,4.65,0,0,0,3.43,1.44,4.77,4.77,0,0,0,3.43-1.44A5.57,5.57,0,0,0,308.55,76Z"/><path class="cls-3" d="M337.46,76.1V83a8.87,8.87,0,0,1-8.85,8.85,8.52,8.52,0,0,1-3.87-.92,2,2,0,0,1-.89-2.66,2,2,0,0,1,2.66-.92,4.44,4.44,0,0,0,2.1.52,4.94,4.94,0,0,0,4.83-4,8.52,8.52,0,0,1-11.1-1.33,9.21,9.21,0,0,1-2.58-6.49,9.66,9.66,0,0,1,2.58-6.56,8.74,8.74,0,0,1,6.27-2.73,8.37,8.37,0,0,1,4.94,1.55,2,2,0,0,1,2-1.55,1.94,1.94,0,0,1,1.95,2V76.1Zm-3.94,0a5.73,5.73,0,0,0-1.41-3.76,4.61,4.61,0,0,0-3.5-1.59,4.43,4.43,0,0,0-3.39,1.59,5.4,5.4,0,0,0-1.48,3.76,5.3,5.3,0,0,0,1.48,3.8,4.49,4.49,0,0,0,3.39,1.51,4.67,4.67,0,0,0,3.5-1.51A5.62,5.62,0,0,0,333.52,76.06Z"/><path class="cls-3" d="M352.25,74.66v2.4a1.76,1.76,0,0,1-1.81,1.8,1.81,1.81,0,0,1-1.81-1.8V73.22s0,0,0-.07,0,0,0-.08a1.85,1.85,0,0,1,1.81-1.8,4.14,4.14,0,1,0,0-8.27,4.09,4.09,0,0,0-3.54,2,1.83,1.83,0,0,1-2.51.67,1.79,1.79,0,0,1-.62-2.47,7.75,7.75,0,1,1,8.48,11.43Zm0,8.08v.66a1.77,1.77,0,0,1-1.81,1.81,1.82,1.82,0,0,1-1.81-1.81v-.66a1.84,1.84,0,0,1,1.81-1.81A1.79,1.79,0,0,1,352.25,82.74Z"/><polygon class="cls-2" points="194.5 192.5 221.35 146 167.65 146 194.5 192.5"/></g></svg>