<svg xmlns="http://www.w3.org/2000/svg" viewBox="0 0 75.05 75.05"><defs><style>.cls-1{fill:#f63;stroke:#f63;stroke-miterlimit:10;stroke-width:4px;}.cls-2{fill:#ffdf4c;}.cls-3{fill:#ff7fa2;}.cls-4{fill:#ffb35e;}.cls-5{fill:#ff5dd5;}.cls-6{fill:#d74381;}.cls-7{fill:#ea5daf;}</style></defs><title>studio3</title><g id="Layer_2" data-name="Layer 2"><path class="cls-1" d="M64,22.54V42.82a4,4,0,0,1-.83,2.42L45.06,68.56a3.94,3.94,0,0,1-5,1.06l-27-14.34A3.93,3.93,0,0,1,11,51.81V31.52a4,4,0,0,1,.82-2.41L30,5.78a3.94,3.94,0,0,1,5-1l27,14.33A4,4,0,0,1,64,22.54Z"/><path class="cls-2" d="M60,25.09,44.8,44.56a3.92,3.92,0,0,1-4.94,1.06L16.36,33.14a3.93,3.93,0,0,1-1.26-5.89L30.25,7.78a3.93,3.93,0,0,1,4.94-1.06l23.5,12.49A3.92,3.92,0,0,1,60,25.09Z"/><path class="cls-3" d="M61.17,27.56l-17,22A.63.63,0,0,0,44,50V66.42a.59.59,0,0,0,1.07.36l17-22a.64.64,0,0,0,.13-.37V27.93A.61.61,0,0,0,61.17,27.56Z"/><path class="cls-4" d="M41.37,49.65,14.86,35.42A1.24,1.24,0,0,0,13,36.52v16.3a1.24,1.24,0,0,0,.65,1.1L40.19,68.18A1.25,1.25,0,0,0,42,67.08V50.75A1.26,1.26,0,0,0,41.37,49.65Z"/><ellipse class="cls-5" cx="37.25" cy="25.86" rx="3.83" ry="3.44"/><ellipse class="cls-6" cx="59.49" cy="32.97" rx="4.18" ry="1.7" transform="translate(1.2 68.01) rotate(-60)"/><ellipse class="cls-6" cx="53.71" cy="45.76" rx="4.18" ry="1.7" transform="translate(-12.77 69.4) rotate(-60)"/><ellipse class="cls-6" cx="47.87" cy="59.24" rx="4.18" ry="1.28" transform="translate(-27.37 71.07) rotate(-60)"/><ellipse class="cls-7" cx="18.56" cy="40.59" rx="2.12" ry="4.57" transform="translate(-25.87 36.37) rotate(-60)"/><ellipse class="cls-7" cx="36.49" cy="60.69" rx="2.12" ry="4.57" transform="translate(-34.31 61.94) rotate(-60)"/></g></svg>