<svg xmlns="http://www.w3.org/2000/svg" viewBox="0 0 75.05 75.05"><defs><style>.cls-1{fill:#785dd5;stroke:#785dd5;stroke-linejoin:round;stroke-width:4px;}.cls-2{fill:#7ce5ff;}.cls-3{fill:#658de8;}.cls-4{fill:#25cce8;}.cls-5{fill:#4a8ad3;}.cls-6{fill:#455ec4;}.cls-7{fill:#4a73d3;}</style></defs><title>dice</title><g id="Layer_2" data-name="Layer 2"><path class="cls-1" d="M63.36,22.9V43.19a4,4,0,0,1-.83,2.41L44.39,68.93a4,4,0,0,1-5,1.06l-27-14.34a3.94,3.94,0,0,1-2.09-3.48V31.89a3.92,3.92,0,0,1,.83-2.42L29.32,6.15a3.94,3.94,0,0,1,5-1.06l27,14.34A3.94,3.94,0,0,1,63.36,22.9Z"/><path class="cls-2" d="M59.28,25.46,44.13,44.93A3.93,3.93,0,0,1,39.19,46L15.69,33.5a3.92,3.92,0,0,1-1.26-5.88L29.58,8.15a3.92,3.92,0,0,1,4.94-1.06L58,19.57A3.93,3.93,0,0,1,59.28,25.46Z"/><path class="cls-3" d="M60.5,27.93l-17,22a.58.58,0,0,0-.12.36V66.78a.6.6,0,0,0,1.07.37l17-22.05a.59.59,0,0,0,.13-.37V28.29A.6.6,0,0,0,60.5,27.93Z"/><path class="cls-4" d="M40.7,50,14.19,35.78a1.25,1.25,0,0,0-1.83,1.1V53.19a1.25,1.25,0,0,0,.65,1.1L39.52,68.55a1.25,1.25,0,0,0,1.84-1.1V51.11A1.26,1.26,0,0,0,40.7,50Z"/><ellipse class="cls-5" cx="51.17" cy="23.77" rx="3.83" ry="3.44"/><ellipse class="cls-5" cx="22.43" cy="29.43" rx="3.83" ry="3.44"/><ellipse class="cls-6" cx="53.18" cy="44.98" rx="4.27" ry="1.74" transform="matrix(0.5, -0.87, 0.87, 0.5, -12.36, 68.55)"/><ellipse class="cls-7" cx="17.89" cy="41.63" rx="2.12" ry="4.57" transform="translate(-27.11 36.31) rotate(-60)"/><ellipse class="cls-7" cx="26.58" cy="51.85" rx="2.12" ry="4.57" transform="translate(-31.62 48.94) rotate(-60)"/><ellipse class="cls-7" cx="35.82" cy="61.72" rx="2.12" ry="4.57" transform="translate(-35.55 61.88) rotate(-60)"/></g></svg>