<svg xmlns="http://www.w3.org/2000/svg" viewBox="0 0 75.05 75.05"><defs><style>.cls-1{fill:#785dd5;stroke:#785dd5;stroke-linejoin:round;stroke-width:4px;}.cls-2{fill:#7ce5ff;}.cls-3{fill:#658de8;}.cls-4{fill:#25cce8;}.cls-5{fill:#4a8ad3;}.cls-6{fill:#455ec4;}.cls-7{fill:#4a73d3;}</style></defs><title>dice</title><g id="Layer_2" data-name="Layer 2"><path class="cls-1" d="M63.69,22.89V43.18a3.91,3.91,0,0,1-.83,2.41L44.72,68.91A3.93,3.93,0,0,1,39.77,70l-27-14.33a4,4,0,0,1-2.09-3.48V31.88a3.92,3.92,0,0,1,.83-2.42L29.66,6.14a3.93,3.93,0,0,1,4.95-1.06l27,14.34A3.92,3.92,0,0,1,63.69,22.89Z"/><path class="cls-2" d="M59.62,25.44,44.47,44.92a3.94,3.94,0,0,1-4.95,1L16,33.49a3.92,3.92,0,0,1-1.26-5.88L29.91,8.13a3.94,3.94,0,0,1,4.95-1.05l23.5,12.48A3.93,3.93,0,0,1,59.62,25.44Z"/><path class="cls-3" d="M60.84,27.91l-17,22a.59.59,0,0,0-.13.36V66.77a.61.61,0,0,0,1.08.37l17-22a.61.61,0,0,0,.12-.37V28.28A.6.6,0,0,0,60.84,27.91Z"/><path class="cls-4" d="M41,50,14.53,35.77a1.25,1.25,0,0,0-1.84,1.1V53.18a1.24,1.24,0,0,0,.66,1.1l26.5,14.26a1.25,1.25,0,0,0,1.84-1.1V51.1A1.24,1.24,0,0,0,41,50Z"/><ellipse class="cls-5" cx="34.01" cy="14.62" rx="3.83" ry="3.44"/><ellipse class="cls-5" cx="51.51" cy="23.76" rx="3.83" ry="3.44"/><ellipse class="cls-5" cx="22.77" cy="29.42" rx="3.83" ry="3.44"/><ellipse class="cls-5" cx="40.21" cy="38.43" rx="3.83" ry="3.44"/><ellipse class="cls-6" cx="54.2" cy="45.72" rx="4.27" ry="1.74" transform="translate(-12.49 69.8) rotate(-60)"/><ellipse class="cls-7" cx="35.2" cy="50.41" rx="2.24" ry="4.83" transform="translate(-26.06 55.68) rotate(-60)"/><ellipse class="cls-7" cx="18.87" cy="52.01" rx="1.86" ry="4.5" transform="translate(-35.6 42.34) rotate(-60)"/></g></svg>