<svg xmlns="http://www.w3.org/2000/svg" viewBox="0 0 75.05 75.05"><defs><style>.cls-1{fill:#f63;stroke:#f63;stroke-miterlimit:10;stroke-width:4px;}.cls-2{fill:#ffdf4c;}.cls-3{fill:#ff7fa2;}.cls-4{fill:#ffb35e;}.cls-5{fill:#ff5dd5;}.cls-6{fill:#ea5daf;}.cls-7{fill:#d74381;}</style></defs><title>studio3</title><g id="Layer_2" data-name="Layer 2"><path class="cls-1" d="M64,22.49V42.78a4,4,0,0,1-.83,2.41L45.06,68.52a4,4,0,0,1-5,1.06l-27-14.34A3.94,3.94,0,0,1,11,51.76V31.48a4,4,0,0,1,.82-2.42L30,5.74a3.94,3.94,0,0,1,5-1.06L61.94,19A3.94,3.94,0,0,1,64,22.49Z"/><path class="cls-2" d="M60,25.05,44.8,44.52a3.93,3.93,0,0,1-4.94,1.06L16.36,33.1a3.93,3.93,0,0,1-1.26-5.89L30.25,7.74a3.92,3.92,0,0,1,4.94-1.06l23.5,12.48A3.93,3.93,0,0,1,60,25.05Z"/><path class="cls-3" d="M61.17,27.52l-17,22a.58.58,0,0,0-.12.36V66.37a.6.6,0,0,0,1.07.37l17-22a.59.59,0,0,0,.13-.36V27.88A.6.6,0,0,0,61.17,27.52Z"/><path class="cls-4" d="M41.37,49.6,14.86,35.37A1.25,1.25,0,0,0,13,36.47V52.78a1.25,1.25,0,0,0,.65,1.1L40.19,68.14A1.25,1.25,0,0,0,42,67V50.7A1.26,1.26,0,0,0,41.37,49.6Z"/><ellipse class="cls-5" cx="34.34" cy="14.22" rx="3.83" ry="3.44"/><ellipse class="cls-5" cx="51.84" cy="23.37" rx="3.83" ry="3.44"/><ellipse class="cls-5" cx="37.25" cy="25.82" rx="3.83" ry="3.44"/><ellipse class="cls-5" cx="23.1" cy="29.03" rx="3.83" ry="3.44"/><ellipse class="cls-5" cx="40.55" cy="38.03" rx="3.83" ry="3.44"/><ellipse class="cls-6" cx="26.56" cy="50.76" rx="2.05" ry="4.41" transform="matrix(0.5, -0.87, 0.87, 0.5, -30.68, 48.38)"/><ellipse class="cls-7" cx="48.69" cy="47.09" rx="4.69" ry="1.74" transform="matrix(0.5, -0.87, 0.87, 0.5, -16.44, 65.72)"/><ellipse class="cls-7" cx="54.53" cy="45.32" rx="4.27" ry="1.74" transform="translate(-11.98 69.89) rotate(-60)"/><ellipse class="cls-7" cx="59.53" cy="44.01" rx="3.62" ry="1.16" transform="translate(-8.35 73.56) rotate(-60)"/></g></svg>