<svg xmlns="http://www.w3.org/2000/svg" viewBox="0 0 75.05 75.05"><defs><style>.cls-1{fill:#f63;stroke:#f63;stroke-miterlimit:10;stroke-width:4px;}.cls-2{fill:#ffdf4c;}.cls-3{fill:#ff7fa2;}.cls-4{fill:#ffb35e;}.cls-5{fill:#ff5dd5;}.cls-6{fill:#ea5daf;}.cls-7{fill:#d74381;}</style></defs><title>studio3</title><g id="Layer_2" data-name="Layer 2"><path class="cls-1" d="M64.52,22.49V42.78a3.91,3.91,0,0,1-.83,2.41L45.55,68.52a3.94,3.94,0,0,1-4.95,1.06l-27-14.34a4,4,0,0,1-2.09-3.48V31.48a4,4,0,0,1,.83-2.42L30.49,5.74a3.94,3.94,0,0,1,5-1.06L62.43,19A3.92,3.92,0,0,1,64.52,22.49Z"/><path class="cls-2" d="M60.45,25.05,45.3,44.52a3.94,3.94,0,0,1-4.95,1.06L16.86,33.1a3.93,3.93,0,0,1-1.26-5.89L30.74,7.74a3.93,3.93,0,0,1,4.95-1.06l23.5,12.48A3.93,3.93,0,0,1,60.45,25.05Z"/><path class="cls-3" d="M61.67,27.52l-17,22a.59.59,0,0,0-.13.36V66.37a.61.61,0,0,0,1.08.37l17-22a.58.58,0,0,0,.12-.36V27.88A.59.59,0,0,0,61.67,27.52Z"/><path class="cls-4" d="M41.87,49.6,15.36,35.37a1.25,1.25,0,0,0-1.84,1.1V52.78a1.26,1.26,0,0,0,.66,1.1l26.5,14.26A1.25,1.25,0,0,0,42.52,67V50.7A1.25,1.25,0,0,0,41.87,49.6Z"/><ellipse class="cls-5" cx="52.34" cy="22.52" rx="3.92" ry="3.52"/><ellipse class="cls-5" cx="46.9" cy="30.02" rx="3.92" ry="3.52"/><ellipse class="cls-5" cx="41.46" cy="37.53" rx="3.92" ry="3.52"/><ellipse class="cls-5" cx="35.91" cy="14.11" rx="3.92" ry="3.52"/><ellipse class="cls-5" cx="29.81" cy="21.15" rx="3.92" ry="3.52"/><ellipse class="cls-5" cx="23.71" cy="28.19" rx="3.92" ry="3.52"/><ellipse class="cls-6" cx="36.12" cy="49.6" rx="2.15" ry="4.62" transform="matrix(0.5, -0.87, 0.87, 0.5, -24.9, 56.08)"/><ellipse class="cls-6" cx="27.42" cy="50.7" rx="2.05" ry="4.41" transform="matrix(0.5, -0.87, 0.87, 0.5, -30.2, 49.1)"/><ellipse class="cls-6" cx="18.96" cy="51.38" rx="2.05" ry="4.41" transform="translate(-35.02 42.11) rotate(-60)"/><ellipse class="cls-7" cx="47.94" cy="48.13" rx="4.7" ry="1.74" transform="translate(-17.71 65.58) rotate(-60)"/><ellipse class="cls-7" cx="59.64" cy="43.94" rx="4.7" ry="1.16" transform="translate(-8.24 73.62) rotate(-60)"/></g></svg>