<svg xmlns="http://www.w3.org/2000/svg" xmlns:xlink="http://www.w3.org/1999/xlink" viewBox="0 0 481.65 360"><defs><style>.cls-1{fill:url(#linear-gradient);}.cls-2{fill:url(#linear-gradient-2);}.cls-3{fill:url(#linear-gradient-3);}.cls-4{opacity:0.43;fill:url(#linear-gradient-4);}.cls-5{opacity:0.56;fill:url(#linear-gradient-5);}.cls-12,.cls-6{fill:#ffdf4c;}.cls-6{stroke:#ff774c;}.cls-6,.cls-7,.cls-9{stroke-miterlimit:10;}.cls-10,.cls-11,.cls-6,.cls-7,.cls-9{stroke-width:4px;}.cls-7{fill:#ffcfe1;}.cls-7,.cls-8{stroke:#ff5dd5;}.cls-8{fill:none;}.cls-12,.cls-8{stroke-linecap:round;stroke-width:3px;}.cls-10,.cls-11,.cls-12,.cls-8{stroke-linejoin:round;}.cls-9{fill:#cad0ff;}.cls-11,.cls-12,.cls-9{stroke:#785dd5;}.cls-10,.cls-11{fill:#55ffde;}.cls-10{stroke:#30b5b1;}</style><linearGradient id="linear-gradient" x1="378.97" y1="419.28" x2="102.68" y2="-59.28" gradientUnits="userSpaceOnUse"><stop offset="0" stop-color="#863782"/><stop offset="0.13" stop-color="#823681"/><stop offset="1" stop-color="#1b145b"/></linearGradient><linearGradient id="linear-gradient-2" x1="416.54" y1="60.06" x2="58.3" y2="418.3" gradientUnits="userSpaceOnUse"><stop offset="0" stop-color="#963e8b"/><stop offset="0.02" stop-color="#943e8b"/><stop offset="0.69" stop-color="#563d86"/><stop offset="1" stop-color="#3e3c84"/></linearGradient><linearGradient id="linear-gradient-3" y1="320.73" x2="481.65" y2="320.73" gradientUnits="userSpaceOnUse"><stop offset="0" stop-color="#8f9ba5"/><stop offset="1" stop-color="#524a66"/></linearGradient><linearGradient id="linear-gradient-4" x1="69.99" y1="310.11" x2="164.77" y2="310.11" gradientUnits="userSpaceOnUse"><stop offset="0" stop-color="#6b2f79"/><stop offset="1" stop-color="#1b145b"/></linearGradient><linearGradient id="linear-gradient-5" x1="330.65" y1="310.11" x2="425.44" y2="310.11" xlink:href="#linear-gradient-4"/></defs><title>studio3</title><g id="Layer_1" data-name="Layer 1"><rect class="cls-1" width="481.65" height="360"/><polygon class="cls-2" points="0 276.6 0 111.54 53.29 111.54 53.29 146.96 87.27 146.96 87.27 217.6 151.5 217.6 151.5 73.4 205.43 73.4 205.43 169.3 251.97 169.3 251.97 198.8 303.13 198.8 303.13 114.27 351.86 114.27 351.86 147.97 378.11 147.97 378.11 87.02 425.44 87.02 425.44 184.72 460.85 184.72 460.85 125.16 481.65 125.16 481.65 360 0 360 0 276.6"/><rect class="cls-3" y="281.46" width="481.65" height="78.54"/><ellipse class="cls-4" cx="117.38" cy="310.11" rx="47.39" ry="10.05"/><ellipse class="cls-5" cx="378.05" cy="310.11" rx="47.39" ry="10.05"/><path class="cls-6" d="M408,206.57c0,16.57-13.43,20-30,20s-30-3.43-30-20,13.43-38,30-38S408,190,408,206.57Z"/><path class="cls-6" d="M388.21,245.94c0,5.74-4.65,7.38-10.39,7.38s-10.38-1.64-10.38-7.38,4.65-13.74,10.38-13.74S388.21,240.21,388.21,245.94Z"/><path class="cls-6" d="M373.09,262.06c0-2.61,2.12-3.35,4.73-3.35s4.73.74,4.73,3.35-2.11,6.26-4.73,6.26S373.09,264.68,373.09,262.06Z"/><path class="cls-7" d="M394.48,241.31c-2.13-5.71,2.08-5.6,5.35-4.15,10.78,4.77,36.54,26.75,17.19,27.69C406.36,265.36,397.75,250.08,394.48,241.31Z"/><path class="cls-7" d="M406.39,175.06c-3.22,3.22-4.79-.17-5-3.17-.84-9.88-3.46-29.57,12.93-21.09C426.66,157.2,411.35,170.11,406.39,175.06Z"/><path class="cls-7" d="M349.93,175.06c3.22,3.22,4.79-.17,5.05-3.17.84-9.88,3.45-29.57-12.94-21.09C329.67,157.2,345,170.11,349.93,175.06Z"/><path class="cls-7" d="M361.62,241.31c2.13-5.71-2.09-5.6-5.36-4.15-10.78,4.77-36.53,26.75-17.18,27.69C349.73,265.36,358.34,250.08,361.62,241.31Z"/><polyline class="cls-8" points="364.19 205.57 371.47 209.35 363.09 211.92"/><polyline class="cls-8" points="391.69 205.57 384.41 209.35 392.79 211.92"/></g><g id="Layer_2" data-name="Layer 2"><path class="cls-9" d="M130.83,231.75c-.83,5.68-5.67,6.62-11.35,5.79s-10-3.12-9.21-8.8,6.74-13.91,12.42-13.08S131.66,226.08,130.83,231.75Z"/><path class="cls-9" d="M156.54,193.75c-2.4,16.39-16.18,17.84-32.57,15.44s-29.18-7.74-26.78-24.13,18.07-30.7,34.46-28.3S158.94,177.36,156.54,193.75Z"/><polygon class="cls-10" points="164.38 212.97 179.49 234.66 160.51 239.17 157.61 215.96 164.38 212.97"/><polygon class="cls-10" points="149.62 218.58 143.35 219.36 137.01 233.37 151.5 233.71 149.62 218.58"/><polygon class="cls-10" points="170.91 208.53 176 201.78 205.43 219.31 188.16 231.6 170.91 208.53"/><polygon class="cls-10" points="83.09 200.23 62.4 216.68 79.3 226.44 88.72 205.03 83.09 200.23"/><polygon class="cls-10" points="95.63 209.84 101.41 212.38 103.47 227.62 89.49 223.79 95.63 209.84"/><polygon class="cls-10" points="78.12 194.1 75.17 186.18 41.95 194.54 54.97 211.26 78.12 194.1"/><polygon class="cls-11" points="148.32 156.34 165.91 154.06 158.76 167.86 148.32 156.34"/><polygon class="cls-11" points="115.62 151.55 99.41 144.32 102.31 159.6 115.62 151.55"/><polygon class="cls-11" points="132.2 243.41 116.2 266.19 118.74 244.95 132.2 243.41"/><polygon class="cls-11" points="102.16 233.24 86.58 253.66 110.02 242.82 102.16 233.24"/><path class="cls-12" d="M140.6,191.26a6.17,6.17,0,0,1,.25,2.9c-.4,2.77-2.46,4.76-4.6,4.45s-3.54-2.81-3.13-5.58Z"/><path class="cls-12" d="M113.25,187.26a6.06,6.06,0,0,0-1.07,2.71c-.41,2.77,1,5.27,3.13,5.58s4.2-1.68,4.6-4.45Z"/></g></svg>