<svg xmlns="http://www.w3.org/2000/svg" xmlns:xlink="http://www.w3.org/1999/xlink" viewBox="0 0 481.65 360"><defs><style>.cls-1{fill:url(#linear-gradient);}.cls-2{fill:url(#linear-gradient-2);}.cls-3{fill:url(#linear-gradient-3);}.cls-4{opacity:0.43;fill:url(#linear-gradient-4);}.cls-5{opacity:0.56;fill:url(#linear-gradient-5);}.cls-6{fill:#ffcfe1;}.cls-6,.cls-8{stroke:#ff5dd5;}.cls-6,.cls-7,.cls-9{stroke-miterlimit:10;}.cls-10,.cls-11,.cls-6,.cls-7,.cls-9{stroke-width:4px;}.cls-12,.cls-7{fill:#ffdf4c;}.cls-7{stroke:#ff774c;}.cls-8{fill:none;}.cls-12,.cls-8{stroke-linecap:round;stroke-width:3px;}.cls-10,.cls-11,.cls-12,.cls-8{stroke-linejoin:round;}.cls-9{fill:#cad0ff;}.cls-11,.cls-12,.cls-9{stroke:#785dd5;}.cls-10,.cls-11{fill:#55ffde;}.cls-10{stroke:#30b5b1;}</style><linearGradient id="linear-gradient" x1="378.97" y1="419.28" x2="102.68" y2="-59.28" gradientUnits="userSpaceOnUse"><stop offset="0" stop-color="#863782"/><stop offset="0.13" stop-color="#823681"/><stop offset="1" stop-color="#1b145b"/></linearGradient><linearGradient id="linear-gradient-2" x1="416.54" y1="60.06" x2="58.3" y2="418.3" gradientUnits="userSpaceOnUse"><stop offset="0" stop-color="#963e8b"/><stop offset="0.02" stop-color="#943e8b"/><stop offset="0.69" stop-color="#563d86"/><stop offset="1" stop-color="#3e3c84"/></linearGradient><linearGradient id="linear-gradient-3" y1="320.73" x2="481.65" y2="320.73" gradientUnits="userSpaceOnUse"><stop offset="0" stop-color="#8f9ba5"/><stop offset="1" stop-color="#524a66"/></linearGradient><linearGradient id="linear-gradient-4" x1="69.99" y1="310.11" x2="164.77" y2="310.11" gradientUnits="userSpaceOnUse"><stop offset="0" stop-color="#6b2f79"/><stop offset="1" stop-color="#1b145b"/></linearGradient><linearGradient id="linear-gradient-5" x1="330.65" y1="310.11" x2="425.44" y2="310.11" xlink:href="#linear-gradient-4"/></defs><title>defeat</title><g id="Layer_1" data-name="Layer 1"><rect class="cls-1" width="481.65" height="360"/><polygon class="cls-2" points="0 276.6 0 111.54 53.29 111.54 53.29 146.96 87.27 146.96 87.27 217.6 151.5 217.6 151.5 73.4 205.43 73.4 205.43 169.3 251.97 169.3 251.97 198.8 303.13 198.8 303.13 114.27 351.86 114.27 351.86 147.97 378.11 147.97 378.11 87.02 425.44 87.02 425.44 184.72 460.85 184.72 460.85 125.16 481.65 125.16 481.65 360 0 360 0 276.6"/><rect class="cls-3" y="281.46" width="481.65" height="78.54"/><ellipse class="cls-4" cx="117.38" cy="310.11" rx="47.39" ry="10.05"/><ellipse class="cls-5" cx="378.05" cy="310.11" rx="47.39" ry="10.05"/><path class="cls-6" d="M403.89,290.17c-2.6-3.74,1-4.69,4-4.4,9.87.93,29.71,1.87,18.45,16.49C417.86,313.29,407.88,295.92,403.89,290.17Z"/><path class="cls-6" d="M375.63,297.84c4.45-1,2.43-4.14,0-6-7.88-6-23.07-18.81-24.74-.44C349.67,305.3,368.79,299.35,375.63,297.84Z"/><path class="cls-6" d="M343.15,301.3c5.55-2.52,2.49-5.43-.84-6.72-11-4.28-44.74-7-31.75,7.36C317.72,309.85,334.62,305.17,343.15,301.3Z"/><path class="cls-7" d="M418.51,288.58c-1.95,16.45-15.69,18.27-32.14,16.32S357,298,358.94,281.51s17.81-36.14,34.26-34.19S420.46,272.13,418.51,288.58Z"/><line class="cls-8" x1="395.27" y1="284.09" x2="402.08" y2="292.73"/><line class="cls-8" x1="403" y1="285.01" x2="394.35" y2="291.82"/><line class="cls-8" x1="374.86" y1="281.67" x2="381.67" y2="290.31"/><line class="cls-8" x1="382.59" y1="282.59" x2="373.94" y2="289.4"/><path class="cls-7" d="M360.72,315.31c-5.16-2.5-4.61-7.39-2.11-12.56s6-8.63,11.16-6.14,10.34,10.17,7.85,15.34S365.89,317.81,360.72,315.31Z"/><path class="cls-6" d="M402.13,315.57c-5.19-3.19-1.8-5.69,1.67-6.56,11.43-2.88,45.26-1.41,30.58,11.24C426.3,327.22,410.11,320.47,402.13,315.57Z"/><path class="cls-7" d="M341.13,297.23c1.91-1.79,3.9-.75,5.69,1.16s2.68,4,.77,5.75-6,2.72-7.8.81S339.23,299,341.13,297.23Z"/></g><g id="Layer_2" data-name="Layer 2"><path class="cls-9" d="M130.83,231.75c-.83,5.68-5.67,6.62-11.35,5.79s-10-3.12-9.21-8.8,6.74-13.91,12.42-13.08S131.66,226.08,130.83,231.75Z"/><path class="cls-9" d="M156.54,193.75c-2.4,16.39-16.18,17.84-32.57,15.44s-29.18-7.74-26.78-24.13,18.07-30.7,34.46-28.3S158.94,177.36,156.54,193.75Z"/><polygon class="cls-10" points="164.38 212.97 179.49 234.66 160.51 239.17 157.61 215.96 164.38 212.97"/><polygon class="cls-10" points="149.62 218.58 143.35 219.36 137.01 233.37 151.5 233.71 149.62 218.58"/><polygon class="cls-10" points="170.91 208.53 176 201.78 205.43 219.31 188.16 231.6 170.91 208.53"/><polygon class="cls-10" points="83.09 200.23 62.4 216.68 79.3 226.44 88.72 205.03 83.09 200.23"/><polygon class="cls-10" points="95.63 209.84 101.41 212.38 103.47 227.62 89.49 223.79 95.63 209.84"/><polygon class="cls-10" points="78.12 194.1 75.17 186.18 41.95 194.54 54.97 211.26 78.12 194.1"/><polygon class="cls-11" points="148.32 156.34 165.91 154.06 158.76 167.86 148.32 156.34"/><polygon class="cls-11" points="115.62 151.55 99.41 144.32 102.31 159.6 115.62 151.55"/><polygon class="cls-11" points="132.2 243.41 116.2 266.19 118.74 244.95 132.2 243.41"/><polygon class="cls-11" points="102.16 233.24 86.58 253.66 110.02 242.82 102.16 233.24"/><path class="cls-12" d="M140.6,191.26a6.17,6.17,0,0,1,.25,2.9c-.4,2.77-2.46,4.76-4.6,4.45s-3.54-2.81-3.13-5.58Z"/><path class="cls-12" d="M113.25,187.26a6.06,6.06,0,0,0-1.07,2.71c-.41,2.77,1,5.27,3.13,5.58s4.2-1.68,4.6-4.45Z"/></g></svg>