<svg id="Layer_1" data-name="Layer 1" xmlns="http://www.w3.org/2000/svg" viewBox="0 0 251.89 420.23"><defs><style>.cls-1{fill:#3e566b;}.cls-2{fill:#606060;}.cls-3{fill:#35485e;}.cls-4{fill:none;stroke:#212538;stroke-linecap:round;stroke-miterlimit:10;stroke-width:5px;}.cls-5{fill:#dedfe2;}.cls-6{fill:#919191;}</style></defs><title>DES157_Final_Graphics</title><path class="cls-1" d="M145.69,200.27a17.23,17.23,0,0,1,17,13.89c7.17,37.85,35.22,61.09,43.53,86.75h0c5.52,19.84,3.6,42.77-9,65.61a61.82,61.82,0,0,1-24.79,24.54c-61.6,33.38-123.71-10.37-123.71-68.62a80,80,0,0,1,2.92-21.53h0C60,275.25,88.05,252,95.21,214.16a17.23,17.23,0,0,1,17-13.89Z"/><rect class="cls-2" x="99.19" y="184.52" width="59.51" height="9.66" rx="3.5"/><rect class="cls-2" x="99.19" y="169.03" width="59.51" height="9.66" rx="4.15"/><rect class="cls-2" x="101.8" y="153.53" width="54.29" height="9.66" rx="3.78"/><path class="cls-3" d="M172.47,391.05l-1.32.69L61.09,281.68c11.72-19.08,28.76-39.22,34.12-67.52a17.23,17.23,0,0,1,17-13.89h33.49a17.23,17.23,0,0,1,17,13.89c7.17,37.85,35.22,61.09,43.53,86.75h0c5.52,19.84,3.6,42.77-9,65.61A61.82,61.82,0,0,1,172.47,391.05Z"/><path class="cls-4" d="M139,211.15s-7.07,90.28,9.47,90.3c9,0,16.62-16.6-15.7-19.63a42.94,42.94,0,0,0-7.69,0c-32.32,3-24.72,19.64-15.7,19.63,16.54,0,9.47-90.3,9.47-90.3"/><rect class="cls-5" x="71.5" y="317.53" width="17.01" height="33.64" rx="8.5"/><rect class="cls-5" x="97.11" y="327.89" width="8.86" height="12.91" rx="4.43"/><path class="cls-6" d="M102.74,194.18a3.56,3.56,0,0,1-3.55-3.55v-2.55a3.57,3.57,0,0,1,3.55-3.56H137.5l9.66,9.66Z"/><path class="cls-6" d="M102.74,178.69a3.57,3.57,0,0,1-3.55-3.56v-2.55a3.56,3.56,0,0,1,3.55-3.55H122l9.66,9.66Z"/><path class="cls-6" d="M105.35,163.19a3.57,3.57,0,0,1-3.55-3.56v-2.55a3.56,3.56,0,0,1,3.55-3.55h1.15l9.67,9.66Z"/><line class="cls-4" x1="128.95" y1="20.4" x2="128.95" y2="143.72"/></svg>