<svg id="Layer_1" data-name="Layer 1" xmlns="http://www.w3.org/2000/svg" xmlns:xlink="http://www.w3.org/1999/xlink" viewBox="0 0 270.31 326.02"><defs><style>.cls-1{fill:#77404d;}.cls-2{fill:url(#linear-gradient);}.cls-3{fill:#ce5461;}.cls-4{fill:#bc825b;}.cls-5{fill:none;stroke:#4d4a77;stroke-linecap:round;stroke-miterlimit:10;stroke-width:5px;}.cls-6{fill:#4d4a77;}.cls-7{fill:#99554d;}.cls-8{fill:#883e4d;}.cls-9{fill:#fff;}</style><linearGradient id="linear-gradient" x1="128.99" y1="309.29" x2="128.99" y2="45.02" gradientTransform="matrix(-1, 0, 0, 1, 264.18, 0)" gradientUnits="userSpaceOnUse"><stop offset="0.13" stop-color="#e5bb7a"/><stop offset="0.33" stop-color="#b69572"/><stop offset="0.54" stop-color="#8a726a"/><stop offset="0.73" stop-color="#6b5965"/><stop offset="0.89" stop-color="#584a61"/><stop offset="1" stop-color="#514460"/></linearGradient></defs><title>DES157_Final_Graphics</title><path class="cls-1" d="M25.47,136.15S51,253.94,11.44,274c0,0,30.72,35.56,110.57,10.49"/><path class="cls-1" d="M246.2,136.15s-25.49,117.79,14,137.86c0,0-30.72,35.56-110.58,10.49"/><path class="cls-2" d="M139.7,45C61.08,44.92,25.06,97.09,25.8,180c-10.22.35-18.41,9.31-18.41,20.35,0,11.26,8.52,20.39,19,20.39a17.77,17.77,0,0,0,3.27-.32c9.79,41.79,40.7,69.42,96,87.34a31,31,0,0,0,19.11,0c55.25-17.92,86.15-45.55,95.95-87.34a17.77,17.77,0,0,0,3.27.32c10.51,0,19-9.13,19-20.39,0-11-8.19-20-18.41-20.35.74-82.93-35.28-135.1-113.9-135Z"/><path class="cls-3" d="M134.82,269.65c6.54,0,12.45-.18,17.56,3,1.52.95,3.46-.58,2.51-2-5.58-8.12-14.4-18.14-20.08-10.56h0c-5.68-7.58-14.5,2.44-20.07,10.56-1,1.4,1,2.93,2.5,2,5.11-3.21,11-3,17.56-3Z"/><path class="cls-4" d="M130.79,223.69l-4.65,11.77a4.31,4.31,0,0,0,4,5.9h9.3a4.31,4.31,0,0,0,4-5.9l-4.64-11.77A4.31,4.31,0,0,0,130.79,223.69Z"/><path class="cls-5" d="M205.6,194.06c-5.63-8.39-13.56-13.61-22.34-13.61h.08c-8.78,0-16.71,5.22-22.33,13.61"/><ellipse class="cls-6" cx="182.59" cy="192.22" rx="10.5" ry="12.36"/><path class="cls-5" d="M64,194.06c5.62-8.39,13.55-13.61,22.33-13.61h-.08c8.78,0,16.71,5.22,22.34,13.61"/><ellipse class="cls-6" cx="87.01" cy="192.22" rx="10.5" ry="12.36"/><path class="cls-4" d="M28.23,209.81V192.57A2.58,2.58,0,0,0,25.4,190C18.51,190.7,11,201.54,24,211.83A2.59,2.59,0,0,0,28.23,209.81Z"/><path class="cls-4" d="M242.6,209.81V192.57a2.59,2.59,0,0,1,2.84-2.58c6.89.71,14.36,11.55,1.39,21.84A2.6,2.6,0,0,1,242.6,209.81Z"/><path class="cls-7" d="M28.32,196c9.81-28.77,44.18-69.71,68.23-85.11,18.2,23.91,31.4,70.5,146.53,85C297.6,48,135.5-17.26,78.45,40.19,18.62,53.56,5.4,114.65,28.32,196Z"/><path class="cls-8" d="M96.9,169.52,60,145l41.92,14.41a5.72,5.72,0,0,1,3.27,7.94h0A5.72,5.72,0,0,1,96.9,169.52Z"/><path class="cls-8" d="M167.67,159.36,209.59,145,172.7,169.52a5.7,5.7,0,0,1-8.29-2.22h0A5.71,5.71,0,0,1,167.67,159.36Z"/><circle class="cls-9" cx="77" cy="193.72" r="2.85"/><circle class="cls-9" cx="172.36" cy="193.72" r="2.85"/><path class="cls-7" d="M215.92,192c10.05,27.47,6.9,74-6.43,100.66,24.76-8.25,66.65-115.52,36.82-195.49"/><path class="cls-7" d="M76.67,126.36C32.88,171.15,48,264.54,61.33,291.2,36.58,283-3.93,165,25.9,85"/></svg>