<svg xmlns="http://www.w3.org/2000/svg" viewBox="0 0 317.77 371.45"><defs><style>.cls-1{fill:#b7b7b7;}.cls-2{fill:#9b9b9b;}.cls-3{fill:#303030;}</style></defs><title>DES157_Final_Graphics</title><g id="Layer_2" data-name="Layer 2"><path class="cls-1" d="M160.91,7.47c46.05,0,87.13,23.68,114,61.39,20.33,28.55,32.51,65.15,32.51,105.61,0,93.89-64.94,181.69-146.5,193"/><path class="cls-2" d="M160.91,7.47c-46,0-87.12,23.68-114,61.39C26.59,97.41,14.41,134,14.41,174.47c0,93.89,64.94,181.69,146.5,193"/><path class="cls-3" d="M161.3,276c-29,0-54-15.7-66-38.52a66,66,0,0,0,131.93,0C215.29,260.29,190.25,276,161.3,276Z"/><path class="cls-3" d="M107.3,155.85a27.55,27.55,0,0,1,24.79,16c-.54-14.59-11.43-26.23-24.79-26.23S83,157.21,82.51,171.8A27.55,27.55,0,0,1,107.3,155.85Z"/><path class="cls-3" d="M214.45,155.85a27.57,27.57,0,0,1,24.8,16c-.54-14.59-11.43-26.23-24.8-26.23s-24.25,11.64-24.79,26.23A27.56,27.56,0,0,1,214.45,155.85Z"/><polygon class="cls-1" points="165.01 162.97 126.74 232.29 192.38 232.29 165.01 162.97"/></g></svg>