<svg xmlns="http://www.w3.org/2000/svg" viewBox="0 0 1128.39 743.18"><defs><style>.cls-1{fill:#364954;}.cls-2{fill:#5d6975;}.cls-3{fill:#4e5960;}.cls-4{fill:#131d23;}.cls-5{fill:#6f7984;}.cls-6{fill:#21303a;}.cls-7{fill:#43565e;}.cls-8{fill:#fff;}.cls-9{font-size:111.16px;font-family:Heebo-Bold, Heebo;font-weight:700;}</style></defs><title>scenario</title><g id="Layer_4" data-name="Layer 4"><rect class="cls-1" x="181.16" y="54.81" width="787.38" height="518.51" rx="54.92"/><path class="cls-2" d="M572.4,567.19,930,567c7.66,0,15,2.09,20.35,5.8L1071.67,657c17.58,12.2,4.83,32.71-20.32,32.71H93.45c-25.15,0-37.9-20.51-20.33-32.71L194.5,572.78c5.35-3.71,12.69-5.8,20.35-5.8Z"/><path class="cls-3" d="M156.32,651.43,258,578.6a7.76,7.76,0,0,1,4.45-1.3H882.31a7.71,7.71,0,0,1,4.44,1.3l101.73,72.83c3.69,2.65.93,7-4.44,7H160.76C155.39,658.43,152.63,654.08,156.32,651.43Z"/><polygon class="cls-4" points="852.65 572.98 292.15 572.98 312.15 551.81 832.65 551.81 852.65 572.98"/><rect class="cls-5" x="56.73" y="660.44" width="1031.34" height="41.65" rx="20.82"/><path class="cls-6" d="M446.39,644.24,477.2,622.9a2.32,2.32,0,0,1,1.34-.38H666.26a2.32,2.32,0,0,1,1.34.38l30.81,21.34c1.12.77.28,2-1.35,2H447.73C446.11,646.29,445.27,645,446.39,644.24Z"/><path class="cls-6" d="M427.32,645.94a2,2,0,0,1-1.14.35H386.27c-1.63,0-2.47-1.28-1.35-2l30.81-21.34a2.32,2.32,0,0,1,1.34-.38h39.39c1.66,0,2.42,1.69,1.15,2.57Z"/><path class="cls-6" d="M367.47,645.94a2.08,2.08,0,0,1-1.15.35H326.41c-1.63,0-2.46-1.28-1.35-2l30.81-21.34a2.36,2.36,0,0,1,1.35-.38H396.6c1.66,0,2.42,1.69,1.15,2.57Z"/><path class="cls-6" d="M717.61,645.94a2,2,0,0,0,1.14.35h54.93c1.63,0,2.46-1.28,1.34-2l-30.8-21.34a2.36,2.36,0,0,0-1.35-.38h-54.4c-1.66,0-2.42,1.69-1.15,2.57Z"/><path class="cls-6" d="M793.23,645.94a2,2,0,0,0,1.14.35h39.91c1.63,0,2.47-1.28,1.35-2L804.82,622.9a2.32,2.32,0,0,0-1.34-.38H764.09c-1.66,0-2.42,1.69-1.15,2.57Z"/><path class="cls-6" d="M844,639.5a1.21,1.21,0,0,0,.68.2H868.3c1,0,1.46-.75.8-1.21l-12.62-7.88a1.41,1.41,0,0,0-.79-.22H832.38c-1,0-1.43,1-.68,1.52Z"/><path class="cls-6" d="M915.76,639.5a1.2,1.2,0,0,0,.67.2h23.62c1,0,1.46-.75.79-1.21l-12.61-7.88a1.47,1.47,0,0,0-.8-.22h-23.3c-1,0-1.43,1-.68,1.52Z"/><path class="cls-6" d="M870.74,631.84a1.21,1.21,0,0,0,.68.2H895c1,0,1.46-.76.79-1.21L883.21,623a1.4,1.4,0,0,0-.8-.23h-23.3c-1,0-1.43,1-.68,1.52Z"/><path class="cls-6" d="M888.86,645.19a1.21,1.21,0,0,0,.68.2h23.61c1,0,1.46-.75.8-1.21l-12.62-7.88a1.42,1.42,0,0,0-.79-.23H877.23c-1,0-1.43,1-.67,1.53Z"/><path class="cls-6" d="M309.18,645.94a2.08,2.08,0,0,1-1.15.35H268.12c-1.63,0-2.46-1.28-1.35-2l30.81-21.34a2.36,2.36,0,0,1,1.35-.38h39.38c1.66,0,2.42,1.69,1.15,2.57Z"/><path class="cls-6" d="M248.55,645.94a2,2,0,0,1-1.14.35H207.5c-1.63,0-2.47-1.28-1.35-2L237,622.9a2.35,2.35,0,0,1,1.34-.38h39.39c1.66,0,2.42,1.69,1.15,2.57Z"/><path class="cls-6" d="M357.75,616.38a2,2,0,0,1-1.14.34H323.13c-1.61,0-2.44-1.26-1.33-2l13.68-9.41a2.36,2.36,0,0,1,1.33-.37h33c1.65,0,4,.32,1.14,2.55Z"/><path class="cls-6" d="M404.64,616.38a2,2,0,0,1-1.13.34H370c-1.61,0-2.44-1.26-1.33-2l13.68-9.41a2.39,2.39,0,0,1,1.33-.37h33c1.64,0,4,.32,1.13,2.55Z"/><path class="cls-6" d="M451.54,616.38a2,2,0,0,1-1.14.34H416.91c-1.61,0-2.44-1.26-1.33-2l13.68-9.41a2.4,2.4,0,0,1,1.34-.37h33c1.65,0,4,.32,1.14,2.55Z"/><path class="cls-6" d="M500.41,616.38a2,2,0,0,1-1.14.34H465.79c-1.61,0-2.44-1.26-1.33-2l13.68-9.41a2.36,2.36,0,0,1,1.33-.37h32.12c1,0,1.54,1.06.8,1.67Z"/><path class="cls-6" d="M547.21,616.38a2,2,0,0,1-1.14.34H512.59c-1.61,0-2.44-1.26-1.33-2l13.68-9.41a2.36,2.36,0,0,1,1.33-.37l28.13.1c.69,0,1.1.65.73,1.14Z"/><path class="cls-6" d="M575,604.91h16.42a2.39,2.39,0,0,1,1.33.37l8,9.41c1.11.77.28,2-1.33,2H558.47c-1.61,0-2.44-1.26-1.34-2l8-9.41a2.39,2.39,0,0,1,1.33-.37h9.26"/><path class="cls-6" d="M309.88,616.38a2,2,0,0,1-1.13.34h-62.2c-1.61,0-2.44-1.26-1.33-2l13.68-9.41a2.39,2.39,0,0,1,1.33-.37h61.68c1.64,0,4,.32,1.13,2.55Z"/><path class="cls-6" d="M799,616.38a2,2,0,0,0,1.13.34h33.49c1.61,0,2.44-1.26,1.33-2l-13.68-9.41a2.39,2.39,0,0,0-1.33-.37h-33c-1.64,0-4,.32-1.13,2.55Z"/><path class="cls-6" d="M752.05,616.38a2,2,0,0,0,1.14.34h33.48c1.62,0,2.45-1.26,1.34-2l-13.68-9.41a2.4,2.4,0,0,0-1.34-.37H740c-1.65,0-4,.32-1.14,2.55Z"/><path class="cls-6" d="M705.16,616.38a2,2,0,0,0,1.14.34h33.48c1.61,0,2.44-1.26,1.34-2l-13.68-9.41a2.4,2.4,0,0,0-1.34-.37h-33c-1.65,0-4,.32-1.14,2.55Z"/><path class="cls-6" d="M656.29,616.38a2,2,0,0,0,1.13.34h33.49c1.61,0,2.44-1.26,1.33-2l-13.68-9.41a2.39,2.39,0,0,0-1.33-.37H645.11c-1,0-1.54,1.06-.8,1.67Z"/><path class="cls-6" d="M609.49,616.38a2,2,0,0,0,1.13.34h33.49c1.61,0,2.44-1.26,1.33-2l-13.68-9.41a2.39,2.39,0,0,0-1.33-.37l-28.14.1c-.68,0-1.1.65-.72,1.14Z"/><path class="cls-6" d="M846.81,616.38a2,2,0,0,0,1.14.34h62.19c1.62,0,2.45-1.26,1.34-2l-13.68-9.41a2.4,2.4,0,0,0-1.34-.37H834.79c-1.65,0-4,.32-1.14,2.55Z"/><path class="cls-6" d="M366.75,598.7a2,2,0,0,1-1.14.34H332.13c-1.61,0-2.44-1.27-1.33-2l7.95-5.48a2.39,2.39,0,0,1,1.33-.38h33c1.64,0,4,.32,1.13,2.55Z"/><path class="cls-6" d="M412.75,598.7a2,2,0,0,1-1.13.34H378.13c-1.61,0-2.44-1.27-1.33-2l7.95-5.48a2.4,2.4,0,0,1,1.34-.38h33c1.65,0,4,.32,1.14,2.55Z"/><path class="cls-6" d="M458.75,598.7a2,2,0,0,1-1.13.34H424.13c-1.61,0-2.44-1.27-1.33-2l7.95-5.48a2.4,2.4,0,0,1,1.34-.38h33c1.65,0,4,.32,1.14,2.55Z"/><path class="cls-6" d="M504.76,598.7a2,2,0,0,1-1.14.34H470.14c-1.62,0-2.45-1.27-1.34-2l8-5.48a2.37,2.37,0,0,1,1.33-.38h33c1.65,0,4,.32,1.14,2.55Z"/><path class="cls-6" d="M550.28,598.7a2,2,0,0,1-1.14.34H515.66c-1.61,0-2.44-1.27-1.34-2l8-5.48a2.37,2.37,0,0,1,1.33-.38H552.7c1.65,0,2.63.51,1.14,2.55Z"/><path class="cls-6" d="M591.37,598.7a2,2,0,0,1-1.14.34H559.71c-1.61,0-2.44-1.27-1.33-2l3.23-5.48a2.37,2.37,0,0,1,1.33-.38h28.25c1.65,0,1.85.42,1.13,2.55Z"/><path class="cls-6" d="M319.35,598.7a2,2,0,0,1-1.14.34H267.8c-1.62,0-2.45-1.27-1.34-2l8.17-5.55a2.39,2.39,0,0,1,1.33-.37h49.9c1.65,0,4,.32,1.14,2.55Z"/><path class="cls-6" d="M778.46,598.7a2,2,0,0,0,1.14.34h33.48c1.62,0,2.45-1.27,1.34-2l-8-5.48a2.37,2.37,0,0,0-1.33-.38h-33c-1.65,0-4,.32-1.14,2.55Z"/><path class="cls-6" d="M732.46,598.7a2,2,0,0,0,1.14.34h33.48c1.61,0,2.44-1.27,1.33-2l-7.95-5.48a2.39,2.39,0,0,0-1.33-.38h-33c-1.64,0-4,.32-1.13,2.55Z"/><path class="cls-6" d="M686.46,598.7a2,2,0,0,0,1.14.34h33.48c1.61,0,2.44-1.27,1.33-2l-7.95-5.48a2.4,2.4,0,0,0-1.34-.38h-33c-1.65,0-4,.32-1.14,2.55Z"/><path class="cls-6" d="M640.94,598.7a2,2,0,0,0,1.13.34h33.49c1.61,0,2.44-1.27,1.33-2l-7.95-5.48a2.4,2.4,0,0,0-1.34-.38H638.52c-1.65,0-2.64.51-1.14,2.55Z"/><path class="cls-6" d="M599.85,598.7A2,2,0,0,0,601,599H631.5c1.62,0,2.45-1.27,1.34-2l-3.23-5.48a2.4,2.4,0,0,0-1.34-.38H600c-1.65,0-1.85.42-1.14,2.55Z"/><path class="cls-6" d="M825.69,598.7a2,2,0,0,0,1.14.34h63.25c1.61,0,2.44-1.27,1.33-2l-8.17-5.55a2.39,2.39,0,0,0-1.33-.37H819.18c-1.64,0-4,.32-1.13,2.55Z"/><rect class="cls-6" x="280.89" y="584.01" width="44.32" height="3.31" rx="1.65"/><rect class="cls-6" x="332.51" y="584.01" width="33.1" height="3.31" rx="1.65"/><rect class="cls-6" x="371.8" y="584.01" width="33.1" height="3.31" rx="1.65"/><rect class="cls-6" x="411.09" y="584.01" width="33.1" height="3.31" rx="1.65"/><rect class="cls-6" x="450.39" y="584.01" width="33.1" height="3.31" rx="1.65"/><rect class="cls-6" x="489.68" y="584.01" width="33.1" height="3.31" rx="1.65"/><rect class="cls-6" x="528.97" y="584.01" width="33.1" height="3.31" rx="1.65"/><rect class="cls-6" x="568.27" y="584.01" width="33.1" height="3.31" rx="1.65"/><rect class="cls-6" x="607.56" y="584.01" width="33.1" height="3.31" rx="1.65"/><rect class="cls-6" x="646.85" y="584.01" width="33.1" height="3.31" rx="1.65"/><rect class="cls-6" x="686.15" y="584.01" width="33.1" height="3.31" rx="1.65"/><rect class="cls-6" x="725.44" y="584.01" width="33.1" height="3.31" rx="1.65"/><rect class="cls-6" x="764.73" y="584.01" width="33.1" height="3.31" rx="1.65"/><rect class="cls-6" x="804.03" y="584.01" width="33.1" height="3.31" rx="1.65"/><rect class="cls-6" x="843.32" y="584.01" width="33.1" height="3.31" rx="1.65"/><rect class="cls-3" x="495.37" y="651.11" width="154.17" height="19.7" rx="9.85"/><path class="cls-7" d="M236.08,54.81a54.92,54.92,0,0,0-54.92,54.92V518.4a54.73,54.73,0,0,0,1.55,13L659.25,54.81Z"/><rect class="cls-8" x="207.61" y="81.95" width="734.48" height="456.59" rx="37.26"/></g><g id="Layer_5" data-name="Layer 5"><text class="cls-9" transform="translate(273.35 352.1)">SCENARIOS</text></g></svg>