<?xml version="1.0" encoding="UTF-8"?>
<svg xmlns="http://www.w3.org/2000/svg" xmlns:xlink="http://www.w3.org/1999/xlink" viewBox="0 0 1500 1382.31">
  <defs>
    <style>
      .cls-1, .cls-2, .cls-3, .cls-4, .cls-5, .cls-6, .cls-7, .cls-8, .cls-9 {
        fill: none;
      }

      .cls-2 {
        stroke-width: 12px;
      }

      .cls-2, .cls-3, .cls-4, .cls-5, .cls-6, .cls-10, .cls-9 {
        stroke: #fff;
      }

      .cls-2, .cls-3, .cls-4, .cls-6, .cls-10, .cls-7, .cls-8 {
        stroke-miterlimit: 10;
      }

      .cls-2, .cls-3, .cls-6, .cls-7, .cls-8, .cls-9 {
        stroke-linecap: round;
      }

      .cls-3, .cls-4, .cls-5, .cls-9 {
        stroke-width: 3px;
      }

      .cls-11 {
        fill: url(#linear-gradient);
      }

      .cls-12 {
        clip-path: url(#clippath);
      }

      .cls-13 {
        fill: #f9f900;
      }

      .cls-14 {
        fill: #00c67a;
      }

      .cls-15 {
        fill: #6896e1;
      }

      .cls-16 {
        fill: #ff2488;
      }

      .cls-17 {
        fill: #ffad97;
      }

      .cls-18 {
        fill: #fffee1;
      }

      .cls-19, .cls-10 {
        fill: #fff;
      }

      .cls-20 {
        fill: #fff3b6;
      }

      .cls-21 {
        fill: #ffe7bd;
      }

      .cls-22 {
        fill: #f381fe;
      }

      .cls-23 {
        fill: #edc58d;
      }

      .cls-24 {
        fill: #ffcba4;
      }

      .cls-25 {
        fill: #ffd69f;
      }

      .cls-26 {
        fill: #ff889f;
      }

      .cls-27 {
        fill: #ff8308;
      }

      .cls-28 {
        fill: #ff8864;
      }

      .cls-29 {
        fill: #327aed;
      }

      .cls-30 {
        fill: #b448ed;
      }

      .cls-31 {
        fill: #e05d4f;
      }

      .cls-32 {
        fill: #e0e0e0;
      }

      .cls-33 {
        fill: #c68147;
      }

      .cls-34 {
        fill: #0f0f59;
      }

      .cls-35 {
        fill: #258963;
      }

      .cls-36 {
        fill: #47223e;
      }

      .cls-37 {
        fill: #514333;
      }

      .cls-5, .cls-9 {
        stroke-linejoin: round;
      }

      .cls-6 {
        stroke-width: 7px;
      }

      .cls-38 {
        clip-path: url(#clippath-1);
      }

      .cls-39 {
        clip-path: url(#clippath-2);
      }

      .cls-40 {
        mix-blend-mode: overlay;
      }

      .cls-41 {
        fill: url(#linear-gradient-8);
      }

      .cls-42 {
        fill: url(#linear-gradient-9);
      }

      .cls-43 {
        fill: url(#linear-gradient-3);
      }

      .cls-44 {
        fill: url(#linear-gradient-4);
      }

      .cls-45 {
        fill: url(#linear-gradient-2);
      }

      .cls-46 {
        fill: url(#linear-gradient-6);
      }

      .cls-47 {
        fill: url(#linear-gradient-7);
      }

      .cls-48 {
        fill: url(#linear-gradient-5);
      }

      .cls-49 {
        fill: url(#linear-gradient-11);
        opacity: .8;
      }

      .cls-50 {
        fill: url(#linear-gradient-14);
      }

      .cls-51 {
        fill: url(#linear-gradient-18);
      }

      .cls-52 {
        fill: url(#linear-gradient-22);
      }

      .cls-53 {
        fill: url(#linear-gradient-20);
      }

      .cls-54 {
        fill: url(#linear-gradient-21);
      }

      .cls-55 {
        fill: url(#linear-gradient-23);
      }

      .cls-56 {
        fill: url(#linear-gradient-15);
      }

      .cls-57 {
        fill: url(#linear-gradient-19);
      }

      .cls-58 {
        fill: url(#linear-gradient-16);
      }

      .cls-59 {
        fill: url(#linear-gradient-17);
      }

      .cls-60 {
        fill: url(#linear-gradient-13);
      }

      .cls-61 {
        fill: url(#linear-gradient-12);
      }

      .cls-62 {
        fill: url(#linear-gradient-10);
      }

      .cls-63 {
        fill: url(#linear-gradient-27);
      }

      .cls-64 {
        fill: url(#linear-gradient-24);
      }

      .cls-65 {
        fill: url(#linear-gradient-26);
      }

      .cls-66 {
        fill: url(#linear-gradient-25);
      }

      .cls-67 {
        fill: url(#linear-gradient-28);
      }

      .cls-68 {
        fill: url(#linear-gradient-29);
      }

      .cls-69 {
        fill: url(#linear-gradient-30);
      }

      .cls-7 {
        stroke: #ce175e;
      }

      .cls-7, .cls-8 {
        stroke-width: 5px;
      }

      .cls-70 {
        isolation: isolate;
      }

      .cls-8 {
        stroke: #f29c11;
      }
    </style>
    <clipPath id="clippath">
      <rect class="cls-1" x="1.21" y="-69.96" width="1500" height="1452.24"/>
    </clipPath>
    <linearGradient id="linear-gradient" x1="583.82" y1="1450.47" x2="1736.41" y2="297.88" gradientUnits="userSpaceOnUse">
      <stop offset="0" stop-color="#f880ff"/>
      <stop offset=".09" stop-color="#ee81fc"/>
      <stop offset=".25" stop-color="#d385f7"/>
      <stop offset=".45" stop-color="#a78cee"/>
      <stop offset=".69" stop-color="#6a95e1"/>
      <stop offset=".96" stop-color="#1ea1d2"/>
      <stop offset="1" stop-color="#14a3d0"/>
    </linearGradient>
    <clipPath id="clippath-1">
      <path class="cls-1" d="m1210.17,162.9c-241.49-58.78-292.73,170.54-244.14,225.68,32.3-23.6,72.1-37.54,115.16-37.54,107.94,0,195.43,87.5,195.43,195.43s-87.71,202.25-195.43,195.43c-50.01-3.16-95.71-12.88-153.99-80.29-79.65-92.14-338.35-112.1-353.55,113.21-193.31-25.59-288.02,93.81-284.83,207.04,3.22,114.57,91.3,150.23,184.98,202.94,116.43,65.51,41.8,197.44,41.8,197.44l987.65.03V67.21c-66.95-96.91-286.3-68.36-293.09,95.69Z"/>
    </clipPath>
    <linearGradient id="linear-gradient-2" x1="429.78" y1="1398.15" x2="1713.92" y2="114.01" gradientUnits="userSpaceOnUse">
      <stop offset="0" stop-color="#32398b"/>
      <stop offset="1" stop-color="#7dcfe2"/>
    </linearGradient>
    <linearGradient id="linear-gradient-3" x1="780.69" y1="1134.49" x2="1137.45" y2="1134.49" gradientUnits="userSpaceOnUse">
      <stop offset="0" stop-color="#ff61ff"/>
      <stop offset="1" stop-color="#ffcf4a"/>
    </linearGradient>
    <linearGradient id="linear-gradient-4" x1="1212.81" y1="848.82" x2="1462.92" y2="848.82" gradientUnits="userSpaceOnUse">
      <stop offset="0" stop-color="#6ac0ff"/>
      <stop offset="1" stop-color="#6ff5ff"/>
    </linearGradient>
    <linearGradient id="linear-gradient-5" x1="951.24" y1="597.72" x2="1076.8" y2="723.29" gradientTransform="translate(93.86 -127.44) rotate(7.71)" gradientUnits="userSpaceOnUse">
      <stop offset="0" stop-color="#ffff8d"/>
      <stop offset=".27" stop-color="#ffe769"/>
      <stop offset=".76" stop-color="#ffbf2e"/>
      <stop offset="1" stop-color="#ffb017"/>
    </linearGradient>
    <linearGradient id="linear-gradient-6" x1="1032.4" y1="1113.77" x2="1460.09" y2="1113.77" gradientTransform="translate(-160.27 213.35) rotate(-9.24)" gradientUnits="userSpaceOnUse">
      <stop offset="0" stop-color="#847ecb"/>
      <stop offset=".62" stop-color="#9d9ed4"/>
      <stop offset="1" stop-color="#a9add9"/>
    </linearGradient>
    <linearGradient id="linear-gradient-7" x1="1194.4" y1="960.48" x2="1421.6" y2="1187.68" gradientTransform="translate(-160.27 213.35) rotate(-9.24)" gradientUnits="userSpaceOnUse">
      <stop offset="0" stop-color="#405191"/>
      <stop offset="1" stop-color="#8c67ac"/>
    </linearGradient>
    <linearGradient id="linear-gradient-8" x1="1032.39" y1="1210.91" x2="1454.76" y2="1210.91" gradientTransform="translate(-160.27 213.35) rotate(-9.24)" gradientUnits="userSpaceOnUse">
      <stop offset="0" stop-color="#be9eff"/>
      <stop offset=".23" stop-color="#c4b2ff"/>
      <stop offset=".74" stop-color="#d0d9ff"/>
      <stop offset="1" stop-color="#d5e8ff"/>
    </linearGradient>
    <linearGradient id="linear-gradient-9" x1="1213.3" y1="1133.15" x2="1342.86" y2="1262.71" xlink:href="#linear-gradient-7"/>
    <linearGradient id="linear-gradient-10" x1="1183.45" y1="1230.78" x2="1290.67" y2="1230.78" xlink:href="#linear-gradient-6"/>
    <linearGradient id="linear-gradient-11" x1="1236.18" y1="1177.48" x2="1380.64" y2="927.28" gradientUnits="userSpaceOnUse">
      <stop offset=".03" stop-color="#dfcbff"/>
      <stop offset=".61" stop-color="#ecdbf3"/>
      <stop offset="1" stop-color="#f7eae9"/>
    </linearGradient>
    <linearGradient id="linear-gradient-12" x1="923.33" y1="956.48" x2="1304.88" y2="736.19" gradientUnits="userSpaceOnUse">
      <stop offset="0" stop-color="#002c62"/>
      <stop offset=".18" stop-color="#072d66"/>
      <stop offset=".42" stop-color="#1b3174"/>
      <stop offset=".72" stop-color="#3c378a"/>
      <stop offset="1" stop-color="#623fa4"/>
    </linearGradient>
    <linearGradient id="linear-gradient-13" x1="965.77" y1="905.27" x2="1129.02" y2="905.27" gradientUnits="userSpaceOnUse">
      <stop offset="0" stop-color="#2a3962"/>
      <stop offset=".2" stop-color="#303b69"/>
      <stop offset=".47" stop-color="#42437d"/>
      <stop offset=".81" stop-color="#5f509e"/>
      <stop offset="1" stop-color="#7459b5"/>
    </linearGradient>
    <linearGradient id="linear-gradient-14" x1="1104.55" y1="832.18" x2="1133.24" y2="848.74" gradientUnits="userSpaceOnUse">
      <stop offset="0" stop-color="#cc2a80"/>
      <stop offset="1" stop-color="#ff6958"/>
    </linearGradient>
    <clipPath id="clippath-2">
      <rect class="cls-1" x="89.92" y="-90.36" width="1410.08" height="1472.67"/>
    </clipPath>
    <linearGradient id="linear-gradient-15" x1="1243.63" y1="449.22" x2="1426.32" y2="449.22" gradientTransform="translate(235.35 -314.92) rotate(15.15)" gradientUnits="userSpaceOnUse">
      <stop offset="0" stop-color="#be9eff"/>
      <stop offset=".23" stop-color="#cfb2f4"/>
      <stop offset=".74" stop-color="#f1d9e0"/>
      <stop offset="1" stop-color="#ffe8d9"/>
    </linearGradient>
    <linearGradient id="linear-gradient-16" x1="1145.39" y1="299.21" x2="1210.78" y2="540.77" gradientTransform="translate(235.35 -314.92) rotate(15.15)" gradientUnits="userSpaceOnUse">
      <stop offset="0" stop-color="#f1d6dd"/>
      <stop offset=".33" stop-color="#f1d6dd"/>
      <stop offset=".68" stop-color="#f9ebda"/>
      <stop offset="1" stop-color="#fffad9"/>
    </linearGradient>
    <linearGradient id="linear-gradient-17" x1="1285.09" y1="451.29" x2="1380.22" y2="451.29" gradientUnits="userSpaceOnUse">
      <stop offset="0" stop-color="#cc2a80"/>
      <stop offset="1" stop-color="#ff6958"/>
    </linearGradient>
    <linearGradient id="linear-gradient-18" x1="1280.28" y1="132.78" x2="1500.95" y2="260.18" gradientTransform="translate(3.9 167.47) rotate(-7.63)" gradientUnits="userSpaceOnUse">
      <stop offset=".21" stop-color="#dca06a"/>
      <stop offset=".38" stop-color="#e4b27a"/>
      <stop offset=".79" stop-color="#f7d99f"/>
      <stop offset="1" stop-color="#ffe8ad"/>
    </linearGradient>
    <linearGradient id="linear-gradient-19" x1="1137.67" y1="259.05" x2="1327.12" y2="448.49" gradientTransform="translate(29.15 767.91) rotate(-39.55) scale(1 .88)" gradientUnits="userSpaceOnUse">
      <stop offset="0" stop-color="#ffff8d"/>
      <stop offset=".27" stop-color="#ffe769"/>
      <stop offset=".76" stop-color="#ffbf2e"/>
      <stop offset="1" stop-color="#ffb017"/>
    </linearGradient>
    <linearGradient id="linear-gradient-20" x1="574.11" y1="824.05" x2="813.12" y2="921.48" gradientUnits="userSpaceOnUse">
      <stop offset=".01" stop-color="#3949a4"/>
      <stop offset="1" stop-color="#b23fe5"/>
    </linearGradient>
    <linearGradient id="linear-gradient-21" x1="561.47" y1="1206.83" x2="697.67" y2="1070.63" gradientUnits="userSpaceOnUse">
      <stop offset="0" stop-color="#2e71d3"/>
      <stop offset="1" stop-color="#7fffff"/>
    </linearGradient>
    <linearGradient id="linear-gradient-22" x1="544.7" y1="712.24" x2="720.43" y2="841.37" xlink:href="#linear-gradient-20"/>
    <linearGradient id="linear-gradient-23" x1="468.66" y1="857.94" x2="574.95" y2="964.23" gradientUnits="userSpaceOnUse">
      <stop offset="0" stop-color="#fcfae0"/>
      <stop offset=".22" stop-color="#f5ebdc"/>
      <stop offset=".64" stop-color="#e4c4d3"/>
      <stop offset="1" stop-color="#d49ecb"/>
    </linearGradient>
    <linearGradient id="linear-gradient-24" x1="607.18" y1="1024.13" x2="607.18" y2="871.79" gradientUnits="userSpaceOnUse">
      <stop offset="0" stop-color="#fcfae0"/>
      <stop offset=".22" stop-color="#f5ebdc"/>
      <stop offset=".64" stop-color="#e4c4d3"/>
      <stop offset="1" stop-color="#d49ecb"/>
    </linearGradient>
    <linearGradient id="linear-gradient-25" x1="624.52" y1="910.87" x2="765.31" y2="1051.66" gradientUnits="userSpaceOnUse">
      <stop offset="0" stop-color="#d49ecb"/>
      <stop offset=".36" stop-color="#e4c4d3"/>
      <stop offset=".78" stop-color="#f5ebdc"/>
      <stop offset="1" stop-color="#fcfae0"/>
    </linearGradient>
    <linearGradient id="linear-gradient-26" x1="486.87" y1="1113.55" x2="741.97" y2="1049.76" xlink:href="#linear-gradient-20"/>
    <linearGradient id="linear-gradient-27" x1="708.74" y1="1256.89" x2="805" y2="1256.89" gradientUnits="userSpaceOnUse">
      <stop offset="0" stop-color="#fcfae0"/>
      <stop offset="1" stop-color="#f9f4df"/>
    </linearGradient>
    <linearGradient id="linear-gradient-28" x1="783.23" y1="1299.88" x2="783.23" y2="1233.15" xlink:href="#linear-gradient-20"/>
    <linearGradient id="linear-gradient-29" x1="457.95" y1="1331.18" x2="552.86" y2="1331.18" xlink:href="#linear-gradient-27"/>
    <linearGradient id="linear-gradient-30" x1="457.95" y1="1363.07" x2="528.31" y2="1363.07" xlink:href="#linear-gradient-20"/>
  </defs>
  <g class="cls-70">
    <g id="Layer_7" data-name="Layer 7">
      <circle class="cls-15" cx="860.19" cy="467.97" r="39.69"/>
      <g class="cls-12">
        <path class="cls-11" d="m1210.17,162.9c-241.49-58.78-292.73,170.54-244.14,225.68,32.3-23.6,72.1-37.54,115.16-37.54,107.94,0,195.43,87.5,195.43,195.43s-87.71,202.25-195.43,195.43c-50.01-3.16-95.71-12.88-153.99-80.29-79.65-92.14-338.35-112.1-353.55,113.21-193.31-25.59-288.02,93.81-284.83,207.04,3.22,114.57,91.3,150.23,184.98,202.94,116.43,65.51,41.8,197.44,41.8,197.44l987.65.03V67.21c-66.95-96.91-286.3-68.36-293.09,95.69Z"/>
        <g class="cls-40">
          <g class="cls-38">
            <path class="cls-45" d="m224.45,1040.39s-38.11,199.83,6.05,125.29c179.59-303.12,435.67-128.7,496.41-41.52,214.62,308.05,723.08,138.69,687.62-42.42-35.15-179.52-374.11-195.2-313.77-332.68s281.82,6.69,402.5-116.18c110.01-112.01,102.63-283.84,107.8-339.01s-98.27-381-98.27-381c0,0-432.72,90.61-431,98.75s-110.34,171.59-99.99,180.54,385.08-59.32,326.46,247.55c-31.18,163.24-379.11,85.18-412.26,224.82s23.74,141.37,84.08,239.63-4.99,195.2-145.4,141.02c-445.31-171.83-610.24-4.8-610.24-4.8Z"/>
          </g>
        </g>
      </g>
      <g>
        <rect class="cls-43" x="780.69" y="1105.17" width="356.75" height="58.65" rx="9.64" ry="9.64"/>
        <g>
          <g>
            <g>
              <line class="cls-9" x1="1006.18" y1="1122.29" x2="978.28" y2="1122.29"/>
              <g>
                <rect class="cls-19" x="975.85" y="1131.73" width="20.64" height="9.26" transform="translate(2122.54 150.19) rotate(90)"/>
                <rect class="cls-19" x="992.73" y="1126.96" width="11.1" height="9.26" transform="translate(2129.87 133.31) rotate(90)"/>
              </g>
            </g>
            <g>
              <line class="cls-9" x1="1097.36" y1="1146.68" x2="1069.46" y2="1146.68"/>
              <g>
                <rect class="cls-19" x="1067.04" y="1127.98" width="20.64" height="9.26" transform="translate(-55.26 2209.97) rotate(-90)"/>
                <rect class="cls-19" x="1083.92" y="1132.75" width="11.1" height="9.26" transform="translate(-47.92 2226.85) rotate(-90)"/>
              </g>
            </g>
            <g>
              <line class="cls-9" x1="1051.77" y1="1134.49" x2="1023.87" y2="1134.49"/>
              <rect class="cls-19" x="1021.44" y="1129.86" width="20.64" height="9.26" transform="translate(2166.25 102.72) rotate(90)"/>
              <rect class="cls-19" x="1038.33" y="1129.86" width="11.1" height="9.26" transform="translate(2178.36 90.61) rotate(90)"/>
            </g>
          </g>
          <g>
            <g>
              <line class="cls-9" x1="820.78" y1="1120.54" x2="820.78" y2="1148.44"/>
              <g>
                <rect class="cls-19" x="824.53" y="1135.91" width="20.64" height="9.26"/>
                <rect class="cls-19" x="824.53" y="1123.8" width="11.1" height="9.26"/>
              </g>
            </g>
            <g>
              <line class="cls-9" x1="931.68" y1="1120.54" x2="931.68" y2="1148.44"/>
              <g>
                <rect class="cls-19" x="907.29" y="1135.91" width="20.64" height="9.26" transform="translate(1835.23 2281.09) rotate(-180)"/>
                <rect class="cls-19" x="916.84" y="1123.8" width="11.1" height="9.26" transform="translate(1844.77 2256.87) rotate(-180)"/>
              </g>
            </g>
            <g>
              <line class="cls-9" x1="876.23" y1="1120.54" x2="876.23" y2="1148.44"/>
              <rect class="cls-19" x="865.91" y="1135.91" width="20.64" height="9.26"/>
              <rect class="cls-19" x="870.68" y="1123.8" width="11.1" height="9.26"/>
            </g>
          </g>
        </g>
      </g>
      <g>
        <rect class="cls-44" x="1212.81" y="819.5" width="250.11" height="58.65" rx="9.64" ry="9.64"/>
        <g>
          <g>
            <rect class="cls-19" x="1237.79" y="834.96" width="20.22" height="20.22"/>
            <rect class="cls-19" x="1245.29" y="842.46" width="20.22" height="20.22"/>
          </g>
          <g>
            <polygon class="cls-19" points="1302.77 842.46 1315.49 842.46 1315.49 834.96 1295.27 834.96 1295.27 855.18 1302.77 855.18 1302.77 842.46"/>
            <rect class="cls-9" x="1302.77" y="842.46" width="20.22" height="20.22"/>
          </g>
          <g>
            <rect class="cls-9" x="1352.75" y="834.96" width="20.22" height="20.22"/>
            <rect class="cls-9" x="1360.25" y="842.46" width="20.22" height="20.22"/>
            <rect class="cls-10" x="1360.25" y="842.46" width="12.72" height="12.72"/>
          </g>
          <g>
            <polygon class="cls-19" points="1430.45 842.46 1430.45 834.96 1410.24 834.96 1410.24 855.18 1417.73 855.18 1417.73 842.46 1430.45 842.46"/>
            <polygon class="cls-19" points="1430.45 842.46 1430.45 855.18 1417.73 855.18 1417.73 862.68 1437.95 862.68 1437.95 842.46 1430.45 842.46"/>
          </g>
        </g>
      </g>
      <circle class="cls-22" cx="306.69" cy="1268.45" r="58.79"/>
      <g>
        <g>
          <path class="cls-48" d="m1102.87,672.71c18.03-42.78-3.11-92.26-47.16-108.49-39.04-14.38-83.27,3.35-101.54,40.73-9.89,20.24-10.68,42.32-4.15,61.86,8.08,24.18,7.65,50.39-2.25,73.89l-1.74,4.12c-3.76,8.91.46,19.27,9.37,23.02l31.7,13.36c8.91,3.76,19.27-.46,23.02-9.37l1.25-2.96c10.14-24.05,28.99-43.1,52.4-54.65,17-8.38,31.17-22.68,39.11-41.52Z"/>
          <rect class="cls-32" x="934.98" y="781.05" width="58.2" height="10.23" rx="5.11" ry="5.11" transform="translate(381.13 -312.78) rotate(22.86)"/>
          <rect class="cls-32" x="929.02" y="795.18" width="58.2" height="10.23" rx="5.11" ry="5.11" transform="translate(386.15 -309.35) rotate(22.86)"/>
          <rect class="cls-32" x="923.06" y="809.32" width="58.2" height="10.23" rx="5.11" ry="5.11" transform="translate(391.17 -305.93) rotate(22.86)"/>
          <path class="cls-8" d="m985.89,762.19l44.15-84.14c3.08-5.87,10.15-8.41,16.26-5.83l.2.08c6.5,2.74,9.54,10.22,6.8,16.72h0c-2.74,6.5-10.22,9.54-16.72,6.8l-54.61-23.02c-6.5-2.74-9.54-10.22-6.8-16.72h0c2.74-6.5,10.22-9.54,16.72-6.8l.2.08c6.11,2.58,9.23,9.41,7.18,15.71l-29.41,90.35"/>
          <path class="cls-20" d="m954.17,604.95c-2.17,4.44-3.9,8.96-5.21,13.53l140.9-30.46c-8.8-10.38-20.35-18.72-34.15-23.8-39.04-14.38-83.27,3.35-101.54,40.73Z"/>
          <g>
            <path class="cls-19" d="m943.96,772.13c-2.59-1.09-5.61.13-6.7,2.73h0c-1.09,2.59.13,5.61,2.73,6.7l23.88,10.07,17.4-3.76-37.31-15.73Z"/>
            <path class="cls-19" d="m938.01,786.27c-2.59-1.09-5.61.13-6.7,2.73-1.09,2.59.13,5.61,2.73,6.7l3.74,1.58,17.4-3.76-17.17-7.24Z"/>
          </g>
        </g>
        <g>
          <g>
            <line class="cls-2" x1="1126.31" y1="567.06" x2="1112.11" y2="572.59"/>
            <line class="cls-2" x1="1011.53" y1="519.55" x2="1017.33" y2="533.32"/>
          </g>
          <line class="cls-2" x1="1078.69" y1="520.34" x2="1072.75" y2="533.99"/>
        </g>
      </g>
      <g>
        <path class="cls-46" d="m1417.68,925.42c-.94-3.75-4.14-6.6-7.99-6.18l-7.88.85,55.65,198.16-120.31,54.17-140.7,44.1-58.15,45.43-76.26,35.42,4.45,8.14c1.38,2.52,4.28,3.78,7.06,3.07l348.57-90.21c5.65-1.46,10.27-5.51,12.46-10.92l31.67-78.13c.95-2.35,1.13-4.93.52-7.39l-49.09-196.51Z"/>
        <path class="cls-47" d="m1194.24,1202.92l-58.94-177.06c-1-2.99.56-6.23,3.51-7.33l261.41-97.93c5.27-1.97,11.09,1.08,12.46,6.54l48.29,192.18-266.74,83.61Z"/>
        <path class="cls-19" d="m1203.28,1188.16l-52.93-157.08c-.89-2.65.53-5.54,3.22-6.52l239.67-87.71c3.06-1.12,6.43.64,7.26,3.79l45.27,172.37-242.48,75.15Z"/>
        <path class="cls-41" d="m1062.52,1295.98l131.73-93.06,266.74-83.61-31.29,75.3c-2.48,5.96-7.6,10.41-13.84,12.03l-352.3,91.57c-1.35.35-2.18-1.43-1.04-2.23Z"/>
        <path class="cls-42" d="m1196.08,1206.59l243.86-76.34c.77-.24,1.46.55,1.11,1.28l-15.86,32.94c-.29.61-.83,1.07-1.48,1.25l-281.71,81.33c-1,.28-1.63-1.04-.78-1.64l54.62-38.7c.08-.06.17-.1.26-.13Z"/>
        <polygon class="cls-62" points="1233.77 1224.06 1308.4 1203.27 1290.68 1233.83 1208.31 1255.8 1233.77 1224.06"/>
        <path class="cls-49" d="m1189.25,1146.53l-38.9-115.45c-.89-2.65.53-5.54,3.22-6.52l117.77-43.1-82.08,165.07Zm256.51-33.52l-45.27-172.37c-.83-3.16-4.19-4.92-7.26-3.79l-44.88,16.42-111.64,224.52,209.04-64.78Z"/>
      </g>
      <polygon class="cls-5" points="1283.32 613.3 1241.02 580.76 1247.73 633.7 1258.04 622.82 1269.26 642.39 1279.94 636.26 1268.7 616.64 1283.32 613.3"/>
      <g>
        <rect class="cls-19" x="1424.73" y="1281.04" width="19.66" height="9.24" transform="translate(1329.27 -637.83) rotate(45)"/>
        <path class="cls-19" d="m1411.95,1305.99c-.43-1.27-.14-2.72.87-3.73,1.42-1.42,3.71-1.42,5.13,0,1.42,1.42,1.42,3.71,0,5.13-1.01,1.01-2.46,1.3-3.73.87l-16.04,16.04,33.14-8.53,4.66-17.56-3.94-3.94-6.09-6.09-3.94-3.94-17.56,4.66-8.53,33.14,16.04-16.04Z"/>
      </g>
      <g>
        <rect class="cls-3" x="785.22" y="674.21" width="69.52" height="92.3" rx="27.64" ry="27.64"/>
        <line class="cls-3" x1="785.58" y1="715.88" x2="854.38" y2="715.88"/>
        <line class="cls-3" x1="819.98" y1="701.66" x2="819.98" y2="715.67"/>
        <line class="cls-3" x1="819.98" y1="674.14" x2="819.98" y2="690.34"/>
        <circle class="cls-3" cx="819.98" cy="695.9" r="5.55"/>
      </g>
      <g>
        <rect class="cls-4" x="855.64" y="895.24" width="133.73" height="133.73"/>
        <rect class="cls-19" x="850.66" y="890.73" width="10.1" height="10.1"/>
        <rect class="cls-19" x="984.01" y="890.73" width="10.1" height="10.1"/>
        <rect class="cls-19" x="984.01" y="957.29" width="10.1" height="10.1"/>
        <rect class="cls-19" x="850.66" y="957.25" width="10.1" height="10.1"/>
        <rect class="cls-19" x="850.66" y="1023.76" width="10.1" height="10.1"/>
        <rect class="cls-19" x="984.01" y="1023.76" width="10.1" height="10.1"/>
        <rect class="cls-19" x="917.41" y="890.73" width="10.1" height="10.1"/>
        <rect class="cls-19" x="917.41" y="1023.76" width="10.1" height="10.1"/>
      </g>
      <g>
        <g>
          <path class="cls-4" d="m1096.98,1352.5h-174.08c-4.63,0-8.41-3.79-8.41-8.41v-118.02c0-4.63,3.79-8.41,8.41-8.41h174.08c4.63,0,8.41,3.79,8.41,8.41v118.02c0,4.63-3.79,8.41-8.41,8.41Z"/>
          <line class="cls-4" x1="1104.97" y1="1233.43" x2="915.2" y2="1233.43"/>
          <circle class="cls-19" cx="927.11" cy="1225.73" r="3.32"/>
          <circle class="cls-19" cx="938.8" cy="1225.73" r="3.32"/>
          <circle class="cls-19" cx="950.49" cy="1225.73" r="3.32"/>
        </g>
        <rect class="cls-19" x="949.82" y="1260.07" width="16.59" height="75.82" rx="1.74" ry="1.74"/>
        <rect class="cls-19" x="975.09" y="1294.39" width="16.59" height="41.5" rx="1.74" ry="1.74"/>
        <rect class="cls-19" x="1000.36" y="1275.86" width="16.59" height="60.03" rx="1.74" ry="1.74"/>
        <rect class="cls-19" x="1051.5" y="1275.86" width="16.59" height="60.03" rx="1.74" ry="1.74"/>
        <rect class="cls-19" x="1025.63" y="1317.81" width="16.59" height="18.08" rx="1.74" ry="1.74"/>
      </g>
      <g>
        <rect class="cls-4" x="1134.45" y="1234.27" width="48.54" height="101.62" rx="6.99" ry="6.99"/>
        <path class="cls-19" d="m1143.43,1234.27v3.29c0,2.56,1.91,4.65,4.24,4.65h22.09c2.33,0,4.24-2.09,4.24-4.65v-3.29h-30.57Z"/>
        <rect class="cls-19" x="1143.13" y="1254.23" width="30.92" height="2.85" rx="1.42" ry="1.42"/>
        <rect class="cls-19" x="1143.13" y="1259.92" width="30.92" height="2.85" rx="1.42" ry="1.42"/>
        <rect class="cls-19" x="1143.13" y="1265.61" width="15.15" height="2.85" rx="1.42" ry="1.42"/>
        <rect class="cls-19" x="1143.13" y="1282.68" width="30.92" height="2.85" rx="1.42" ry="1.42"/>
        <rect class="cls-19" x="1143.13" y="1288.37" width="30.92" height="2.85" rx="1.42" ry="1.42"/>
        <rect class="cls-19" x="1143.13" y="1305.44" width="30.92" height="2.85" rx="1.42" ry="1.42"/>
        <rect class="cls-19" x="1143.13" y="1311.13" width="30.92" height="2.85" rx="1.42" ry="1.42"/>
        <rect class="cls-19" x="1143.13" y="1316.82" width="15" height="2.85" rx="1.42" ry="1.42"/>
        <rect class="cls-19" x="1143.13" y="1322.51" width="30.92" height="2.85" rx="1.42" ry="1.42"/>
      </g>
      <g>
        <rect class="cls-34" x="942.42" y="987.96" width="4.35" height="19.2" rx="2.17" ry="2.17" transform="translate(1053.58 -371.93) rotate(47.99)"/>
        <path class="cls-61" d="m996.77,978.87c30.41-28.84,283.32-268.67,283.32-268.67,4.35-4.12,4.61-10.95.61-15.4-4.01-4.45-10.83-4.89-15.38-1l-296.7,253.81c-2.06,1.77-3.77,3.91-5.02,6.32-4,7.73-13.48,26.03-19.74,38.12l6.13,6.8,39.97-15.66c2.53-.99,4.84-2.46,6.81-4.33Z"/>
        <path class="cls-60" d="m968.62,947.61c-1.05.9-2.01,1.9-2.86,2.97l27.75,30.81c1.16-.73,2.25-1.58,3.25-2.53,13.64-12.93,72-68.28,132.24-125.4l-21.91-24.32-138.48,118.47Z"/>
        <g>
          <rect class="cls-34" x="1055.84" y="872.89" width="7.14" height="42.49" transform="translate(1014.7 -491.45) rotate(47.99)"/>
          <rect class="cls-34" x="1020.36" y="904.85" width="7.14" height="42.49" transform="translate(1026.71 -454.52) rotate(47.99)"/>
        </g>
        <path class="cls-50" d="m1105.52,830.5l21.98,24.4c1.61-1.52,3.21-3.05,4.82-4.57l-21.75-24.15-5.05,4.32Z"/>
      </g>
      <g>
        <path class="cls-5" d="m1411.51,670.07h-39.28c-23.7,0-43.09,19.39-43.09,43.09h0c0,23.7,19.39,43.09,43.09,43.09h32.86l6.63,14.39,6.91-14.99c20.35-3.42,35.98-21.21,35.98-42.49h0c0-23.7-19.39-43.09-43.09-43.09Z"/>
        <line class="cls-6" x1="1366.94" y1="697.73" x2="1462.69" y2="697.73"/>
        <line class="cls-6" x1="1366.94" y1="714.04" x2="1462.69" y2="714.04"/>
        <line class="cls-6" x1="1366.94" y1="729.75" x2="1410.94" y2="729.75"/>
      </g>
      <g>
        <path class="cls-5" d="m1122.52,962.3h35.35c21.33,0,38.78,17.45,38.78,38.78h0c0,21.33-17.45,38.78-38.78,38.78h-29.57s-5.96,12.95-5.96,12.95l-6.21-13.49c-18.31-3.08-32.38-19.09-32.38-38.24h0c0-21.33,17.45-38.78,38.78-38.78Z"/>
        <line class="cls-6" x1="1072.15" y1="991.34" x2="1165.69" y2="991.34"/>
        <line class="cls-6" x1="1072.15" y1="1011" x2="1165.69" y2="1011"/>
      </g>
      <g class="cls-39">
        <g>
          <path class="cls-7" d="m1300.3,526.72c-2.39,1.53-5.39,2.14-8.39,1.46-4.96-1.13-8.37-5.42-8.54-10.22"/>
          <path class="cls-56" d="m1294.66,531.39l5.38,10c.77,1.42,2.06,2.49,3.6,2.97l124.33,38.76c2.94.92,6.1-.47,7.41-3.25l82.17-173.49c1.66-3.5,1.65-7.57-.03-11.06l-4.23-8.81"/>
          <path class="cls-18" d="m1379.76,383.51l132.13,2.32c1.35.02,2.21,1.44,1.62,2.65l-87.57,178.87c-.39.8-1.3,1.2-2.15.96l-127.98-35.95c-1.16-.32-1.7-1.65-1.1-2.69l83.42-145.24c.33-.58.96-.94,1.63-.92Z"/>
          <path class="cls-58" d="m1367.91,378.04l-88.55-103.84c-1.28-1.5-3.63-1.37-4.73.26l-117.16,172.21c-.97,1.42-.54,3.36.94,4.24l121.37,72.09c1.41.84,3.23.38,4.08-1.03l84.34-140.45c.66-1.1.54-2.49-.29-3.47Z"/>
          <path class="cls-59" d="m1377.72,397.05c-1.34,0-2.45-1.06-2.5-2.42-.13-3.83-2.83-7.1-6.58-7.96-2.25-.51-4.55-.1-6.48,1.15-1.16.75-2.71.42-3.46-.74-.75-1.16-.42-2.71.74-3.46,3.08-2,6.74-2.65,10.31-1.83,5.96,1.36,10.26,6.56,10.47,12.67.05,1.38-1.04,2.54-2.42,2.58-.03,0-.06,0-.08,0Zm-7.97,13.8c1.38-.05,2.46-1.2,2.42-2.58-.2-6.1-4.51-11.31-10.47-12.67-3.57-.81-7.24-.16-10.31,1.83-1.16.75-1.49,2.3-.74,3.46.75,1.16,2.3,1.49,3.46.74,1.93-1.25,4.23-1.66,6.48-1.15,3.75.85,6.45,4.12,6.58,7.96.05,1.35,1.16,2.42,2.5,2.42.03,0,.06,0,.08,0Zm-8.06,13.8c1.38-.05,2.46-1.2,2.42-2.58-.2-6.1-4.51-11.31-10.47-12.67-3.57-.81-7.24-.16-10.31,1.83-1.16.75-1.49,2.3-.74,3.46.75,1.16,2.3,1.49,3.46.74,1.93-1.25,4.23-1.66,6.48-1.15,3.74.85,6.45,4.13,6.58,7.96.05,1.35,1.16,2.42,2.5,2.42.03,0,.06,0,.08,0Zm-8.06,13.8c1.38-.05,2.46-1.2,2.42-2.58-.2-6.1-4.51-11.31-10.47-12.67-3.58-.82-7.24-.16-10.32,1.83-1.16.75-1.49,2.3-.74,3.46.75,1.16,2.3,1.49,3.46.74,1.93-1.26,4.23-1.66,6.48-1.15,3.75.85,6.45,4.12,6.58,7.96.05,1.35,1.16,2.42,2.5,2.42.03,0,.06,0,.08,0Zm-8.75,13.65c1.38-.05,2.46-1.2,2.42-2.58-.2-6.1-4.51-11.31-10.46-12.67-3.57-.81-7.24-.16-10.32,1.83-1.16.75-1.49,2.3-.74,3.46.75,1.16,2.3,1.49,3.46.74,1.93-1.26,4.24-1.66,6.48-1.15,3.75.85,6.45,4.12,6.58,7.96.04,1.35,1.16,2.42,2.5,2.42.03,0,.06,0,.08,0Zm-7.36,13.96c1.38-.05,2.46-1.2,2.42-2.58-.2-6.1-4.51-11.31-10.47-12.67-3.57-.81-7.24-.16-10.31,1.83-1.16.75-1.49,2.3-.74,3.46.75,1.16,2.3,1.49,3.46.74,1.93-1.25,4.23-1.66,6.48-1.15,3.75.85,6.45,4.12,6.58,7.96.05,1.35,1.16,2.42,2.5,2.42.03,0,.06,0,.08,0Zm-8.06,13.8c1.38-.05,2.46-1.2,2.42-2.58-.2-6.1-4.51-11.31-10.47-12.67-3.58-.82-7.24-.16-10.32,1.83-1.16.75-1.49,2.3-.74,3.46.75,1.16,2.3,1.49,3.46.74,1.93-1.26,4.24-1.66,6.48-1.15,3.75.85,6.45,4.13,6.58,7.96.05,1.35,1.16,2.42,2.5,2.42.03,0,.06,0,.08,0Zm-8.75,13.65c1.38-.05,2.46-1.2,2.42-2.58-.2-6.1-4.51-11.31-10.47-12.67-3.57-.81-7.24-.16-10.31,1.83-1.16.75-1.49,2.3-.74,3.46.75,1.16,2.3,1.49,3.46.74,1.93-1.25,4.23-1.66,6.48-1.15,3.75.85,6.45,4.13,6.58,7.96.04,1.35,1.16,2.42,2.5,2.42.03,0,.06,0,.08,0Zm-8.06,13.8c1.38-.05,2.46-1.2,2.42-2.58-.2-6.1-4.51-11.31-10.46-12.67-3.58-.82-7.24-.16-10.32,1.83-1.16.75-1.49,2.3-.74,3.46.75,1.16,2.3,1.49,3.46.74,1.93-1.25,4.24-1.66,6.48-1.15,3.75.85,6.45,4.12,6.58,7.96.05,1.35,1.16,2.42,2.5,2.42.03,0,.06,0,.08,0Zm-8.06,13.8c1.38-.05,2.46-1.2,2.42-2.58-.2-6.1-4.51-11.31-10.47-12.67-3.58-.82-7.24-.16-10.31,1.83-1.16.75-1.49,2.3-.74,3.46.75,1.16,2.3,1.49,3.46.74,1.93-1.25,4.23-1.66,6.48-1.15,3.75.85,6.45,4.12,6.58,7.96.05,1.35,1.16,2.42,2.5,2.42.03,0,.06,0,.08,0Z"/>
        </g>
        <g>
          <path class="cls-33" d="m1507.55,178.21c-10.97-17.11-36.87-4.17-44.88-25.32-5.49-14.46,10.67-21.64,2.58-34.7-13.71-22.14-41.35-28.11-81.77-32.68-56.5-6.38-104.9,21.96-97.33,78.49,9.51,71,94.24,133.4,170.04,123.25,72.67-9.73,75.77-71,51.37-109.04Zm-61.88-57.85c1.67,6.45-5.8,9.65-16.96,6.92-11.42-2.79-21.81-10.57-22.94-17.13-1.1-6.37,7.02-8.99,17.89-6.1,10.64,2.83,20.38,10.04,22,16.3Z"/>
          <path class="cls-51" d="m1512.09,169.94c-11.89-21.24-36.87-4.17-44.88-25.32-5.49-14.46,10.58-12.9,2.5-25.96-13.71-22.14-41.26-36.85-81.69-41.41-56.5-6.38-104.9,21.96-97.33,78.49,9.51,71,94.24,133.4,170.04,123.25,72.67-9.73,73.44-69.6,51.37-109.04Zm-63.01-55.33c1.67,6.45-5.8,9.65-16.96,6.92-11.42-2.79-21.81-10.57-22.94-17.13-1.1-6.37,7.02-8.99,17.89-6.1,10.64,2.83,20.38,10.04,22,16.3Z"/>
          <path class="cls-23" d="m1388.62,77.31c-.2-.02-.4-.05-.6-.07-56.5-6.38-104.9,21.96-97.33,78.49,1.78,13.3,6.2,26.31,12.72,38.59l85.22-117Z"/>
          <path class="cls-16" d="m1386.13,108.63c2.63,7.88-2.91,13.78-12.69,12.94-10.03-.86-20.18-8.41-22.36-16.59-2.12-7.93,4.15-13.21,13.72-12.05s18.77,8.06,21.33,15.7Z"/>
          <path class="cls-27" d="m1358.48,135.89c2.46,9.24-4.46,16.57-15.81,16.07-11.68-.52-22.95-9.06-24.79-18.74s6.01-15.89,17.07-14.94c10.77.92,21.15,8.68,23.53,17.61Z"/>
          <path class="cls-13" d="m1378.05,188.32c3.05,11.08-3.94,20.64-16.06,20.97-12.51.35-24.93-9.21-27.29-20.93-2.27-11.27,5.79-19.86,17.59-19.58,11.46.27,22.82,8.86,25.76,19.54Z"/>
          <path class="cls-14" d="m1433.72,228.02c4.14,11.94-1.3,22.75-12.61,23.75s-24.42-8.76-27.98-21.44c-3.42-12.19,3.13-21.99,14.22-22.3s22.39,8.48,26.37,19.98Z"/>
          <path class="cls-29" d="m1489.3,228.09c4.82,11.07,1.27,21.05-8.33,21.95-9.88.93-21.83-8.1-26.27-19.81s.26-20.4,9.75-20.7,20.19,7.87,24.84,18.56Z"/>
          <path class="cls-30" d="m1503.42,190.87c4.54,9.34,1.7,17.34-6.68,17.61s-19.3-7.67-23.56-17.46-.48-16.8,7.83-16.63c8.11.16,18.01,7.42,22.41,16.48Z"/>
        </g>
      </g>
      <g>
        <polyline class="cls-57" points="1265.34 352.41 1068.74 114.34 1091.31 95.71 1287.9 333.77"/>
        <g>
          <polygon class="cls-21" points="1297.29 360.39 1287.9 333.77 1265.34 352.41 1289.7 366.65 1297.29 360.39"/>
          <rect class="cls-25" x="1302.04" y="373.87" width="0" height="0" transform="translate(487.71 1456.43) rotate(-69.07)"/>
          <path class="cls-37" d="m1297.29,360.39l-7.58,6.26,9.09,5.32c1.02.59,2.38-.53,1.99-1.65l-3.5-9.93Z"/>
        </g>
        <rect class="cls-35" x="1055.3" y="76.96" width="29.26" height="31.7" transform="translate(185.85 702.53) rotate(-39.55)"/>
        <path class="cls-26" d="m1044.39,58.7h15.16c3.89,0,7.05,3.16,7.05,7.05v17.67h-29.26v-17.67c0-3.89,3.16-7.05,7.05-7.05Z" transform="translate(195.59 686.12) rotate(-39.55)"/>
      </g>
      <g>
        <path class="cls-9" d="m1189.24,244.68c-1.76-10.66-11.01-18.79-22.17-18.79-4.43,0-8.57,1.29-12.05,3.51-4.73-9.08-14.22-15.29-25.17-15.29-14.3,0-26.12,10.58-28.08,24.34-2.61-.79-5.38-1.22-8.25-1.22-15.66,0-28.36,12.7-28.36,28.36s12.7,28.36,28.36,28.36c.47,0,.94-.01,1.41-.04,4.96,8.25,14,13.78,24.33,13.78,7.88,0,15-3.21,20.14-8.4,3.07,3.55,7.14,6.2,11.79,7.5-.02.3-.05.59-.05.9,0,6.5,5.27,11.77,11.77,11.77s11.77-5.27,11.77-11.77c0-2.04-.52-3.96-1.44-5.64,2.35-1.96,4.32-4.35,5.79-7.06,3.09,1.28,6.47,1.99,10.03,1.99,14.45,0,26.16-11.71,26.16-26.16s-11.61-26.05-25.98-26.15Z"/>
        <circle class="cls-9" cx="1179.92" cy="330.13" r="8.08"/>
        <circle class="cls-9" cx="1202.13" cy="346.17" r="4.04"/>
      </g>
    </g>
    <g id="Layer_5" data-name="Layer 5">
      <path class="cls-53" d="m822.02,813.63c-6.67,31.06-70.81,27.64-90.15-17.9-7.83-18.72-20.31-35.54-36.09-48.25-7.15-11.93-18.52-20.51-31.04-26.46-27.73-13.18-61.18-15.87-89.98-4.35-10.29,4.12-22.22,10.84-27.9,20.79l.14-.96c-9.2,17.51-13.21,4.84-18.16,23.99-7.12,14.72-14.21,61.64-14.7,77.85-13.94,154.16,145.55,164.52,199.32,92.48,26.01,25.64,99.33,0,83.39-49.16,18.34,5.58,61.59-29.16,25.16-68.02Z"/>
      <path class="cls-54" d="m745.04,1119.17c-.46-2.05-1.32-2.72-3.69-4.11-2.17-1.27-4.9-1.54-7.5-1.75-1.65-.44-3.38-.55-5.14-.47-2.17-.2-3.99-7.64-6.17-7.73-6.36-.28-12.36-8.17-17.61-4.98-4.1,1.23-10.08,1.88-13.75,3.99-1.66.95-21.2,3.27-21.79,4.65-26.11,9.44-31.39,34.83-57.38,44.56-3.58,1.34-5.6,4.68-5.69,7.95-13.68.15-27.34-.86-40.76-3.34-16.22-3-34.44-7.35-48.03-17.12-3.51-2.52-8.91-.61-10.95,2.87-2.36,4.03-.65,8.42,2.87,10.95,10.34,7.43,23.37,11.61,35.53,14.98,12.59,3.49,25.56,5.62,38.57,6.74,22.66,1.96,45.55.43,67.97-3.34,27.36-1.78,54.5-7.23,78.8-20.43,6.42-3.49,13.07-7.71,16.65-14.32,3.43-6.35,2.62-14.5-1.95-19.09Z"/>
    </g>
    <g id="Layer_3" data-name="Layer 3">
      <path class="cls-24" d="m684.54,803.65c.25-6.37-5.42-12.46-6.03-12.69-7.92-2.96.37-14.96-6.72-19.55-7.69-9.31-19.43-35.23-29.72-41.76-9.66-11.44-60.97-15.25-64.51,5.56-11.9,16.89-4.07,35.99-24.15,40.9l1.31,1.81c-17.69,70.9,32.88,81.09,44.13,83.26.05.01.11.02.17.03,1.21,7.82-3.57,28.95-3.82,31.67-.69,7.49,39.21,7.87,44.19,3.83,4.46-3.61-3.63-20.63-.13-36.01,1.1-.57,32.8-4.79,39.14-26.67,26.72.42,24.82-38.61,6.13-30.39Z"/>
      <path class="cls-24" d="m582.79,1134.88c-2.45-2.21-5.86-4.27-9.47-5.43l-.16-.09c-.69-.55-1.4-1.07-2.14-1.54-7.34-4.72-14.7-3.96-21.27,1.6-7.82,6.61-16.94,25.76-17.1,26.95-2.34,17.75-11.44,75.85-12.4,84.57-.95,8.65-.84,17.37-1.73,26.02-1.78,17.36-5.7,67.25-14.8,76.58-4.34,2.18-6.25,5.36-16.64,4.95-19.76-11.74-29.11,2.26-29.13,5.67-.02,3.23-.35,11.87,30.28,19.35,4.51,1.07,24.56,9.37,29.8,8.78,4.24-.48,8.87-2.39,11.25-25.37,10.02-60.02,29.38-61.4,29.47-113.82,0-4.31.98-8.57,2.83-12.46,6.55-13.77,21.5-40.26,27.73-67.9,4.26-8.86,1.38-20.73-6.53-27.85Z"/>
      <path class="cls-24" d="m803.81,1272.17c-1.15-3.68-8.95-12.65-11.54-15.5-2.43-2.69-4.62-20.18-13.27-23.05-7.05-2.33-13.37,4.81-21.17,3.89-9.1-5.67-21.57-23.29-61.14-25.92-3.43-.23-19.04,2.41-20.98-2.29-.12-3.48-.08-6.96-.28-10.19-.53-8.32-1.29-16.63-2.3-24.91-2.09-17.1-5.11-34.06-9.13-50.81-1.01-4.23-5.14-5.07-8.22-3.64-3.92-4.22-9.53-6.17-15.22-5.68-.55-.04-1.1-.06-1.66-.04-10.96.39-18.21,9.94-21.41,20.12-2.91,6.63-4.02,13.94-1.72,20.14-.78,1.21-1.02,2.78-.35,4.63,2.6,7.16,5.21,14.33,7.81,21.49,2.55,10.78,11.96,34.31,12.7,35.91,6.23,21.99,24.91,26.54,34.71,26.84,17.46,3.47,69.15,9.75,82.52,18.39,0,0,.01,0,.02,0,7.41,3.86,21.6,18.63,23.52,22.3,1.54,2.95,5.09,9.77,7.32,12.3,5.74,6.51,13.76,3.8,17.67-3.07,3.54-6.23,4.26-14.11,2.13-20.93Z"/>
      <path class="cls-24" d="m803.14,1047.84c-2.39-3.12-7.2-3.07-10.72-3.57-11.5-1.65-23.04-2.92-34.61-3.86-2.8-.23-5.82,2.25-4.49,5.31.66,1.52,1.46,2.78,2.35,3.84-1.01.31-2.02.65-3.02,1.04-.85.33-1.47.9-1.89,1.59-2.67-1.11-6.66,1.37-5.54,5.08,2.91,9.62,13.37,20.03,23.12,18.37,2.99-1.61-3.1-8.33-6.4-11.47,5.25,1.02,13.46.87,18.85.23,7.92-.94,15.41-3.23,21.39-8.89,2.21-2.09,2.92-5.12.96-7.67Z"/>
      <path class="cls-24" d="m484.53,841.67c-3.69,1.11-5.95,5.8-7.55,9.12l-1.52,3.16c-1.76-6.01-4.31-11.78-7.85-16.95-4.51-6.6-13.04-16.69-22.11-15.2-10.36,1.7-9.87,13.53-8,20.8,2.87,11.13,10.81,22.53,17.65,31.59,1.85,2.46,4.86,2.17,6.42.51,2.6,2.82,8.1.45,6.83-3.72-.15-.48-.31-.94-.46-1.42,1.24.66,2.77.63,4.02.09,1.85.93,4.56.51,5.5-1.44.01-.03.03-.06.04-.09,1.71.92,3.99.77,5.24-1.4,5.37-18.94,4.14-25.75,1.78-25.04Z"/>
      <circle class="cls-17" cx="655.41" cy="818.27" r="14.36"/>
      <circle class="cls-17" cx="574.54" cy="813.63" r="14.36"/>
      <circle class="cls-36" cx="580.87" cy="799.26" r="6.33"/>
      <circle class="cls-36" cx="649.09" cy="801.73" r="6.33"/>
      <g>
        <path class="cls-31" d="m631.96,827.89c-2.16-5.23-8.07-4.16-12.26-1.4-3.24,2.14-7.29,2.54-10.95,1.12-5.46-2.12-9.76-.72-11.01,3.11-2.44,19.91,38.85,18.15,34.23-2.83Z"/>
        <path class="cls-28" d="m619.04,833.03c-6.53,0-12.01,4.26-13.61,10.04,7.9,3.29,19.64,1.52,24.57-5-2.58-3.07-6.53-5.04-10.96-5.04Z"/>
      </g>
    </g>
    <g id="Layer_4" data-name="Layer 4">
      <path class="cls-52" d="m736.25,803.91c-17.18-32.31-21.06-68.01-44.13-92.57-9.88-10.52-22.35-19.05-36.27-23.16-12.07-3.57-26.82-4.41-37.48,2.94-14.36-7.76-32.27-5.21-46,3.15-15.5,9.43-27.68,25.01-35.56,41.16-4.13,8.46-15.81,36.92-18.63,68.48,16.93,12.65,74.72-20.03,96.8-63,44.14,86.55,103.69,72.71,121.28,63Z"/>
    </g>
    <g id="Layer_6" data-name="Layer 6">
      <path class="cls-55" d="m593.69,890.74c-22.88.46-54.19,47.1-54.75,47.81-1.02-7.12-3.07-14.11-5.87-20.97-2.49-6.11-5.38-12.03-8.48-17.86-3.32-6.26-6.49-13.46-11.76-18.37-5.74-5.36-12.43-5.29-20.39-5.36-.17-4.72-2.48-11.41-7.08-13.14-4.99-1.88-29.02,5.98-32.07,10.54-2.81,4.19,1.12,11.43,3.34,15.99-20.76,26.92,4.01,54.33,18.93,70.56,8.16,8.88,40.57,37.48,50.23,38.72,13.84,1.77,18.2-2.3,26.26-12.47,9.3-11.73,17.2-24.6,23.54-38.15,1.85-3.96,3.93-8.26,5.73-12.73,2.96-4.3,5.83-8.69,8.41-13.16,3.08-5.34,6.85-13.24,5.69-19.84,5.79-2.36,5.27-12.36-1.75-11.55Z"/>
      <path class="cls-64" d="m648.91,896.37c12.09,29.84,11.82,44.66,18.92,63.4,7.64,20.18,11.49,57.09-7.22,58.97-3.66.37-29.55,4.41-35.88,4.83-12.89.85-25.83.73-38.7-.36-6.64-.57-13.27-1.4-19.86-2.44-4.96-.79-10.83-1.19-15.24-3.84-33.11-21.82,19.63-95.14,36.13-122.46,1.73-7.33,1.71-10.15,2.79-14.27,1.26-4.82,2.86-9.11,7.78-8.3,19.19,3.16,29.55,2.87,39.65.06,9.82-1.13,10.26,14.76,11.64,24.42Z"/>
      <path class="cls-66" d="m764.57,1026.76c2.87-9.24,10.08-21.53-10.49-44.69-5.89-9.84-90.46-77.16-98.5-82.02-4.7-2.84-10.8-4.75-16.19-2.73-5.12,1.92-7.46,7.15-7.02,12.33,13.04,55.21,48.04,115.4,55.9,123.88,8.37,9.02,19.48,11.23,31.19,12.81,2.89.39,5.78.76,8.68,1.09.11.38.25.78.46,1.18,3.66,7.3,8.6,13.98,16.6,14.04,5.08.04,23.2-13.81,26.9-17.82,4.66-5.98-5.81-16.82-7.54-18.09Z"/>
      <path class="cls-65" d="m661.47,1033.69c.23-.33.95-6.46-.86-14.95-33,6.1-84.73,3.4-111.37-3.06-1.18-.04-1.89,16.48-1.39,17.57-37.19,43.8-67.36,105.09-65.7,106.66,12.16,11.48,71.26,59.23,145.28,14.37,78.5-61.46,117.61-35.11,117.61-35.11-12.6-20.52-68.24-76.21-83.57-85.48Z"/>
      <path class="cls-63" d="m784.01,1296.17c5.74,6.51,13.76,3.8,17.67-3.07,3.54-6.23,4.26-14.11,2.13-20.93-1.15-3.68-8.95-12.65-11.54-15.5-2.43-2.69-4.62-20.18-13.27-23.05-7.05-2.33-13.37,4.81-21.17,3.9-7.64-4.76-17.66-17.93-44.09-23.6,1.22,7.57,1.66,20.61-5,35.67,18.35,3.24,37.11,7.25,44.41,11.97,0,0,.01,0,.02,0,7.41,3.86,21.6,18.63,23.52,22.3,1.54,2.95,5.09,9.77,7.32,12.3Z"/>
      <path class="cls-67" d="m801.67,1293.1c3.54-6.23,4.26-14.11,2.13-20.93-1.15-3.68-8.95-12.65-11.54-15.5-2.43-2.69-4.62-20.18-13.27-23.05-5.92-1.96-11.33,2.75-17.53,3.77,5.76,6.13,21.59,23.52,23.25,31.25,1.57,7.33-.31,15.67-6.35,18.42,1.73,3.23,4.03,7.28,5.64,9.11,5.74,6.51,13.76,3.8,17.67-3.07Z"/>
      <path class="cls-68" d="m517.23,1280.04c-2.19,21.94-6.16,55.96-13.51,63.49-4.34,2.18-6.25,5.36-16.64,4.95-19.76-11.74-29.11,2.26-29.13,5.67-.02,3.23-.35,11.87,30.28,19.35,4.51,1.07,24.56,9.37,29.8,8.78,4.24-.48,8.87-2.39,11.25-25.37,6.95-41.65,17.05-52.23,23.58-72.9-16.01,3.7-28.6-.45-35.63-3.96Z"/>
      <path class="cls-69" d="m528.31,1364.4c-8.95,2.28-28.87-1.16-39.77-5.87-8.01-3.46-8.41-9.81-4.92-11.92-17.39-8.24-25.65,4.31-25.67,7.52-.02,3.23-.35,11.87,30.28,19.35,4.51,1.07,24.56,9.37,29.8,8.78,3.72-.42,7.75-1.95,10.28-17.85Z"/>
      <rect class="cls-36" x="567.04" y="775.13" width="27.94" height="5.84" rx="2.16" ry="2.16" transform="translate(-179.9 174.76) rotate(-14.84)"/>
      <rect class="cls-36" x="632.17" y="777.04" width="27.94" height="5.84" rx="2.16" ry="2.16" transform="translate(202.83 -130.7) rotate(13.68)"/>
    </g>
  </g>
</svg>