<?xml version="1.0" encoding="utf-8"?>
<!-- Generator: Adobe Illustrator 27.2.0, SVG Export Plug-In . SVG Version: 6.00 Build 0)  -->
<svg version="1.1" id="Layer_1" xmlns="http://www.w3.org/2000/svg" xmlns:xlink="http://www.w3.org/1999/xlink" x="0px" y="0px"
	 viewBox="0 0 353.1 186.3" style="enable-background:new 0 0 353.1 186.3;" xml:space="preserve">
<style type="text/css">
	.st0{fill:#FFFFFF;}
	.st1{fill:#5E70F2;}
	.st2{fill:#F490FE;}
	.st3{fill:none;stroke:#FFFFFF;stroke-width:5;stroke-miterlimit:10;}
	.st4{fill:#5F91FF;}
	.st5{fill:#FF76F5;}
	.st6{fill:#1FD1F2;}
</style>
<rect x="11.5" y="-126" class="st0" width="25.6" height="25.6"/>
<rect x="52.6" y="-237.2" class="st1" width="151.4" height="151.4"/>
<rect x="493.6" y="-237.2" class="st2" width="151.4" height="151.4"/>
<g>
	<g>
		<text transform="matrix(1 0 0 1 12.455 511.1859)" class="st0" style="font-family:'Lato-Medium'; font-size:74.12px;">JOLI CHIEN</text>
		<path class="st3" d="M10.8,424.7h398.2c33.3,0,60.3,27,60.3,60.3v0c0,33.3-27,60.3-60.3,60.3H10.8c-33.3,0-60.3-27-60.3-60.3v0
			C-49.6,451.7-22.6,424.7,10.8,424.7z"/>
	</g>
	<g>
		<path class="st4" d="M-130.7,412.2c5.6,2.6,8,9.1,5.5,14.5L-174.1,533c-2.5,5.4-9.1,7.8-14.6,5.3c-5.4-2.5-7.8-9.1-5.3-14.5
			l48.9-106.2C-142.6,412.2-136.1,409.7-130.7,412.2z"/>
		<circle class="st5" cx="-289.5" cy="390.7" r="10.8"/>
		<path class="st4" d="M-299.7,412.2c5.6,2.6,8,9.1,5.5,14.5L-343.1,533c-2.5,5.4-9.1,7.8-14.6,5.3c-5.4-2.5-7.8-9.1-5.3-14.5
			l48.9-106.2C-311.7,412.2-305.1,409.7-299.7,412.2z"/>
		<circle class="st5" cx="-134.9" cy="528.4" r="10.8"/>
		<path class="st4" d="M-124.4,507c-5.6-2.6-8-9.1-5.5-14.5l34.5-74.9c2.5-5.4,9.1-7.8,14.6-5.3c5.4,2.5,7.8,9.1,5.3,14.5
			l-34.5,74.9C-112.4,507-119,509.5-124.4,507z"/>
		<g>
			<path class="st4" d="M-243.9,523.9c-26.8,0-48.6-21.8-48.6-48.6s21.8-48.6,48.6-48.6s48.6,21.8,48.6,48.6
				S-217.1,523.9-243.9,523.9z M-243.9,447.8c-15.1,0-27.4,12.3-27.4,27.4s12.3,27.4,27.4,27.4s27.4-12.3,27.4-27.4
				S-228.8,447.8-243.9,447.8z"/>
		</g>
	</g>
</g>
<rect x="-264.7" y="48.4" class="st6" width="151.4" height="151.4"/>
<g>
	<path class="st6" d="M265.2,41.4c5.6,2.6,8,9.1,5.5,14.5l-48.9,106.2c-2.5,5.4-9.1,7.8-14.6,5.3c-5.4-2.5-7.8-9.1-5.3-14.5
		l48.9-106.2C253.2,41.3,259.8,38.9,265.2,41.4z"/>
	<circle class="st5" cx="106.3" cy="19.9" r="10.8"/>
	<path class="st6" d="M96.1,41.4c5.6,2.6,8,9.1,5.5,14.5L52.7,162.1c-2.5,5.4-9.1,7.8-14.6,5.3c-5.4-2.5-7.8-9.1-5.3-14.5L81.7,46.7
		C84.1,41.3,90.7,38.9,96.1,41.4z"/>
	<circle class="st5" cx="260.9" cy="157.6" r="10.8"/>
	<path class="st6" d="M271.4,136.1c-5.6-2.6-8-9.1-5.5-14.5l34.5-74.9c2.5-5.4,9.1-7.8,14.6-5.3c5.4,2.5,7.8,9.1,5.3,14.5
		l-34.5,74.9C283.4,136.2,276.8,138.6,271.4,136.1z"/>
	<g>
		<path class="st6" d="M151.9,153c-26.8,0-48.6-21.8-48.6-48.6s21.8-48.6,48.6-48.6s48.6,21.8,48.6,48.6S178.7,153,151.9,153z
			 M151.9,77c-15.1,0-27.4,12.3-27.4,27.4s12.3,27.4,27.4,27.4c15.1,0,27.4-12.3,27.4-27.4S167.1,77,151.9,77z"/>
	</g>
</g>
</svg>
