<?xml version="1.0" encoding="utf-8"?>
<!-- Generator: Adobe Illustrator 27.2.0, SVG Export Plug-In . SVG Version: 6.00 Build 0)  -->
<svg version="1.1" id="Layer_1" xmlns="http://www.w3.org/2000/svg" xmlns:xlink="http://www.w3.org/1999/xlink" x="0px" y="0px"
	 viewBox="0 0 353.1 208.6" style="enable-background:new 0 0 353.1 208.6;" xml:space="preserve">
<style type="text/css">
	.st0{fill:#5E70F2;}
	.st1{fill:#F490FE;}
	.st2{fill:#FFFFFF;}
</style>
<path class="st0" d="M107.1,122.9c-4.1-11.6-3.7-25,2.2-37.8c5.7-12.4,15.4-20.9,27.2-26c12.1-4.8,25.1-5.2,37.6,0.6
	c12,5.5,20.5,15.8,24,27.8c4.2,12.5,3.8,25.3-1.9,37.7c-5.9,12.7-15.6,21.9-27.5,26.1c-11.4,5.1-24.7,5.4-36.7-0.2
	C119.4,145.3,111.3,135.2,107.1,122.9z M129.1,94.3c-3.6,7.8-4.2,15.3-2.3,22.3c2.5,6.4,7.4,11.6,14.4,14.8c6.4,2.9,13.3,3.2,19.8,1
	c6.9-3,12.4-8.2,16-16c3.4-7.4,3.9-15.2,1.6-22.2c-2.7-6.1-7.2-11.7-13.5-14.6c-6.9-3.2-14.2-3-20.6-1.1
	C137.9,81.4,132.5,86.8,129.1,94.3L129.1,94.3z"/>
<path class="st0" d="M267.1,41.7c5.6,2.6,8.1,9.2,5.6,14.7l-49.4,107.2c-2.5,5.4-9.1,7.9-14.8,5.3c-5.4-2.5-7.9-9.1-5.4-14.6
	l49.4-107.2C255.1,41.6,261.7,39.2,267.1,41.7L267.1,41.7z"/>
<g>
	<circle class="st1" cx="108.8" cy="20" r="10.9"/>
	<path class="st0" d="M96.5,41.7c5.6,2.6,8.1,9.2,5.6,14.7L52.7,163.6c-2.5,5.4-9.2,7.9-14.8,5.3c-5.5-2.5-7.9-9.1-5.4-14.6
		L81.9,47.1C84.4,41.6,91,39.2,96.5,41.7L96.5,41.7z"/>
</g>
<g>
	<circle class="st1" cx="260.9" cy="159" r="10.9"/>
	<path class="st0" d="M320.4,56.6l-32.6,70.9c-2.5,5.5-8.7,7.9-14.3,5.3c-5.5-2.5-7.8-8.9-5.3-14.3l32.6-70.9c2.7-5.8,9-8,14.4-5.5
		S323.1,50.8,320.4,56.6L320.4,56.6z"/>
</g>
</svg>
