<?xml version="1.0" encoding="utf-8"?>
<!-- Generator: Adobe Illustrator 27.2.0, SVG Export Plug-In . SVG Version: 6.00 Build 0)  -->
<svg version="1.1" id="Layer_1" xmlns="http://www.w3.org/2000/svg" xmlns:xlink="http://www.w3.org/1999/xlink" x="0px" y="0px"
	 viewBox="0 0 962.3 238.1" style="enable-background:new 0 0 962.3 238.1;" xml:space="preserve">
<style type="text/css">
	.st0{fill:#1FD1F2;}
	.st1{fill:#FF78DF;}
</style>
<g>
	<path class="st0" d="M824,186.7H425.9c-34.6,0-62.8-28.2-62.8-62.8c0-16.7,6.4-32.5,18.2-44.3c11.9-11.9,27.7-18.5,44.5-18.5H824
		c34.6,0,62.8,28.2,62.8,62.8S858.6,186.7,824,186.7z M425.9,66.1c-15.5,0-30.1,6-41,17C374,94,368,108.5,368.1,123.9
		c0,31.9,25.9,57.8,57.8,57.8H824c31.9,0,57.8-25.9,57.8-57.8S855.9,66.1,824,66.1H425.9z"/>
</g>
<g>
	<path class="st0" d="M282.4,57.1c5.6,2.6,8,9.1,5.5,14.5L239,177.9c-2.5,5.4-9.1,7.8-14.6,5.3c-5.4-2.5-7.8-9.1-5.3-14.5L268,62.5
		C270.5,57.1,277,54.6,282.4,57.1z"/>
	<circle class="st1" cx="123.6" cy="35.6" r="10.8"/>
	<path class="st0" d="M113.4,57.1c5.6,2.6,8,9.1,5.5,14.5l-49,106.3c-2.5,5.4-9.1,7.8-14.6,5.3c-5.4-2.5-7.8-9.1-5.3-14.5L98.9,62.5
		C101.4,57.1,108,54.6,113.4,57.1z"/>
	<circle class="st1" cx="278.2" cy="173.3" r="10.8"/>
	<path class="st0" d="M288.7,151.9c-5.6-2.6-8-9.1-5.5-14.5l34.5-74.9c2.5-5.4,9.1-7.8,14.6-5.3c5.4,2.5,7.8,9.1,5.3,14.5
		l-34.5,74.9C300.7,151.9,294.1,154.3,288.7,151.9L288.7,151.9z"/>
	<path class="st0" d="M169.2,168.8c-26.8,0-48.6-21.8-48.6-48.6s21.8-48.6,48.6-48.6s48.6,21.8,48.6,48.6S196,168.8,169.2,168.8
		L169.2,168.8z M169.2,92.7c-15.1,0-27.4,12.3-27.4,27.4s12.3,27.4,27.4,27.4s27.4-12.3,27.4-27.4S184.3,92.7,169.2,92.7z"/>
</g>
<g>
	<path class="st1" d="M559.4,150.5h-7.3v-24.4h-28.9v24.4h-7.3V97h7.3v23.9h28.9V97h7.3V150.5z"/>
	<path class="st1" d="M622.2,123.8c0,4-0.6,7.7-1.9,11s-3.1,6.2-5.4,8.7c-2.3,2.4-5.1,4.3-8.4,5.6c-3.3,1.3-6.8,2-10.8,2
		s-7.5-0.7-10.8-2c-3.2-1.3-6-3.2-8.3-5.6s-4.1-5.3-5.4-8.7s-1.9-7-1.9-11c0-4,0.6-7.7,1.9-11c1.3-3.4,3.1-6.2,5.4-8.7
		c2.3-2.4,5.1-4.3,8.3-5.7c3.2-1.3,6.8-2,10.8-2s7.5,0.7,10.8,2c3.3,1.3,6,3.2,8.4,5.7c2.3,2.4,4.1,5.3,5.4,8.7
		C621.6,116.1,622.2,119.8,622.2,123.8z M614.8,123.8c0-3.3-0.4-6.2-1.3-8.9s-2.2-4.8-3.8-6.6c-1.6-1.8-3.6-3.2-6-4.2
		c-2.3-1-5-1.5-7.9-1.5c-2.9,0-5.5,0.5-7.8,1.5c-2.3,1-4.3,2.4-6,4.2c-1.7,1.8-2.9,4-3.8,6.6s-1.3,5.6-1.3,8.9s0.4,6.2,1.3,8.8
		s2.2,4.8,3.8,6.6c1.7,1.8,3.7,3.2,6,4.2c2.3,1,4.9,1.4,7.8,1.4c2.9,0,5.5-0.5,7.9-1.4c2.3-1,4.3-2.3,6-4.2c1.6-1.8,2.9-4,3.8-6.6
		S614.8,127.1,614.8,123.8z"/>
	<path class="st1" d="M659.4,133.1c0.3,0.7,0.5,1.3,0.8,2c0.2-0.7,0.5-1.4,0.8-2s0.6-1.3,0.9-1.9L680,98.2c0.3-0.6,0.7-0.9,1-1
		c0.3-0.1,0.8-0.2,1.5-0.2h5.3v53.6h-6.4v-39.4c0-0.5,0-1.1,0-1.7c0-0.6,0.1-1.2,0.1-1.8l-18.4,33.5c-0.6,1.1-1.5,1.7-2.6,1.7h-1
		c-1.1,0-2-0.6-2.6-1.7l-18.8-33.6c0.1,0.6,0.1,1.3,0.2,1.9c0,0.6,0.1,1.2,0.1,1.7v39.4h-6.4V97h5.3c0.6,0,1.1,0.1,1.5,0.2
		c0.3,0.1,0.7,0.5,1,1l18.5,33C658.9,131.8,659.2,132.4,659.4,133.1z"/>
	<path class="st1" d="M734,97v5.9h-25.7v17.8h20.8v5.7h-20.8v18.3H734v5.9h-33V97H734z"/>
</g>
</svg>
