<?xml version="1.0" encoding="utf-8"?>
<!-- Generator: Adobe Illustrator 27.2.0, SVG Export Plug-In . SVG Version: 6.00 Build 0)  -->
<svg version="1.1" xmlns="http://www.w3.org/2000/svg" xmlns:xlink="http://www.w3.org/1999/xlink" x="0px" y="0px"
	 viewBox="0 0 962.3 238.1" style="enable-background:new 0 0 962.3 238.1;" xml:space="preserve">
<style type="text/css">
	.st0{display:none;}
	.st1{display:inline;fill:#606060;}
	.st2{fill:#6680FF;}
	.st3{fill:#FB73FF;}
	.st4{fill:#6C9AFF;}
	.st5{fill:#FF76F5;}
	.st6{fill:#00CFE5;}
	.st7{fill:#FF6CB9;}
	.st8{fill:#FFFFFF;}
	.st9{font-family:'Lato-Medium';}
	.st10{font-size:74.12px;}
	.st11{fill:none;stroke:#FFFFFF;stroke-width:5;stroke-miterlimit:10;}
	.st12{fill:#1FD1F2;}
	.st13{fill:#FF78DF;}
	.st14{fill:#F381FE;}
</style>
<g id="Layer_2" class="st0">
	<rect y="-10.7" class="st1" width="962.3" height="283.9"/>
</g>
<g id="Layer_1">
	<g>
		<path class="st2" d="M539.3-118.4c-3.9-10.8-3.4-23.3,2.1-35.2c5.3-11.5,14.3-19.5,25.4-24.3c11.3-4.4,23.4-4.8,35.1,0.6
			c11.2,5.2,19.1,14.7,22.4,25.9c3.9,11.6,3.5,23.6-1.8,35.1c-5.5,11.9-14.5,20.4-25.6,24.4c-10.6,4.8-23,5-34.2-0.2
			C550.8-97.4,543.3-106.9,539.3-118.4L539.3-118.4z M559.8-145.1c-3.4,7.3-3.9,14.2-2.2,20.8c2.4,6,6.9,10.8,13.4,13.8
			c5.9,2.7,12.4,3,18.5,0.9c6.4-2.8,11.5-7.6,14.9-14.9c3.2-6.9,3.6-14.1,1.5-20.7c-2.5-5.7-6.7-10.9-12.6-13.6
			c-6.4-3-13.3-2.8-19.2-1.1C568-157.1,563-152,559.8-145.1L559.8-145.1z"/>
		<path class="st2" d="M688.6-194.1c5.2,2.4,7.5,8.6,5.2,13.7l-46.1,100c-2.3,5.1-8.5,7.4-13.8,5c-5.1-2.3-7.4-8.5-5-13.6l46.1-100
			C677.3-194.1,683.5-196.4,688.6-194.1L688.6-194.1z"/>
		<circle class="st3" cx="541" cy="-214.3" r="10.1"/>
		<path class="st2" d="M529.4-194.1c5.2,2.4,7.5,8.6,5.2,13.7l-46.1,100c-2.3,5.1-8.5,7.4-13.8,5c-5.1-2.3-7.4-8.5-5-13.6l46.1-100
			C518.2-194.1,524.4-196.4,529.4-194.1z"/>
		<circle class="st3" cx="682.8" cy="-84.7" r="10.1"/>
		<path class="st2" d="M738.2-180.2l-30.4,66.1c-2.3,5.1-8.1,7.4-13.4,4.9c-5.1-2.3-7.3-8.3-4.9-13.4l30.4-66.1
			c2.5-5.4,8.4-7.4,13.4-5.1S740.7-185.6,738.2-180.2L738.2-180.2z"/>
	</g>
	<rect x="7.8" y="-418.2" class="st4" width="151.4" height="151.4"/>
	<rect x="448.8" y="-418.2" class="st5" width="151.4" height="151.4"/>
	<g>
		<path class="st6" d="M191.6-236.5c-2.7-7.6-2.4-16.4,1.4-24.7c3.7-8.1,10.1-13.7,17.8-17c7.9-3.1,16.4-3.4,24.6,0.4
			c7.9,3.6,13.4,10.4,15.7,18.2c2.7,8.2,2.5,16.6-1.3,24.7c-3.8,8.3-10.2,14.3-18,17.1c-7.5,3.3-16.2,3.5-24-0.1
			C199.7-221.8,194.4-228.4,191.6-236.5z M206.1-255.3c-2.4,5.1-2.7,10-1.5,14.6c1.7,4.2,4.9,7.6,9.4,9.7c4.2,1.9,8.7,2.1,13,0.6
			c4.5-2,8.1-5.4,10.5-10.5c2.2-4.9,2.6-9.9,1.1-14.5c-1.8-4-4.7-7.7-8.9-9.6c-4.5-2.1-9.3-2-13.5-0.7
			C211.8-263.7,208.3-260.1,206.1-255.3z"/>
		<path class="st6" d="M296.5-289.7c3.7,1.7,5.3,6,3.6,9.6l-32.4,70.2c-1.6,3.6-6,5.2-9.7,3.5c-3.6-1.6-5.2-6-3.5-9.6l32.4-70.2
			C288.6-289.7,292.9-291.3,296.5-289.7z"/>
		<g>
			<circle class="st7" cx="192.8" cy="-303.9" r="7.1"/>
			<path class="st6" d="M184.7-289.7c3.7,1.7,5.3,6,3.6,9.6L156-209.8c-1.6,3.6-6,5.2-9.7,3.5c-3.6-1.6-5.2-6-3.5-9.6l32.4-70.2
				C176.8-289.7,181.1-291.3,184.7-289.7z"/>
		</g>
		<g>
			<circle class="st7" cx="292.4" cy="-212.8" r="7.1"/>
			<path class="st6" d="M331.4-280L310-233.5c-1.6,3.6-5.7,5.2-9.4,3.5c-3.6-1.6-5.1-5.8-3.5-9.4l21.4-46.4c1.8-3.8,5.9-5.2,9.4-3.6
				C331.7-287.8,333.2-283.8,331.4-280z"/>
		</g>
	</g>
	<path class="st6" d="M420.2-142.4c3.7,1.7,5.3,6,3.6,9.6l-32.4,70.2c-1.6,3.6-6,5.2-9.7,3.5c-3.6-1.6-5.2-6-3.5-9.6l32.4-70.2
		C412.3-142.4,416.7-144,420.2-142.4z"/>
	<circle class="st7" cx="315.2" cy="-156.6" r="7.1"/>
	<path class="st6" d="M308.4-142.4c3.7,1.7,5.3,6,3.6,9.6l-32.4,70.2c-1.6,3.6-6,5.2-9.7,3.5c-3.6-1.6-5.2-6-3.5-9.6l32.4-70.2
		C300.5-142.4,304.8-144,308.4-142.4z"/>
	<circle class="st7" cx="417.4" cy="-65.5" r="7.1"/>
	<path class="st6" d="M424.4-79.7c-3.7-1.7-5.3-6-3.6-9.6l22.8-49.5c1.6-3.6,6-5.2,9.7-3.5c3.6,1.6,5.2,6,3.5,9.6l-22.8,49.5
		C432.3-79.7,427.9-78.1,424.4-79.7z"/>
	<g>
		<path class="st6" d="M345.3-68.6c-17.7,0-32.1-14.4-32.1-32.1s14.4-32.1,32.1-32.1s32.1,14.4,32.1,32.1S363-68.6,345.3-68.6z
			 M345.3-118.9c-10,0-18.1,8.1-18.1,18.1s8.1,18.1,18.1,18.1s18.1-8.1,18.1-18.1S355.3-118.9,345.3-118.9z"/>
	</g>
	<g>
		<g>
			<text transform="matrix(1 0 0 1 427.55 150.0826)" class="st8 st9 st10">JOLI CHIEN</text>
			<path class="st11" d="M425.9,63.6H824c33.3,0,60.3,27,60.3,60.3v0c0,33.3-27,60.3-60.3,60.3H425.9c-33.3,0-60.3-27-60.3-60.3v0
				C365.5,90.6,392.5,63.6,425.9,63.6z"/>
		</g>
		<g>
			<path class="st12" d="M282.4,57.1c5.6,2.6,8,9.1,5.5,14.5L239,177.9c-2.5,5.4-9.1,7.8-14.6,5.3c-5.4-2.5-7.8-9.1-5.3-14.5
				L268,62.5C270.5,57.1,277,54.6,282.4,57.1z"/>
			<circle class="st13" cx="123.6" cy="35.6" r="10.8"/>
			<path class="st12" d="M113.4,57.1c5.6,2.6,8,9.1,5.5,14.5L69.9,177.9c-2.5,5.4-9.1,7.8-14.6,5.3c-5.4-2.5-7.8-9.1-5.3-14.5
				L98.9,62.5C101.4,57.1,108,54.6,113.4,57.1z"/>
			<circle class="st13" cx="278.2" cy="173.3" r="10.8"/>
			<path class="st12" d="M288.7,151.9c-5.6-2.6-8-9.1-5.5-14.5l34.5-74.9c2.5-5.4,9.1-7.8,14.6-5.3c5.4,2.5,7.8,9.1,5.3,14.5
				l-34.5,74.9C300.7,151.9,294.1,154.3,288.7,151.9z"/>
			<g>
				<path class="st12" d="M169.2,168.8c-26.8,0-48.6-21.8-48.6-48.6s21.8-48.6,48.6-48.6s48.6,21.8,48.6,48.6S196,168.8,169.2,168.8
					z M169.2,92.7c-15.1,0-27.4,12.3-27.4,27.4s12.3,27.4,27.4,27.4c15.1,0,27.4-12.3,27.4-27.4S184.3,92.7,169.2,92.7z"/>
			</g>
		</g>
	</g>
	<rect x="34.3" y="-194.6" class="st12" width="151.4" height="151.4"/>
	<circle class="st14" cx="341.6" cy="-369.8" r="58.8"/>
</g>
</svg>
