<?xml version="1.0" encoding="utf-8"?>
<!-- Generator: Adobe Illustrator 27.2.0, SVG Export Plug-In . SVG Version: 6.00 Build 0)  -->
<svg version="1.1" id="Layer_1" xmlns="http://www.w3.org/2000/svg" xmlns:xlink="http://www.w3.org/1999/xlink" x="0px" y="0px"
	 viewBox="0 0 962.3 238.1" style="enable-background:new 0 0 962.3 238.1;" xml:space="preserve">
<style type="text/css">
	.st0{fill:#FF78DF;}
	.st1{fill:#1FD1F2;}
	.st2{fill:#FFFFFF;}
</style>
<g>
	<g>
		<path class="st0" d="M453,131.6c0,3-0.4,5.6-1.1,8s-1.8,4.4-3.2,6c-1.4,1.6-3.2,2.9-5.3,3.8s-4.5,1.3-7.3,1.3c-2.5,0-5-0.3-7.6-1
			l0.4-4.7c0-0.4,0.2-0.8,0.5-1.1s0.7-0.4,1.3-0.4c0.4,0,1,0.1,1.7,0.3s1.7,0.3,2.9,0.3c1.6,0,3-0.2,4.2-0.7s2.3-1.2,3.1-2.2
			c0.8-1,1.5-2.3,1.9-3.8c0.4-1.6,0.6-3.4,0.6-5.6V96.9h7.9V131.6L453,131.6z"/>
		<path class="st0" d="M515.2,123.5c0,4-0.6,7.6-1.9,11c-1.3,3.3-3.1,6.2-5.4,8.6c-2.3,2.4-5.1,4.3-8.3,5.6c-3.2,1.3-6.8,2-10.8,2
			s-7.5-0.7-10.8-2c-3.2-1.3-6-3.2-8.3-5.6c-2.3-2.4-4.1-5.3-5.4-8.6s-1.9-7-1.9-11s0.6-7.6,1.9-10.9s3.1-6.2,5.4-8.6
			s5.1-4.3,8.3-5.6c3.2-1.3,6.8-2,10.8-2s7.5,0.7,10.8,2c3.2,1.3,6,3.2,8.3,5.6s4.1,5.3,5.4,8.6
			C514.5,115.9,515.2,119.5,515.2,123.5z M507.1,123.5c0-3.2-0.4-6-1.3-8.5s-2.1-4.7-3.7-6.4c-1.6-1.8-3.5-3.1-5.8-4
			s-4.8-1.4-7.6-1.4s-5.3,0.5-7.6,1.4c-2.3,0.9-4.2,2.3-5.8,4s-2.8,3.9-3.7,6.4c-0.9,2.5-1.3,5.4-1.3,8.5s0.4,6,1.3,8.5
			s2.1,4.6,3.7,6.4c1.6,1.8,3.5,3.1,5.8,4s4.8,1.4,7.6,1.4s5.3-0.5,7.6-1.4c2.3-0.9,4.2-2.3,5.8-4c1.6-1.8,2.8-3.9,3.7-6.4
			C506.6,129.5,507.1,126.7,507.1,123.5z"/>
		<path class="st0" d="M555.5,143.4v6.6H525V96.9h7.9v46.6h22.6V143.4z"/>
		<path class="st0" d="M571.2,150.1h-7.9V96.9h7.9V150.1z"/>
		<path class="st0" d="M640.2,138.7c0.4,0,0.8,0.2,1.1,0.5l3.1,3.4c-2.2,2.6-4.8,4.6-7.9,6c-3.1,1.4-6.9,2.1-11.3,2.1
			c-3.9,0-7.3-0.7-10.5-2c-3.1-1.3-5.8-3.2-8-5.6c-2.2-2.4-3.9-5.3-5.1-8.6c-1.2-3.3-1.8-7-1.8-11s0.6-7.7,1.9-11
			c1.3-3.3,3.1-6.2,5.4-8.6s5-4.3,8.2-5.6c3.2-1.3,6.7-2,10.6-2s7.1,0.6,10.1,1.9c2.9,1.2,5.5,2.9,7.7,4.9l-2.6,3.7
			c-0.2,0.3-0.4,0.5-0.6,0.7c-0.3,0.2-0.6,0.3-1,0.3c-0.5,0-1-0.2-1.6-0.7s-1.5-1-2.5-1.6s-2.3-1.1-3.8-1.6s-3.4-0.7-5.6-0.7
			c-2.6,0-5.1,0.5-7.3,1.4s-4.1,2.3-5.7,4c-1.6,1.7-2.8,3.9-3.7,6.4s-1.3,5.4-1.3,8.6s0.5,6.1,1.4,8.6s2.2,4.7,3.8,6.4
			c1.6,1.8,3.5,3.1,5.7,4s4.5,1.4,7,1.4c1.5,0,2.9-0.1,4.1-0.3c1.2-0.2,2.3-0.5,3.4-0.8c1-0.4,2-0.8,2.9-1.4
			c0.9-0.6,1.8-1.3,2.7-2.1c0.2-0.2,0.4-0.3,0.6-0.4S639.9,138.7,640.2,138.7L640.2,138.7z"/>
		<path class="st0" d="M696,96.9v53.2h-7.9v-24h-27.8v24h-7.9V96.9h7.9v23.5h27.8V96.9C688.1,96.9,696,96.9,696,96.9z"/>
		<path class="st0" d="M717.1,150.1h-7.9V96.9h7.9V150.1z"/>
		<path class="st0" d="M763.2,143.7v6.4h-33V96.9h33v6.4h-25.1v16.9h20.2v6.2h-20.2v17.3H763.2z"/>
		<path class="st0" d="M816.5,96.9v53.2h-4c-0.6,0-1.1-0.1-1.5-0.3s-0.8-0.6-1.2-1.1l-30.1-38.9c0,0.7,0.1,1.3,0.1,2
			c0,0.6,0.1,1.2,0.1,1.8v36.5H773V96.9h4.1c0.7,0,1.2,0.1,1.6,0.2c0.3,0.2,0.7,0.5,1.1,1.1l30.1,38.9c-0.1-0.7-0.1-1.4-0.2-2.1
			s-0.1-1.3-0.1-1.9V96.9L816.5,96.9L816.5,96.9z"/>
	</g>
	<path class="st1" d="M824,186.7H425.9c-34.6,0-62.8-28.2-62.8-62.8c0-16.7,6.4-32.5,18.2-44.3c11.9-11.9,27.7-18.5,44.5-18.5H824
		c34.6,0,62.8,28.2,62.8,62.8S858.6,186.7,824,186.7z M425.9,66.1c-15.5,0-30.1,6-41,17C374,94,368,108.5,368.1,123.9
		c0,31.9,25.9,57.8,57.8,57.8H824c31.9,0,57.8-25.9,57.8-57.8S855.9,66.1,824,66.1C824,66.1,425.9,66.1,425.9,66.1z"/>
</g>
<g>
	<path class="st2" d="M282.4,57.1c5.6,2.6,8,9.1,5.5,14.5L239,177.9c-2.5,5.4-9.1,7.8-14.6,5.3c-5.4-2.5-7.8-9.1-5.3-14.5L268,62.5
		C270.5,57.1,277,54.6,282.4,57.1z"/>
	<circle class="st2" cx="123.6" cy="35.6" r="10.8"/>
	<path class="st2" d="M113.4,57.1c5.6,2.6,8,9.1,5.5,14.5l-49,106.3c-2.5,5.4-9.1,7.8-14.6,5.3c-5.4-2.5-7.8-9.1-5.3-14.5L98.9,62.5
		C101.4,57.1,108,54.6,113.4,57.1z"/>
	<circle class="st2" cx="278.2" cy="173.3" r="10.8"/>
	<path class="st2" d="M288.7,151.9c-5.6-2.6-8-9.1-5.5-14.5l34.5-74.9c2.5-5.4,9.1-7.8,14.6-5.3c5.4,2.5,7.8,9.1,5.3,14.5
		l-34.5,74.9C300.7,151.9,294.1,154.3,288.7,151.9L288.7,151.9z"/>
	<path class="st2" d="M169.2,168.8c-26.8,0-48.6-21.8-48.6-48.6s21.8-48.6,48.6-48.6s48.6,21.8,48.6,48.6S196,168.8,169.2,168.8
		L169.2,168.8z M169.2,92.7c-15.1,0-27.4,12.3-27.4,27.4s12.3,27.4,27.4,27.4s27.4-12.3,27.4-27.4S184.3,92.7,169.2,92.7z"/>
</g>
</svg>
