<?xml version="1.0" encoding="UTF-8"?>
<svg id="Layer_1" data-name="Layer 1" xmlns="http://www.w3.org/2000/svg" viewBox="0 0 962.32 283.89">
  <defs>
    <style>
      .cls-1 {
        fill: #00cfe5;
      }

      .cls-2 {
        fill: #ff6cb9;
      }

      .cls-3 {
        fill: none;
        stroke: #fff;
        stroke-miterlimit: 10;
        stroke-width: 5px;
      }

      .cls-4 {
        fill: #fff;
        font-family: Lato-Medium, Lato;
        font-size: 74.12px;
        font-weight: 500;
      }
    </style>
  </defs>
  <g>
    <path class="cls-1" d="m116.75,162.18c-4.13-11.6-3.66-25.04,2.2-37.76,5.69-12.36,15.36-20.9,27.19-26.02,12.11-4.77,25.08-5.19,37.62.59,11.99,5.53,20.47,15.82,23.98,27.79,4.16,12.49,3.76,25.3-1.93,37.66-5.86,12.72-15.59,21.89-27.46,26.12-11.39,5.11-24.71,5.35-36.71-.17-12.54-5.78-20.65-15.9-24.89-28.21Zm22-28.63c-3.6,7.81-4.17,15.26-2.33,22.27,2.53,6.45,7.44,11.58,14.35,14.76,6.36,2.93,13.26,3.25,19.82.98,6.89-2.99,12.36-8.18,15.96-16,3.43-7.45,3.9-15.17,1.62-22.16-2.7-6.09-7.18-11.68-13.54-14.61-6.91-3.18-14.24-3.04-20.63-1.13-6.44,2.98-11.82,8.43-15.25,15.88Z"/>
    <path class="cls-1" d="m276.83,80.97c5.63,2.59,8.08,9.23,5.57,14.68l-49.4,107.21c-2.51,5.45-9.15,7.9-14.78,5.31-5.45-2.51-7.9-9.15-5.39-14.6l49.4-107.21c2.51-5.45,9.15-7.9,14.6-5.39Z"/>
    <g>
      <circle class="cls-2" cx="118.53" cy="59.29" r="10.88"/>
      <path class="cls-1" d="m106.16,80.97c5.63,2.59,8.08,9.23,5.57,14.68l-49.4,107.21c-2.51,5.45-9.15,7.9-14.78,5.31-5.45-2.51-7.9-9.15-5.39-14.6l49.4-107.21c2.51-5.45,9.15-7.9,14.6-5.39Z"/>
    </g>
    <g>
      <circle class="cls-2" cx="270.6" cy="198.29" r="10.88"/>
      <path class="cls-1" d="m330.09,95.85l-32.65,70.87c-2.51,5.45-8.7,7.89-14.33,5.29-5.45-2.51-7.8-8.88-5.29-14.33l32.65-70.87c2.68-5.81,8.97-7.99,14.42-5.47s7.89,8.7,5.21,14.52Z"/>
    </g>
  </g>
  <g>
    <text class="cls-4" transform="translate(428.55 169.76)"><tspan x="0" y="0">JOLI CHIEN</tspan></text>
    <rect class="cls-3" x="366.52" y="83.3" width="518.84" height="120.69" rx="60.34" ry="60.34"/>
  </g>
</svg>