<?xml version="1.0" encoding="UTF-8"?>
<svg id="Layer_1" data-name="Layer 1" xmlns="http://www.w3.org/2000/svg" viewBox="0 0 962.32 283.89">
  <defs>
    <style>
      .cls-1 {
        fill: #ff6cb9;
      }

      .cls-2 {
        fill: #49c2cf;
      }

      .cls-3 {
        fill: none;
        stroke: #fff;
        stroke-miterlimit: 10;
        stroke-width: 5px;
      }

      .cls-4 {
        fill: #fff;
        font-family: Lato-Medium, Lato;
        font-size: 74.12px;
        font-weight: 500;
      }
    </style>
  </defs>
  <g>
    <text class="cls-4" transform="translate(373.73 168.05)"><tspan x="0" y="0">JOLI CHIEN</tspan></text>
    <rect class="cls-3" x="311.7" y="81.6" width="518.84" height="120.69" rx="60.34" ry="60.34"/>
  </g>
  <g>
    <path class="cls-2" d="m170.37,215.02c-6.1-.62-12.05-1.99-17.76-4.08-3.52-1.29-7.44.28-9.04,3.67h0c-1.83,3.88.11,8.43,4.13,9.9,7.19,2.63,14.69,4.3,22.39,4.98,20.36,1.8,40.79-3.56,57.53-15.1h0c3.71-2.56,4.19-7.86,1.01-11.04l-112.06-112.06c-3.19-3.19-8.49-2.7-11.04,1.01h0c-16.18,23.48-19.81,53.5-10.08,80.05,1.45,3.96,6.03,5.8,9.85,3.99h0c3.39-1.6,4.96-5.52,3.67-9.04-7.1-19.42-5.65-41.06,3.9-59.29l57.06,57.06.44,49.96Zm14.42.05l-.3-35.45,27.42,27.42c-8.42,4.41-17.65,7.13-27.12,8.03Z"/>
    <path class="cls-2" d="m185.57,68.87c6.1.62,12.05,1.99,17.76,4.08,3.52,1.29,7.44-.28,9.04-3.67h0c1.83-3.88-.11-8.43-4.13-9.9-7.19-2.63-14.69-4.3-22.39-4.98-20.36-1.8-40.79,3.56-57.53,15.1h0c-3.71,2.56-4.19,7.86-1.01,11.04l112.06,112.06c3.19,3.19,8.49,2.7,11.04-1.01h0c16.18-23.48,19.81-53.5,10.08-80.05-1.45-3.96-6.03-5.8-9.85-3.99h0c-3.39,1.6-4.96,5.52-3.67,9.04,7.1,19.42,5.65,41.06-3.9,59.29l-57.06-57.06-.44-49.96Zm-14.42-.05l.3,35.45-27.42-27.42c8.42-4.41,17.65-7.13,27.12-8.03Z"/>
    <circle class="cls-1" cx="120.76" cy="201.18" r="7.88"/>
    <circle class="cls-1" cx="234.15" cy="86.55" r="7.88"/>
  </g>
</svg>