<?xml version="1.0" encoding="utf-8"?>
<!-- Generator: Adobe Illustrator 27.2.0, SVG Export Plug-In . SVG Version: 6.00 Build 0)  -->
<svg version="1.1" id="Layer_1" xmlns="http://www.w3.org/2000/svg" xmlns:xlink="http://www.w3.org/1999/xlink" x="0px" y="0px"
	 viewBox="0 0 962.3 283.9" style="enable-background:new 0 0 962.3 283.9;" xml:space="preserve">
<style type="text/css">
	.st0{fill:#6680FF;}
	.st1{fill:#FB73FF;}
	.st2{fill:#FFFFFF;}
	.st3{font-family:'Lato-Medium';}
	.st4{font-size:74.12px;}
	.st5{fill:none;stroke:#FFFFFF;stroke-width:5;stroke-miterlimit:10;}
</style>
<path class="st0" d="M116.8,162.2c-4.1-11.6-3.7-25,2.2-37.8c5.7-12.4,15.4-20.9,27.2-26c12.1-4.8,25.1-5.2,37.6,0.6
	c12,5.5,20.5,15.8,24,27.8c4.2,12.5,3.8,25.3-1.9,37.7c-5.9,12.7-15.6,21.9-27.5,26.1c-11.4,5.1-24.7,5.4-36.7-0.2
	C129.1,184.6,121,174.5,116.8,162.2L116.8,162.2z M138.8,133.5c-3.6,7.8-4.2,15.3-2.3,22.3c2.5,6.4,7.4,11.6,14.4,14.8
	c6.4,2.9,13.3,3.2,19.8,1c6.9-3,12.4-8.2,16-16c3.4-7.4,3.9-15.2,1.6-22.2c-2.7-6.1-7.2-11.7-13.5-14.6c-6.9-3.2-14.2-3-20.6-1.1
	C147.6,120.6,142.2,126.1,138.8,133.5L138.8,133.5z"/>
<path class="st0" d="M276.8,81c5.6,2.6,8.1,9.2,5.6,14.7L233,202.9c-2.5,5.4-9.1,7.9-14.8,5.3c-5.4-2.5-7.9-9.1-5.4-14.6l49.4-107.2
	C264.7,80.9,271.4,78.5,276.8,81L276.8,81z"/>
<g>
	<circle class="st1" cx="118.5" cy="59.3" r="10.9"/>
	<path class="st0" d="M106.2,81c5.6,2.6,8.1,9.2,5.6,14.7L62.3,202.9c-2.5,5.4-9.2,7.9-14.8,5.3c-5.5-2.5-7.9-9.1-5.4-14.6
		L91.6,86.4C94.1,80.9,100.7,78.5,106.2,81z"/>
</g>
<g>
	<circle class="st1" cx="270.6" cy="198.3" r="10.9"/>
	<path class="st0" d="M330.1,95.8l-32.6,70.9c-2.5,5.4-8.7,7.9-14.3,5.3c-5.5-2.5-7.8-8.9-5.3-14.3l32.6-70.9c2.7-5.8,9-8,14.4-5.5
		S332.8,90,330.1,95.8L330.1,95.8z"/>
</g>
<g>
	<text transform="matrix(1 0 0 1 428.55 169.76)" class="st2 st3 st4">JOLI CHIEN</text>
	<path class="st5" d="M426.9,83.3H825c33.3,0,60.3,27,60.3,60.3l0,0c0,33.3-27,60.3-60.3,60.3H426.9c-33.3,0-60.3-27-60.3-60.3l0,0
		C366.5,110.3,393.5,83.3,426.9,83.3z"/>
</g>
</svg>
