<svg id="Layer_1" data-name="Layer 1" xmlns="http://www.w3.org/2000/svg" viewBox="0 0 326.73 70.03"><defs><style>.cls-1{font-size:45px;fill:#fff;font-family:Avenir-Light, Avenir;font-weight:300;}.cls-2{letter-spacing:0.09em;}.cls-3{fill:#49c2cf;}</style></defs><text class="cls-1" transform="translate(65.03 51.06)">JOLI<tspan class="cls-2" x="93.42" y="0"> </tspan><tspan x="109.08" y="0">CHIEN</tspan></text><path class="cls-3" d="M31.23,53.08a18.5,18.5,0,0,1-6.06-1.69L23.6,54.71a22.4,22.4,0,0,0,22.18-1.79l1.81-1.25L16,20.08l-1.25,1.81A22.38,22.38,0,0,0,13,44.07l3.32-1.57a18.71,18.71,0,0,1,.34-16.62l14.5,14.5Zm3.66,0-.07-9,7,7A18.73,18.73,0,0,1,34.89,53.09Z"/><path class="cls-3" d="M35.09,15.94a18.5,18.5,0,0,1,6.06,1.69l1.57-3.32A22.4,22.4,0,0,0,20.54,16.1l-1.81,1.25L50.32,48.94l1.25-1.81A22.38,22.38,0,0,0,53.36,25L50,26.52a18.71,18.71,0,0,1-.34,16.62L35.2,28.64Zm-3.66,0,.07,9-7-7A18.73,18.73,0,0,1,31.43,15.93Z"/><circle class="cls-3" cx="18.68" cy="48.99" r="1.8"/><circle class="cls-3" cx="47.64" cy="20.03" r="1.8"/></svg>