<?xml version="1.0" encoding="utf-8"?>
<!-- Generator: Adobe Illustrator 21.0.0, SVG Export Plug-In . SVG Version: 6.00 Build 0)  -->
<svg version="1.1" id="Layer_1" xmlns="http://www.w3.org/2000/svg" xmlns:xlink="http://www.w3.org/1999/xlink" x="0px" y="0px"
	 viewBox="0 0 221.5 154.2" style="enable-background:new 0 0 221.5 154.2;" xml:space="preserve">
<style type="text/css">
	.st0{fill:#DAECED;}
	.st1{fill:#49C3D0;}
	.st2{fill:#F06294;}
	.st3{enable-background:new    ;}
	.st4{fill:#F06194;}
	.st5{fill:none;stroke:#F06194;stroke-width:2;stroke-miterlimit:10;}
</style>
<title>title</title>
<path class="st0" d="M5.9,148.7C198.5,166.4,210.7,29.4,158.4,0C288.9,31.5,206.9,184.8,5.9,148.7z"/>
<path class="st1" d="M121,71.1c2.3-1.3,5.1-1.6,7.7-1c4.5,1.1,7.7,5.2,7.7,9.9c0,3.6,0,7.1,0,10.7c0,1.8-0.9,2.8-2.6,2.8
	c-1.4,0.1-2.6-1-2.7-2.4c0-0.2,0-0.3,0-0.5c0-3.4,0-6.8,0-10.2c0.2-2.8-1.9-5.2-4.7-5.4s-5.2,1.9-5.4,4.7c0,0.2,0,0.4,0,0.6
	c0,3.4,0,6.9,0,10.3c0.1,1.5-1.1,2.7-2.5,2.7c-0.9,0-1.8-0.4-2.3-1.3c-0.2-0.5-0.4-1-0.4-1.5c0-9.2,0-18.5,0-27.7
	c-0.1-1.4,1-2.6,2.4-2.7c0.1,0,0.1,0,0.2,0c1.4,0,2.6,1.1,2.7,2.5c0,0,0,0.1,0,0.1C121.1,65.7,121,68.3,121,71.1z"/>
<path class="st1" d="M162.1,83.3c0,2.1,2.2,4.5,5,5.1c2.1,0.5,4.3,0.1,6-1.2c1.1-0.9,2.7-0.8,3.6,0.3c0.1,0.1,0.1,0.2,0.2,0.3
	c0.6,1,0.3,2.4-0.7,3c0,0,0,0,0,0c-5.6,4.8-16.4,3.8-19.3-5.8c-1.8-6.2,1.7-12.8,8-14.6c0.2-0.1,0.5-0.1,0.7-0.2
	c6.1-1.4,12.2,2.5,13.5,8.6c0.1,0.6,0.2,1.3,0.3,1.9c0.1,1.9-0.7,2.8-2.6,2.8L162.1,83.3L162.1,83.3z M161.9,79.2h12.9
	c-0.6-2.6-4-4.9-7.2-4.8S161.9,77.3,161.9,79.2z"/>
<path class="st1" d="M38,81.8c0,6.5-5.1,11.9-11.3,11.9c-6.6-0.3-11.7-5.9-11.4-12.4c0.3-6.2,5.3-11.1,11.5-11.4
	C33,69.9,38,75.2,38,81.8z M26.7,88.4c3.6,0,6.2-2.8,6.2-6.7c0.2-3.5-2.5-6.5-6.1-6.7c-0.1,0-0.1,0-0.2,0c-3.7,0-6.1,2.7-6.1,6.7
	S23,88.4,26.7,88.4z"/>
<path class="st1" d="M191.4,71.2c4.7-2.8,10.8-1.2,13.6,3.6c0.5,0.8,0.8,1.7,1.1,2.6c0.2,0.9,0.3,1.7,0.3,2.6c0,3.5,0,7,0,10.6
	c0,1.6-0.8,2.7-2,2.9c-1.4,0.3-2.8-0.5-3.1-1.9c-0.1-0.3-0.1-0.6-0.1-0.9c0-3.7,0-7.3,0-11c0-2.6-2.2-4.8-4.9-4.7
	c-0.5,0-1,0.1-1.5,0.3c-1.9,0.6-3.1,2.4-3.1,4.4c0,3.6,0,7.2,0,10.8c0,1.9-1.1,3.1-2.7,3.1c-1.3,0.1-2.4-0.9-2.5-2.2
	c0-0.1,0-0.1,0-0.2c0-6.3,0-12.6,0-18.8c-0.1-1,0.5-1.9,1.4-2.2c0.9-0.1,1.8,0,2.7,0.2C190.9,70.4,191.1,70.9,191.4,71.2z"/>
<path class="st1" d="M99.3,69.8c2.5,0,5,0.8,7,2.2c1.3,0.7,1.8,2.4,1.1,3.7c0,0,0,0.1-0.1,0.1c-0.8,1.2-2.4,1.4-3.8,0.4
	c-4.3-2.8-9.6-1.1-10.9,3.6c-0.8,2.4,0,4.9,1.9,6.5c1.9,1.9,4.7,2.5,7.2,1.5c0.7-0.3,1.4-0.7,2.1-1.1c1.2-0.7,2.7-0.5,3.6,0.6
	c0.8,1.2,0.5,2.8-0.6,3.6c-3.7,2.6-7.8,3.3-12,1.5c-4-1.5-6.9-5.1-7.3-9.3c-0.9-6.5,3.6-12.5,10.1-13.4C98,69.9,98.6,69.8,99.3,69.8
	z"/>
<path class="st1" d="M51.6,77c0,4.5,0,8.9,0,13.4c0,1.9-1,3-2.6,3.1s-2.8-1.1-2.8-3c0-3.9,0-7.8,0-11.8c0-5.1,0-10.2,0-15.2
	c0-2.3,1.9-3.8,3.8-2.9c1.1,0.5,1.8,1.8,1.6,3C51.6,68.1,51.6,72.5,51.6,77z"/>
<path class="st1" d="M7.7,84.8c0,4,0,8,0,12c0,2.8-2.1,5-4.9,5.1c-0.1,0-0.3,0-0.4,0c-1.1,0-2.1-0.8-2.3-1.8
	c-0.3-1.4,0.2-2.8,1.4-3.1c1-0.3,1-0.8,1-1.6c0-7.5,0-15,0-22.5c0-2.2,1.8-3.6,3.6-2.8c1,0.4,1.7,1.5,1.6,2.6
	C7.7,76.6,7.7,80.7,7.7,84.8z"/>
<path class="st1" d="M64.7,81.8c0,3.1,0,6.2,0,9.2c0,1.3-1.9,2.4-1.9,2.4s-2.5-0.2-3-1.4c-0.2-0.4-0.3-0.9-0.3-1.4c0-6,0-12,0-18
	c0-1.9,1-2.8,2.7-2.8c1.7,0,2.5,1,2.5,2.9C64.7,75.8,64.7,78.8,64.7,81.8L64.7,81.8z"/>
<path class="st1" d="M145.2,81.7c0-3,0-5.9,0-8.9c0-1.8,0.9-2.8,2.4-2.9s2.7,0.9,2.7,2.8c0,6,0,12,0,18.1c0.2,1.3-0.8,2.5-2.1,2.7
	c-0.2,0-0.4,0-0.5,0c-1.6,0-2.5-1-2.5-2.8C145.2,87.7,145.2,84.7,145.2,81.7z"/>
<path class="st2" d="M7.8,63.5c0,1.9-1,3.1-2.6,3.1s-2.7-1.2-2.7-3.1c-0.2-1.5,0.9-2.9,2.5-3.1c0.1,0,0.1,0,0.2,0
	C6.8,60.3,7.8,61.5,7.8,63.5z"/>
<path class="st2" d="M150.4,63.5c0,2.1-1.1,3.3-3,3.1c-1,0-1.8-0.7-2-1.6c-0.3-1.3-0.5-2.6,0.5-3.7c0.7-0.8,1.8-1,2.7-0.7
	C149.8,60.9,150.4,61.9,150.4,63.5z"/>
<path class="st2" d="M59.5,63.4c0-2.2,1.6-3.5,3.5-2.8c1.5,0.5,2.1,2.1,1.6,4.1c-0.3,1.3-1.6,2.1-2.9,1.9
	C60.3,66.4,59.5,65.3,59.5,63.4z"/>
<g class="st3">
	<path class="st4" d="M58.2,122.6h-2v3.5c0,0.5-0.4,0.9-0.9,0.9c-0.5,0-0.9-0.4-0.9-0.9v-9.4c0-0.5,0.4-0.9,0.9-0.9h0h2.8
		c1.9,0,3.4,1.5,3.4,3.4C61.7,121.1,60.2,122.6,58.2,122.6z M56.3,120.9h2c0.9,0,1.6-0.7,1.7-1.6c0-0.9-0.7-1.7-1.7-1.7h-2V120.9z"
		/>
	<path class="st4" d="M72.7,117.2c1,1.1,1.6,2.5,1.6,4c0,1.6-0.6,3-1.6,4c-0.9,1-2.4,1.7-3.8,1.7c-1.5,0-2.9-0.7-3.9-1.7
		c-1-1-1.6-2.5-1.6-4c0-1.6,0.6-3,1.6-4c1-1.1,2.4-1.7,3.9-1.7C70.3,115.5,71.7,116.1,72.7,117.2z M72.5,121.2
		c0-1.1-0.4-2.1-1.1-2.8c-0.7-0.7-1.6-1.1-2.5-1.1c-1,0-1.9,0.4-2.6,1.1c-0.7,0.7-1.1,1.7-1.1,2.8c0,1.1,0.4,2.1,1.1,2.8
		c0.7,0.7,1.6,1.2,2.6,1.2c1,0,1.9-0.4,2.5-1.2C72,123.3,72.5,122.3,72.5,121.2z"/>
</g>
<g class="st3">
	<path class="st4" d="M84.8,125.7c0.2,0.5-0.1,1-0.6,1.1c-0.1,0-0.2,0-0.4,0c0,0,0,0,0,0c-0.2,0-0.4,0-0.6-0.2
		c-0.2-0.1-0.4-0.3-0.5-0.6c-0.2-0.5-0.3-1-0.3-1.9c0-0.3-0.1-0.5-0.2-0.7c-0.1-0.2-0.3-0.3-0.5-0.5c-0.3-0.2-0.8-0.4-0.9-0.4H79
		v3.5c0,0.5-0.4,0.9-0.9,0.9c-0.5,0-0.9-0.4-0.9-0.9v-9.4c0-0.5,0.4-0.9,0.9-0.9c0,0,0,0,0,0H81c1.9,0,3.4,1.5,3.4,3.4
		c0,1.1-0.5,2-1.2,2.6c0.2,0.2,0.4,0.4,0.6,0.6c0.3,0.5,0.5,1.1,0.5,1.7c0,0.5,0,0.8,0.1,0.9C84.5,125.2,84.7,125.4,84.8,125.7z
		 M82.6,119.2c0-0.9-0.7-1.7-1.6-1.7h-2v3.3h2C81.9,120.9,82.6,120.1,82.6,119.2z"/>
</g>
<g class="st3">
	<path class="st4" d="M94,117.6h-2.5v8.5c0,0.5-0.4,0.9-0.9,0.9c-0.5,0-0.9-0.4-0.9-0.9v-8.5h-2.5c-0.5,0-0.9-0.4-0.9-0.9
		c0-0.5,0.4-0.9,0.9-0.9H94c0.5,0,0.9,0.4,0.9,0.9C94.8,117.1,94.4,117.6,94,117.6z"/>
</g>
<g class="st3">
	<path class="st4" d="M97.5,126.1v-9.4c0-0.5,0.4-0.9,0.9-0.9h0c0,0,0,0,0,0h5.2c0.5,0,0.9,0.4,0.9,0.9c0,0.5-0.4,0.9-0.9,0.9h-4.3
		v2.9h3.7c0.5,0,0.9,0.4,0.9,0.9c0,0.5-0.4,0.9-0.9,0.9h-3.7v3.8c0,0.5-0.4,0.9-0.9,0.9S97.5,126.6,97.5,126.1z"/>
</g>
<g class="st3">
	<path class="st4" d="M115.7,117.2c1,1.1,1.6,2.5,1.6,4c0,1.6-0.6,3-1.6,4c-0.9,1-2.4,1.7-3.8,1.7c-1.5,0-2.9-0.7-3.9-1.7
		c-1-1-1.6-2.5-1.6-4c0-1.6,0.6-3,1.6-4c1-1.1,2.4-1.7,3.9-1.7C113.3,115.5,114.7,116.1,115.7,117.2z M115.5,121.2
		c0-1.1-0.4-2.1-1.1-2.8c-0.7-0.7-1.6-1.1-2.5-1.1c-1,0-1.9,0.4-2.6,1.1c-0.7,0.7-1.1,1.7-1.1,2.8c0,1.1,0.4,2.1,1.1,2.8
		c0.7,0.7,1.6,1.2,2.6,1.2c1,0,1.9-0.4,2.5-1.2C115,123.3,115.5,122.3,115.5,121.2z"/>
</g>
<g class="st3">
	<path class="st4" d="M120.4,126.1v-9.4c0-0.5,0.4-0.9,0.9-0.9s0.9,0.4,0.9,0.9v8.5h4.3c0.5,0,0.9,0.4,0.9,0.9
		c0,0.5-0.4,0.9-0.9,0.9h-5.2c0,0,0,0,0,0c0,0,0,0,0,0C120.7,127,120.4,126.6,120.4,126.1z"/>
</g>
<g class="st3">
	<path class="st4" d="M129.6,116.7c0-0.5,0.4-0.9,0.9-0.9c0.5,0,0.9,0.4,0.9,0.9v9.4c0,0.5-0.4,0.9-0.9,0.9c-0.5,0-0.9-0.4-0.9-0.9
		V116.7z"/>
	<path class="st4" d="M143.2,117.2c1,1.1,1.6,2.5,1.6,4c0,1.6-0.6,3-1.6,4c-0.9,1-2.4,1.7-3.8,1.7c-1.5,0-2.9-0.7-3.9-1.7
		c-1-1-1.6-2.5-1.6-4c0-1.6,0.6-3,1.6-4c1-1.1,2.4-1.7,3.9-1.7C140.8,115.5,142.2,116.1,143.2,117.2z M143,121.2
		c0-1.1-0.4-2.1-1.1-2.8c-0.7-0.7-1.6-1.1-2.5-1.1c-1,0-1.9,0.4-2.6,1.1c-0.7,0.7-1.1,1.7-1.1,2.8c0,1.1,0.4,2.1,1.1,2.8
		c0.7,0.7,1.6,1.2,2.6,1.2c1,0,1.9-0.4,2.5-1.2C142.5,123.3,143,122.3,143,121.2z"/>
</g>
<rect x="47.6" y="109" class="st5" width="103.9" height="25.3"/>
</svg>
