<svg id="Layer_1" data-name="Layer 1" xmlns="http://www.w3.org/2000/svg" xmlns:xlink="http://www.w3.org/1999/xlink" viewBox="0 0 280.87 327.89"><defs><style>.cls-1{fill:url(#linear-gradient);}.cls-2{fill:#b6bfce;}.cls-3{fill:#fff;}.cls-3,.cls-5{stroke:#2e607f;stroke-width:7px;}.cls-3,.cls-5,.cls-8{stroke-miterlimit:10;}.cls-4{fill:#cfd8e5;}.cls-5,.cls-8{fill:none;}.cls-6{fill:#3d4b60;}.cls-7{fill:#52617c;}.cls-8{stroke:#e89a85;stroke-linecap:round;stroke-width:6px;}.cls-9{fill:#f2bdaf;}.cls-10{fill:#d8b4ad;}.cls-11{fill:#334156;}</style><linearGradient id="linear-gradient" x1="198.67" y1="316.4" x2="198.67" y2="27.6" gradientTransform="matrix(-1, 0, 0, 1, 339.12, 0)" gradientUnits="userSpaceOnUse"><stop offset="0.28" stop-color="#ffe7cc"/><stop offset="0.47" stop-color="#bba9a6"/><stop offset="0.65" stop-color="#847686"/><stop offset="0.81" stop-color="#5c516f"/><stop offset="0.93" stop-color="#433a61"/><stop offset="1" stop-color="#3a325c"/></linearGradient></defs><title>face</title><path class="cls-1" d="M140.44,27.6c80.11-.1,127,73.85,113.48,158.56,15.34-3.16,21.51,11.39,21.51,23.34,0,13-9,23.54-20.19,23.54-.46,0-.91,0-1.37-.06a122.35,122.35,0,0,1-5.52,18.31c-15.82,40.42-52.1,59.47-107.91,65.11-55.8-5.64-92.08-24.69-107.9-65.11A122.35,122.35,0,0,1,27,233c-.46,0-.91.06-1.37.06C14.49,233,5.46,222.5,5.46,209.5c0-11.95,8.13-30.66,21.51-23.34C13.9,97.18,60.34,27.5,140.44,27.6"/><rect class="cls-2" x="53.87" y="178.51" width="67.06" height="55.09" rx="12"/><rect class="cls-2" x="160.38" y="178.51" width="67.06" height="55.09" rx="12"/><line class="cls-3" x1="120.93" y1="201.05" x2="160.38" y2="201.05"/><line class="cls-3" x1="227.79" y1="199.05" x2="255.68" y2="171.16"/><line class="cls-3" x1="53.45" y1="199.05" x2="25.55" y2="171.16"/><path class="cls-4" d="M111.31,178.84a12.42,12.42,0,0,0-2.81-.33H94.77l-40.9,40.9v1.75A12.46,12.46,0,0,0,66.3,233.59h4.35l47.71-47.7Z"/><rect class="cls-5" x="53.87" y="178.51" width="67.06" height="55.09" rx="12"/><path class="cls-4" d="M217.82,178.84a12.42,12.42,0,0,0-2.81-.33H201.28l-40.9,40.9v1.75a12.46,12.46,0,0,0,12.43,12.43h4.35l47.71-47.7Z"/><rect class="cls-5" x="160.38" y="178.51" width="67.06" height="55.09" rx="12"/><path class="cls-6" d="M47.51,152l-16,50.9s-21-28.12-13.53-55.17"/><path class="cls-6" d="M233.38,152l16,50.9s21-28.12,13.53-55.17"/><path class="cls-7" d="M2.54,160.63H98.17l10.73-40.71,10.4,40.71H191l5.88-23.44,7.26,23.44h74.23C273.67,75.73,237.65,5.82,140.44,27,49.55,9.16,7.2,74.69,2.54,160.63Z"/><path class="cls-8" d="M159.5,273.51c-4.81-6.09-11.58-9.89-19.09-9.89h.07c-7.51,0-14.28,3.8-19.09,9.89"/><path class="cls-9" d="M136.36,226.13l-4.54,11.49a4.39,4.39,0,0,0,4.09,6H145a4.39,4.39,0,0,0,4.09-6l-4.54-11.49A4.39,4.39,0,0,0,136.36,226.13Z"/><path class="cls-10" d="M27.84,218V200.77A2.59,2.59,0,0,0,25,198.18c-6.89.72-14.36,11.56-1.39,21.85A2.59,2.59,0,0,0,27.84,218Z"/><path class="cls-10" d="M252.78,218V200.77a2.59,2.59,0,0,1,2.83-2.59C262.5,198.9,270,209.74,257,220A2.59,2.59,0,0,1,252.78,218Z"/><path class="cls-11" d="M56.36,157.2l45.38,12.24a4.25,4.25,0,0,0,4.55-6.6C101.76,156.51,89.47,150.09,56.36,157.2Z"/><path class="cls-11" d="M220.67,157.2l-45.39,12.24a4.25,4.25,0,0,1-4.54-6.6C175.27,156.51,187.56,150.09,220.67,157.2Z"/></svg>