<svg id="Layer_1" data-name="Layer 1" xmlns="http://www.w3.org/2000/svg" xmlns:xlink="http://www.w3.org/1999/xlink" viewBox="0 0 272.89 324.07"><defs><style>.cls-1{fill:url(#linear-gradient);}.cls-2{fill:url(#linear-gradient-2);}.cls-3,.cls-5{fill:none;stroke-linecap:round;stroke-miterlimit:10;}.cls-3{stroke:#914951;stroke-width:6px;}.cls-4{fill:#885329;}.cls-5{stroke:#2c3d36;stroke-width:5px;}.cls-6{fill:#2c3d36;}.cls-7{fill:#ffd836;}.cls-8{fill:#efce43;}.cls-9{fill:#fff17e;}.cls-10{fill:#fff;}</style><linearGradient id="linear-gradient" x1="136.01" y1="312.02" x2="136.01" y2="312.02" gradientUnits="userSpaceOnUse"><stop offset="0.28" stop-color="#a7824c"/><stop offset="0.43" stop-color="#836851"/><stop offset="0.58" stop-color="#645056"/><stop offset="0.73" stop-color="#4d4059"/><stop offset="0.88" stop-color="#3f355b"/><stop offset="1" stop-color="#3a325c"/></linearGradient><linearGradient id="linear-gradient-2" x1="263.65" y1="312.9" x2="263.65" y2="49.37" gradientTransform="translate(-127.59)" xlink:href="#linear-gradient"/></defs><title>DES157_Final_Graphics</title><path class="cls-1" d="M136.05,312h0Z"/><path class="cls-2" d="M134.39,49.37C210.67,49.48,245,93.18,244,184.68c8.08-7.94,20.6,3.66,18.2,27.2-2.87,29.13-20.76,26.74-22.72,25.7-3.81,20.23-2,39.32-13.95,50.36-26.33,24.35-75,25.17-89.39,24.93H136c-14.4.24-63.06-.58-89.39-24.93-11.94-11-10.15-30.13-14-50.36-2,1-19.85,3.43-22.72-25.7-2.4-23.54,10.12-35.14,18.2-27.2C27.08,93.18,58.12,49.26,134.39,49.37Z"/><path class="cls-3" d="M157.05,274.21c-4.87-6.18-11.74-10-19.34-10h.06c-7.61,0-14.47,3.84-19.35,10"/><path class="cls-4" d="M129.64,221.84l-5.51,14a6.89,6.89,0,0,0,6.41,9.42h11A6.89,6.89,0,0,0,148,235.8l-5.51-14A6.9,6.9,0,0,0,129.64,221.84Z"/><path class="cls-5" d="M207.37,193.4c-5.67-7.83-13.65-12.7-22.49-12.7H185c-8.84,0-16.83,4.87-22.5,12.7"/><ellipse class="cls-6" cx="184.2" cy="191.68" rx="10.58" ry="11.53"/><path class="cls-5" d="M64.74,193.4c5.67-7.83,13.65-12.7,22.49-12.7h-.07c8.84,0,16.83,4.87,22.5,12.7"/><ellipse class="cls-6" cx="87.91" cy="191.68" rx="10.58" ry="11.53"/><path class="cls-7" d="M112.85,173.51c-4.82-1.81-9.08-3.53-13.33-5.07s-8.35-2.88-12.5-4c-2.07-.55-4.16-1-6.27-1.51s-4.25-.8-6.45-1.18c-4.4-.7-9-1.08-14.09-1.8a29.12,29.12,0,0,1,14-6.06A37.23,37.23,0,0,1,82,153.5a38.92,38.92,0,0,1,21.43,8.13,34.85,34.85,0,0,1,5.48,5.31A23.84,23.84,0,0,1,112.85,173.51Z"/><path class="cls-7" d="M159.26,173.51a23.6,23.6,0,0,1,4-6.57,34.85,34.85,0,0,1,5.48-5.31,38.92,38.92,0,0,1,21.43-8.13,37.23,37.23,0,0,1,7.76.36,29.16,29.16,0,0,1,14,6.06c-5.15.72-9.7,1.1-14.09,1.8-2.2.38-4.34.73-6.45,1.18s-4.2,1-6.27,1.51c-4.15,1.15-8.28,2.47-12.5,4S164.08,171.7,159.26,173.51Z"/><path class="cls-4" d="M242,220.74V198.35c0-2,1.32-3.57,2.84-3.36,6.89.92,14.36,15,1.39,28.37C244.55,225.12,242,223.57,242,220.74Z"/><path class="cls-4" d="M31.5,220.74V198.35c0-2-1.32-3.57-2.84-3.36-6.88.92-14.35,15-1.39,28.37C29,225.12,31.5,223.57,31.5,220.74Z"/><path class="cls-8" d="M58.69,136.49s-17,10.54-31.34,73c0,0-15.66-48.17,0-83.55"/><path class="cls-9" d="M41.61,37c-52.5,32.56-68.46,156.11,155.51,92.88,26.75,0,39.71,40.67,48,76,22.57-71.86-4.49-183.65-108.24-172.57C94.34,39.11,34,71.24,41.61,37Z"/><circle class="cls-10" cx="77.27" cy="189.68" r="2.85"/><circle class="cls-10" cx="173.62" cy="189.68" r="2.85"/></svg>