<svg id="Layer_1" data-name="Layer 1" xmlns="http://www.w3.org/2000/svg" viewBox="0 0 168.91 171.25"><defs><style>.cls-1{fill:#43d27b;}.cls-2{fill:#fff;}</style></defs><title>thumbsup</title><circle class="cls-1" cx="84.45" cy="88.15" r="79.3"/><path class="cls-2" d="M68.71,85.32v33.12c0,7.22,1.6,8.26,14.31,8.26H119.6s9.55-2.19,7-12.52c0,0,6.36-4,2.39-14.12,0,0,5.76-6,.2-14.31,0,0,7.17-11.13-6.59-15.31a13.21,13.21,0,0,0-4.24-.53c-4.77.15-17.06.47-18.18-.33-1.39-1-3.71-1.6,3-13.33,4.93-11.28,1.46-20.73-3-22.7-4.2-1.83-7,2.9-8.17,14C88.49,59,82.64,55,69.86,80.43A10.89,10.89,0,0,0,68.71,85.32Z"/><rect class="cls-2" x="37.34" y="79.25" width="25.16" height="47.45" rx="3"/><circle class="cls-1" cx="49.91" cy="90.55" r="4.3"/></svg>