<svg xmlns="http://www.w3.org/2000/svg" viewBox="0 0 75.05 75.05"><defs><style>.cls-1{fill:#785dd5;stroke:#785dd5;stroke-linejoin:round;stroke-width:4px;}.cls-2{fill:#7ce5ff;}.cls-3{fill:#658de8;}.cls-4{fill:#25cce8;}.cls-5{fill:#4a8ad3;}.cls-6{fill:#455ec4;}.cls-7{fill:#4a73d3;}</style></defs><title>dice</title><g id="Layer_2" data-name="Layer 2"><path class="cls-1" d="M63.69,22.9V43.19a3.91,3.91,0,0,1-.83,2.41L44.72,68.93A3.94,3.94,0,0,1,39.77,70l-27-14.34a4,4,0,0,1-2.09-3.48V31.89a3.92,3.92,0,0,1,.83-2.42L29.66,6.15a3.93,3.93,0,0,1,4.95-1.06l27,14.34A3.92,3.92,0,0,1,63.69,22.9Z"/><path class="cls-2" d="M59.62,25.46,44.47,44.93A3.94,3.94,0,0,1,39.52,46L16,33.5a3.92,3.92,0,0,1-1.26-5.88L29.91,8.15a3.93,3.93,0,0,1,4.95-1.06l23.5,12.48A3.94,3.94,0,0,1,59.62,25.46Z"/><path class="cls-3" d="M60.84,27.93l-17,22a.59.59,0,0,0-.13.36V66.78a.61.61,0,0,0,1.08.37l17-22.05a.59.59,0,0,0,.12-.37V28.29A.59.59,0,0,0,60.84,27.93Z"/><path class="cls-4" d="M41,50,14.53,35.78a1.25,1.25,0,0,0-1.84,1.1V53.19a1.24,1.24,0,0,0,.66,1.1l26.5,14.26a1.25,1.25,0,0,0,1.84-1.1V51.11A1.24,1.24,0,0,0,41,50Z"/><ellipse class="cls-5" cx="36.92" cy="26.23" rx="3.83" ry="3.44"/><ellipse class="cls-6" cx="59.16" cy="33.33" rx="4.18" ry="1.7" transform="translate(0.71 67.9) rotate(-60)"/><ellipse class="cls-6" cx="53.38" cy="46.13" rx="4.18" ry="1.7" transform="translate(-13.26 69.29) rotate(-60)"/><ellipse class="cls-6" cx="47.53" cy="59.6" rx="4.18" ry="1.28" transform="translate(-27.85 70.97) rotate(-60)"/><ellipse class="cls-7" cx="18.23" cy="40.96" rx="2.12" ry="4.57" transform="translate(-26.36 36.27) rotate(-60)"/><ellipse class="cls-7" cx="36.15" cy="61.05" rx="2.12" ry="4.57" transform="translate(-34.8 61.84) rotate(-60)"/></g></svg>