<svg xmlns="http://www.w3.org/2000/svg" viewBox="0 0 75.05 75.05"><defs><style>.cls-1{fill:#785dd5;stroke:#785dd5;stroke-linejoin:round;stroke-width:4px;}.cls-2{fill:#7ce5ff;}.cls-3{fill:#658de8;}.cls-4{fill:#25cce8;}.cls-5{fill:#4a8ad3;}.cls-6{fill:#4a73d3;}.cls-7{fill:#455ec4;}</style></defs><title>dice</title><g id="Layer_2" data-name="Layer 2"><path class="cls-1" d="M64.34,22.9V43.19a3.91,3.91,0,0,1-.83,2.41L45.37,68.93A3.94,3.94,0,0,1,40.42,70l-27-14.34a3.94,3.94,0,0,1-2.09-3.48V31.89a3.92,3.92,0,0,1,.83-2.42L30.31,6.15a3.93,3.93,0,0,1,4.95-1.06l27,14.34A3.94,3.94,0,0,1,64.34,22.9Z"/><path class="cls-2" d="M60.26,25.46,45.12,44.93A3.94,3.94,0,0,1,40.17,46L16.67,33.5a3.93,3.93,0,0,1-1.26-5.88L30.56,8.15a3.93,3.93,0,0,1,4.95-1.06L59,19.57A3.93,3.93,0,0,1,60.26,25.46Z"/><path class="cls-3" d="M61.49,27.93l-17,22a.58.58,0,0,0-.12.36V66.78a.6.6,0,0,0,1.07.37l17-22.05a.59.59,0,0,0,.13-.37V28.29A.59.59,0,0,0,61.49,27.93Z"/><path class="cls-4" d="M41.68,50,15.18,35.78a1.25,1.25,0,0,0-1.84,1.1V53.19a1.24,1.24,0,0,0,.66,1.1L40.5,68.55a1.25,1.25,0,0,0,1.84-1.1V51.11A1.24,1.24,0,0,0,41.68,50Z"/><ellipse class="cls-5" cx="52.15" cy="23.77" rx="3.83" ry="3.44"/><ellipse class="cls-5" cx="23.41" cy="29.43" rx="3.83" ry="3.44"/><ellipse class="cls-6" cx="26.87" cy="51.17" rx="2.05" ry="4.41" transform="translate(-30.88 48.85) rotate(-60)"/><ellipse class="cls-7" cx="59.03" cy="34.31" rx="4.27" ry="1.74" transform="translate(-0.2 68.27) rotate(-60)"/><ellipse class="cls-7" cx="47.66" cy="59.83" rx="4.27" ry="1.26" transform="translate(-27.98 71.18) rotate(-60)"/><ellipse class="cls-5" cx="37.84" cy="26.54" rx="3.83" ry="3.44"/></g></svg>