<svg xmlns="http://www.w3.org/2000/svg" viewBox="0 0 75.05 75.05"><defs><style>.cls-1{fill:#f63;stroke:#f63;stroke-miterlimit:10;stroke-width:4px;}.cls-2{fill:#ffdf4c;}.cls-3{fill:#ff7fa2;}.cls-4{fill:#ffb35e;}.cls-5{fill:#ff5dd5;}.cls-6{fill:#ea5daf;}.cls-7{fill:#d74381;}</style></defs><title>studio3</title><g id="Layer_2" data-name="Layer 2"><path class="cls-1" d="M64.52,22.54V42.82a3.92,3.92,0,0,1-.83,2.42L45.55,68.56a3.93,3.93,0,0,1-4.95,1.06l-27-14.34a3.94,3.94,0,0,1-2.09-3.47V31.52a4,4,0,0,1,.83-2.41L30.49,5.78a3.94,3.94,0,0,1,5-1l27,14.33A3.94,3.94,0,0,1,64.52,22.54Z"/><path class="cls-2" d="M60.45,25.09,45.3,44.56a3.93,3.93,0,0,1-4.95,1.06L16.86,33.14a3.93,3.93,0,0,1-1.26-5.89L30.74,7.78a3.94,3.94,0,0,1,4.95-1.06l23.5,12.49A3.92,3.92,0,0,1,60.45,25.09Z"/><path class="cls-3" d="M61.67,27.56l-17,22a.64.64,0,0,0-.13.37V66.42a.6.6,0,0,0,1.08.36l17-22a.63.63,0,0,0,.12-.37V27.93A.6.6,0,0,0,61.67,27.56Z"/><path class="cls-4" d="M41.87,49.65,15.36,35.42a1.25,1.25,0,0,0-1.84,1.1v16.3a1.25,1.25,0,0,0,.66,1.1l26.5,14.26a1.24,1.24,0,0,0,1.84-1.1V50.75A1.25,1.25,0,0,0,41.87,49.65Z"/><ellipse class="cls-5" cx="52.34" cy="23.41" rx="3.83" ry="3.44"/><ellipse class="cls-5" cx="23.6" cy="29.07" rx="3.83" ry="3.44"/><ellipse class="cls-6" cx="27.05" cy="50.8" rx="2.05" ry="4.41" transform="translate(-30.47 48.83) rotate(-60)"/><ellipse class="cls-7" cx="59.21" cy="33.94" rx="4.27" ry="1.74" transform="translate(0.21 68.25) rotate(-60)"/><ellipse class="cls-7" cx="47.84" cy="59.46" rx="4.27" ry="1.26" transform="translate(-27.57 71.16) rotate(-60)"/><ellipse class="cls-5" cx="38.02" cy="25.93" rx="3.83" ry="3.44"/></g></svg>