<svg xmlns="http://www.w3.org/2000/svg" viewBox="0 0 75.05 75.05"><defs><style>.cls-1{fill:#785dd5;stroke:#785dd5;stroke-linejoin:round;stroke-width:4px;}.cls-2{fill:#7ce5ff;}.cls-3{fill:#658de8;}.cls-4{fill:#25cce8;}.cls-5{fill:#4a8ad3;}.cls-6{fill:#4a73d3;}.cls-7{fill:#455ec4;}</style></defs><title>dice</title><g id="Layer_2" data-name="Layer 2"><path class="cls-1" d="M63.36,22.89V43.18a4,4,0,0,1-.83,2.41L44.39,68.91a3.94,3.94,0,0,1-5,1.06l-27-14.33a3.94,3.94,0,0,1-2.09-3.48V31.88a3.92,3.92,0,0,1,.83-2.42L29.32,6.14a3.94,3.94,0,0,1,5-1.06l27,14.34A3.94,3.94,0,0,1,63.36,22.89Z"/><path class="cls-2" d="M59.28,25.44,44.13,44.92a3.93,3.93,0,0,1-4.94,1L15.69,33.49a3.92,3.92,0,0,1-1.26-5.88L29.58,8.13a3.93,3.93,0,0,1,4.94-1.05L58,19.56A3.92,3.92,0,0,1,59.28,25.44Z"/><path class="cls-3" d="M60.5,27.91l-17,22a.58.58,0,0,0-.12.36V66.77a.6.6,0,0,0,1.07.37l17-22a.62.62,0,0,0,.13-.37V28.28A.61.61,0,0,0,60.5,27.91Z"/><path class="cls-4" d="M40.7,50,14.19,35.77a1.24,1.24,0,0,0-1.83,1.1V53.18a1.25,1.25,0,0,0,.65,1.1L39.52,68.54a1.25,1.25,0,0,0,1.84-1.1V51.1A1.26,1.26,0,0,0,40.7,50Z"/><ellipse class="cls-5" cx="33.67" cy="14.62" rx="3.83" ry="3.44"/><ellipse class="cls-5" cx="51.17" cy="23.76" rx="3.83" ry="3.44"/><ellipse class="cls-5" cx="36.58" cy="26.21" rx="3.83" ry="3.44"/><ellipse class="cls-5" cx="22.43" cy="29.42" rx="3.83" ry="3.44"/><ellipse class="cls-5" cx="39.88" cy="38.43" rx="3.83" ry="3.44"/><ellipse class="cls-6" cx="25.89" cy="51.15" rx="2.05" ry="4.41" transform="matrix(0.5, -0.87, 0.87, 0.5, -31.36, 48)"/><ellipse class="cls-7" cx="48.02" cy="47.49" rx="4.69" ry="1.74" transform="translate(-17.12 65.33) rotate(-60)"/><ellipse class="cls-7" cx="53.87" cy="45.72" rx="4.27" ry="1.74" transform="translate(-12.66 69.51) rotate(-60)"/><ellipse class="cls-7" cx="58.86" cy="44.41" rx="3.62" ry="1.16" transform="translate(-9.03 73.18) rotate(-60)"/></g></svg>