<svg xmlns="http://www.w3.org/2000/svg" viewBox="0 0 75.05 75.05"><defs><style>.cls-1{fill:#785dd5;stroke:#785dd5;stroke-linejoin:round;stroke-width:4px;}.cls-2{fill:#7ce5ff;}.cls-3{fill:#658de8;}.cls-4{fill:#25cce8;}.cls-5{fill:#4a8ad3;}.cls-6{fill:#4a73d3;}.cls-7{fill:#455ec4;}</style></defs><title>dice</title><g id="Layer_2" data-name="Layer 2"><path class="cls-1" d="M64.34,22.89V43.18a3.91,3.91,0,0,1-.83,2.41L45.37,68.91A3.93,3.93,0,0,1,40.42,70l-27-14.33a3.94,3.94,0,0,1-2.09-3.48V31.88a3.92,3.92,0,0,1,.83-2.42L30.31,6.14a3.93,3.93,0,0,1,4.95-1.06l27,14.34A3.94,3.94,0,0,1,64.34,22.89Z"/><path class="cls-2" d="M60.26,25.44,45.12,44.92a3.94,3.94,0,0,1-4.95,1L16.67,33.49a3.94,3.94,0,0,1-1.26-5.88L30.56,8.13a3.94,3.94,0,0,1,4.95-1.05L59,19.56A3.92,3.92,0,0,1,60.26,25.44Z"/><path class="cls-3" d="M61.49,27.91l-17,22a.58.58,0,0,0-.12.36V66.77a.6.6,0,0,0,1.07.37l17-22a.62.62,0,0,0,.13-.37V28.28A.6.6,0,0,0,61.49,27.91Z"/><path class="cls-4" d="M41.68,50,15.18,35.77a1.25,1.25,0,0,0-1.84,1.1V53.18a1.24,1.24,0,0,0,.66,1.1L40.5,68.54a1.25,1.25,0,0,0,1.84-1.1V51.1A1.24,1.24,0,0,0,41.68,50Z"/><ellipse class="cls-5" cx="52.15" cy="22.92" rx="3.92" ry="3.52"/><ellipse class="cls-5" cx="46.71" cy="30.42" rx="3.92" ry="3.52"/><ellipse class="cls-5" cx="41.27" cy="37.92" rx="3.92" ry="3.52"/><ellipse class="cls-5" cx="35.72" cy="14.51" rx="3.92" ry="3.52"/><ellipse class="cls-5" cx="29.62" cy="21.55" rx="3.92" ry="3.52"/><ellipse class="cls-5" cx="23.52" cy="28.58" rx="3.92" ry="3.52"/><ellipse class="cls-6" cx="35.93" cy="50" rx="2.15" ry="4.62" transform="matrix(0.5, -0.87, 0.87, 0.5, -25.34, 56.12)"/><ellipse class="cls-6" cx="27.24" cy="51.1" rx="2.05" ry="4.41" transform="matrix(0.5, -0.87, 0.87, 0.5, -30.64, 49.14)"/><ellipse class="cls-6" cx="18.78" cy="51.78" rx="2.05" ry="4.41" transform="translate(-35.46 42.15) rotate(-60)"/><ellipse class="cls-7" cx="47.76" cy="48.52" rx="4.7" ry="1.74" transform="translate(-18.14 65.62) rotate(-60)"/><ellipse class="cls-7" cx="59.45" cy="44.34" rx="4.7" ry="1.16" transform="translate(-8.67 73.66) rotate(-60)"/></g></svg>