<svg xmlns="http://www.w3.org/2000/svg" xmlns:xlink="http://www.w3.org/1999/xlink" viewBox="0 0 481.65 360"><defs><style>.cls-1{fill:url(#linear-gradient);}.cls-2{fill:url(#linear-gradient-2);}.cls-3{fill:url(#linear-gradient-3);}.cls-4{opacity:0.43;fill:url(#linear-gradient-4);}.cls-5{opacity:0.56;fill:url(#linear-gradient-5);}.cls-10,.cls-6{fill:#ffdf4c;}.cls-6{stroke:#ff774c;}.cls-6,.cls-7,.cls-8,.cls-9{stroke-miterlimit:10;}.cls-11,.cls-6,.cls-8,.cls-9{stroke-width:4px;}.cls-7{fill:#4ef7ff;}.cls-7,.cls-8{stroke:#ff5dd5;}.cls-10,.cls-7{stroke-width:3px;}.cls-8{fill:#ffcfe1;}.cls-9{fill:#cad0ff;}.cls-10,.cls-9{stroke:#785dd5;}.cls-10{stroke-linecap:round;}.cls-10,.cls-11{stroke-linejoin:round;}.cls-11{fill:#55ffde;stroke:#30b5b1;}</style><linearGradient id="linear-gradient" x1="378.97" y1="419.28" x2="102.68" y2="-59.28" gradientUnits="userSpaceOnUse"><stop offset="0" stop-color="#863782"/><stop offset="0.13" stop-color="#823681"/><stop offset="1" stop-color="#1b145b"/></linearGradient><linearGradient id="linear-gradient-2" x1="416.54" y1="60.06" x2="58.3" y2="418.3" gradientUnits="userSpaceOnUse"><stop offset="0" stop-color="#963e8b"/><stop offset="0.02" stop-color="#943e8b"/><stop offset="0.69" stop-color="#563d86"/><stop offset="1" stop-color="#3e3c84"/></linearGradient><linearGradient id="linear-gradient-3" y1="320.73" x2="481.65" y2="320.73" gradientUnits="userSpaceOnUse"><stop offset="0" stop-color="#8f9ba5"/><stop offset="1" stop-color="#524a66"/></linearGradient><linearGradient id="linear-gradient-4" x1="69.99" y1="310.11" x2="164.77" y2="310.11" gradientUnits="userSpaceOnUse"><stop offset="0" stop-color="#6b2f79"/><stop offset="1" stop-color="#1b145b"/></linearGradient><linearGradient id="linear-gradient-5" x1="330.65" y1="310.11" x2="425.44" y2="310.11" xlink:href="#linear-gradient-4"/></defs><title>neutral</title><g id="Layer_1" data-name="Layer 1"><rect class="cls-1" width="481.65" height="360"/><polygon class="cls-2" points="0 276.6 0 111.54 53.29 111.54 53.29 146.96 87.27 146.96 87.27 217.6 151.5 217.6 151.5 73.4 205.43 73.4 205.43 169.3 251.97 169.3 251.97 198.8 303.13 198.8 303.13 114.27 351.86 114.27 351.86 147.97 378.11 147.97 378.11 87.02 425.44 87.02 425.44 184.72 460.85 184.72 460.85 125.16 481.65 125.16 481.65 360 0 360 0 276.6"/><rect class="cls-3" y="281.46" width="481.65" height="78.54"/><ellipse class="cls-4" cx="117.38" cy="310.11" rx="47.39" ry="10.05"/><ellipse class="cls-5" cx="378.05" cy="310.11" rx="47.39" ry="10.05"/></g><g id="Layer_2" data-name="Layer 2"><path class="cls-6" d="M408,206.57c0,16.57-13.43,20-30,20s-30-3.43-30-20,13.43-38,30-38S408,190,408,206.57Z"/><ellipse class="cls-7" cx="388.6" cy="208.68" rx="3.91" ry="5.07"/><ellipse class="cls-7" cx="367.49" cy="208.68" rx="3.91" ry="5.07"/><path class="cls-6" d="M388.21,245.94c0,5.74-4.65,7.38-10.39,7.38s-10.38-1.64-10.38-7.38,4.65-13.74,10.38-13.74S388.21,240.21,388.21,245.94Z"/><path class="cls-6" d="M373.09,262.06c0-2.61,2.12-3.35,4.73-3.35s4.73.74,4.73,3.35-2.11,6.26-4.73,6.26S373.09,264.68,373.09,262.06Z"/><path class="cls-8" d="M394.48,241.31c-2.13-5.71,2.08-5.6,5.35-4.15,10.78,4.77,36.54,26.75,17.19,27.69C406.36,265.36,397.75,250.08,394.48,241.31Z"/><path class="cls-8" d="M406.39,175.06c-3.22,3.22-4.79-.17-5-3.17-.84-9.88-3.46-29.57,12.93-21.09C426.66,157.2,411.35,170.11,406.39,175.06Z"/><path class="cls-8" d="M349.93,175.06c3.22,3.22,4.79-.17,5.05-3.17.84-9.88,3.45-29.57-12.94-21.09C329.67,157.2,345,170.11,349.93,175.06Z"/><path class="cls-8" d="M361.62,241.31c2.13-5.71-2.09-5.6-5.36-4.15-10.78,4.77-36.53,26.75-17.18,27.69C349.73,265.36,358.34,250.08,361.62,241.31Z"/><path class="cls-9" d="M127.16,235.15c0,5.73-4.65,7.37-10.39,7.37s-10.38-1.64-10.38-7.37,4.65-14.74,10.38-14.74S127.16,229.41,127.16,235.15Z"/><path class="cls-9" d="M147.1,193.82c0,16.57-13.43,20-30,20s-30-3.43-30-20,13.43-33,30-33S147.1,177.26,147.1,193.82Z"/><ellipse class="cls-10" cx="127.66" cy="195.93" rx="3.91" ry="5.07"/><ellipse class="cls-10" cx="106.55" cy="195.93" rx="3.91" ry="5.07"/><polygon class="cls-11" points="153.28 205.53 177.14 216.88 162.88 230.21 148.87 211.47 153.28 205.53"/><polygon class="cls-11" points="143.23 217.72 138.17 221.5 139.6 236.8 152.35 229.92 143.23 217.72"/><polygon class="cls-11" points="156.74 198.44 157.82 190.05 192.07 190.7 183.16 209.93 156.74 198.44"/><polygon class="cls-11" points="81.48 205.53 57.62 216.88 71.88 230.21 85.89 211.47 81.48 205.53"/><polygon class="cls-11" points="91.53 217.72 96.58 221.5 95.16 236.8 82.41 229.92 91.53 217.72"/><polygon class="cls-11" points="78.02 198.44 76.94 190.05 42.69 190.7 51.6 209.93 78.02 198.44"/><polygon class="cls-11" points="91.28 162.7 73.53 162.7 82.41 175.47 91.28 162.7"/><polygon class="cls-11" points="143.48 162.7 161.23 162.7 152.35 175.47 143.48 162.7"/><polygon class="cls-11" points="132.94 243.29 137.07 268.64 122.42 250.6 132.94 243.29"/><polygon class="cls-11" points="100.61 243.29 96.48 268.64 111.13 250.6 100.61 243.29"/></g></svg>