<svg xmlns="http://www.w3.org/2000/svg" xmlns:xlink="http://www.w3.org/1999/xlink" viewBox="0 0 481.65 360"><defs><style>.cls-1{fill:url(#linear-gradient);}.cls-2{fill:url(#linear-gradient-2);}.cls-3{fill:url(#linear-gradient-3);}.cls-4{opacity:0.43;fill:url(#linear-gradient-4);}.cls-5{opacity:0.56;fill:url(#linear-gradient-5);}.cls-6{fill:#55ffde;stroke:#30b5b1;}.cls-11,.cls-6{stroke-linejoin:round;}.cls-10,.cls-6,.cls-7,.cls-9{stroke-width:4px;}.cls-7{fill:#ffdf4c;stroke:#ff774c;}.cls-10,.cls-7,.cls-8,.cls-9{stroke-miterlimit:10;}.cls-8{fill:aqua;}.cls-8,.cls-9{stroke:#ff5dd5;}.cls-11,.cls-8{stroke-width:3px;}.cls-9{fill:#ffcfe1;}.cls-10{fill:#cad0ff;}.cls-10,.cls-11{stroke:#785dd5;}.cls-11{fill:none;stroke-linecap:round;}</style><linearGradient id="linear-gradient" x1="378.97" y1="419.28" x2="102.68" y2="-59.28" gradientUnits="userSpaceOnUse"><stop offset="0" stop-color="#863782"/><stop offset="0.13" stop-color="#823681"/><stop offset="1" stop-color="#1b145b"/></linearGradient><linearGradient id="linear-gradient-2" x1="416.54" y1="60.06" x2="58.3" y2="418.3" gradientUnits="userSpaceOnUse"><stop offset="0" stop-color="#963e8b"/><stop offset="0.02" stop-color="#943e8b"/><stop offset="0.69" stop-color="#563d86"/><stop offset="1" stop-color="#3e3c84"/></linearGradient><linearGradient id="linear-gradient-3" y1="320.73" x2="481.65" y2="320.73" gradientUnits="userSpaceOnUse"><stop offset="0" stop-color="#8f9ba5"/><stop offset="1" stop-color="#524a66"/></linearGradient><linearGradient id="linear-gradient-4" x1="69.99" y1="310.11" x2="164.77" y2="310.11" gradientUnits="userSpaceOnUse"><stop offset="0" stop-color="#6b2f79"/><stop offset="1" stop-color="#1b145b"/></linearGradient><linearGradient id="linear-gradient-5" x1="330.65" y1="310.11" x2="425.44" y2="310.11" xlink:href="#linear-gradient-4"/></defs><title>defeat</title><g id="Layer_1" data-name="Layer 1"><rect class="cls-1" width="481.65" height="360"/><polygon class="cls-2" points="0 276.6 0 111.54 53.29 111.54 53.29 146.96 87.27 146.96 87.27 217.6 151.5 217.6 151.5 73.4 205.43 73.4 205.43 169.3 251.97 169.3 251.97 198.8 303.13 198.8 303.13 114.27 351.86 114.27 351.86 147.97 378.11 147.97 378.11 87.02 425.44 87.02 425.44 184.72 460.85 184.72 460.85 125.16 481.65 125.16 481.65 360 0 360 0 276.6"/><rect class="cls-3" y="281.46" width="481.65" height="78.54"/><ellipse class="cls-4" cx="117.38" cy="310.11" rx="47.39" ry="10.05"/><ellipse class="cls-5" cx="378.05" cy="310.11" rx="47.39" ry="10.05"/></g><g id="Layer_2" data-name="Layer 2"><polygon class="cls-6" points="161.85 278.5 170.45 303.49 150.96 302.64 154.52 279.52 161.85 278.5"/><polygon class="cls-6" points="146.11 279.86 139.87 278.9 129.94 290.63 143.79 294.92 146.11 279.86"/><polygon class="cls-6" points="169.34 276 176.08 270.91 199.6 295.81 179.63 302.92 169.34 276"/><polygon class="cls-6" points="68.74 285.12 60.14 310.11 79.64 309.26 76.07 286.14 68.74 285.12"/><polygon class="cls-6" points="84.48 286.48 90.72 285.52 100.65 297.26 86.81 301.54 84.48 286.48"/><polygon class="cls-6" points="61.26 282.63 54.51 277.53 30.99 302.43 50.97 309.54 61.26 282.63"/><polygon class="cls-6" points="119.6 289.87 101.86 289.87 110.73 302.64 119.6 289.87"/><polygon class="cls-6" points="163.85 295.16 181.59 295.16 172.72 307.93 163.85 295.16"/><path class="cls-7" d="M394.58,200.82c4.22,16-7.89,22.75-23.91,27s-29.87,4.33-34.09-11.69,3.31-40.16,19.32-44.38S390.37,184.8,394.58,200.82Z"/><path class="cls-8" d="M378.73,204.24a6.05,6.05,0,0,1,1.37,2.57c.71,2.7-.4,5.34-2.49,5.89s-4.35-1.19-5.07-3.9Z"/><path class="cls-8" d="M352,211.28a6.14,6.14,0,0,0,.08,2.91c.71,2.71,3,4.45,5.07,3.9s3.2-3.19,2.49-5.89Z"/><path class="cls-7" d="M385.44,243.94c1.46,5.55-2.62,8.32-8.17,9.78s-10.46,1.06-11.92-4.49,1-14.47,6.54-15.93S384,238.39,385.44,243.94Z"/><path class="cls-7" d="M378.38,266.83c-.67-2.52,1.19-3.78,3.72-4.45s4.76-.48,5.43,2-.46,6.59-3,7.26S379,269.36,378.38,266.83Z"/><path class="cls-9" d="M391.89,235.47c-6.08.29-4.69-3.69-2.32-6.36,7.82-8.82,36.59-26.67,31.6-8C418.42,231.46,401.25,235,391.89,235.47Z"/><path class="cls-9" d="M356,244.93c5.44-2.74,2.27-5.52-1.11-6.69-11.16-3.82-45-5.18-31.42,8.65C330.93,254.51,347.62,249.14,356,244.93Z"/><path class="cls-9" d="M332.19,182.69c4.54.35,3.52-3.25,1.76-5.69-5.8-8.05-16.63-24.69-23.55-7.58C305.18,182.33,325.21,182.16,332.19,182.69Z"/><path class="cls-9" d="M382.45,169.45c-3.78,2.54-4.67-1.09-4.34-4.09,1.08-9.85,2.31-29.67,16.76-18.19C405.78,155.83,388.26,165.55,382.45,169.45Z"/><path class="cls-10" d="M153,297.4c-8,14.51-21.41,11-35.92,3.05s-24.61-17.47-16.63-32S128.14,246,142.65,254,161,282.89,153,297.4Z"/><line class="cls-11" x1="133.43" y1="284.58" x2="136.5" y2="295.15"/><line class="cls-11" x1="140.25" y1="288.33" x2="129.68" y2="291.4"/><line class="cls-11" x1="115.43" y1="274.66" x2="118.49" y2="285.23"/><line class="cls-11" x1="122.24" y1="278.42" x2="111.67" y2="281.48"/><path class="cls-10" d="M99.44,306.63c-5.73-.29-7.13-5-6.84-10.75s2.17-10.29,7.9-10S115,291.28,114.69,297,105.17,306.92,99.44,306.63Z"/><polygon class="cls-6" points="133.78 301.04 158.43 308.25 135.84 313.68 133.78 301.04"/><polygon class="cls-6" points="93.11 308.26 73.53 324.89 96.38 320.64 93.11 308.26"/></g></svg>